<mxfile host="app.diagrams.net" agent="Mozilla/5.0 (X11; Linux x86_64) AppleWebKit/537.36 (KHTML, like Gecko) Chrome/131.0.0.0 Safari/537.36" version="26.0.14">
  <diagram name="페이지-1" id="QX85PDqCmNSuRi2JOlEU">
    <mxGraphModel dx="4547" dy="2930" grid="1" gridSize="10" guides="1" tooltips="1" connect="1" arrows="1" fold="1" page="1" pageScale="1" pageWidth="827" pageHeight="1169" math="0" shadow="0">
      <root>
        <mxCell id="0" />
        <mxCell id="1" parent="0" />
        <mxCell id="8WT_DYF4QWscyHyzon4S-37" value="" style="group" parent="1" vertex="1" connectable="0">
          <mxGeometry x="40" y="1280" width="620" height="410" as="geometry" />
        </mxCell>
        <mxCell id="8WT_DYF4QWscyHyzon4S-21" value="" style="rounded=1;whiteSpace=wrap;html=1;" parent="8WT_DYF4QWscyHyzon4S-37" vertex="1">
          <mxGeometry width="620" height="410" as="geometry" />
        </mxCell>
        <mxCell id="8WT_DYF4QWscyHyzon4S-22" style="edgeStyle=orthogonalEdgeStyle;rounded=0;orthogonalLoop=1;jettySize=auto;html=1;" parent="8WT_DYF4QWscyHyzon4S-37" source="8WT_DYF4QWscyHyzon4S-23" target="8WT_DYF4QWscyHyzon4S-24" edge="1">
          <mxGeometry relative="1" as="geometry" />
        </mxCell>
        <mxCell id="8WT_DYF4QWscyHyzon4S-23" value="" style="shape=image;verticalLabelPosition=bottom;labelBackgroundColor=default;verticalAlign=top;aspect=fixed;imageAspect=0;editableCssRules=.*;image=data:image/svg+xml,PHN2ZyB4bWxucz0iaHR0cDovL3d3dy53My5vcmcvMjAwMC9zdmciIHZpZXdCb3g9IjAgMCAzMiAzMiI+PHBhdGggZmlsbD0iIzAxOTYzOSIgZD0ibTE1Ljk0OCAyaC4wNjVhMTAuNDE4IDEwLjQxOCAwIDAgMSAuOTcyLjUyOHE1LjQyOSAzLjEyMiAxMC44NTggNi4yNDZhLjc5Mi43OTIgMCAwIDEgLjQxNC43ODhjLS4wMDggNC4zODkgMCA4Ljc3Ny0uMDA1IDEzLjE2NGEuODEzLjgxMyAwIDAgMSAtLjM1Ni41MDdxLTUuNzczIDMuMzI0LTExLjU0NyA2LjY0NGEuNTg3LjU4NyAwIDAgMSAtLjY1Ny4wMzdxLTUuNzgtMy4zMTQtMTEuNTQ5LTYuNjRhLjcuNyAwIDAgMSAtLjQtLjY2NnEwLTYuNTgyIDAtMTMuMTYzYS42OTMuNjkzIDAgMCAxIC4zODctLjY3cTUuNDIyLTMuMTE4IDEwLjg0NC02LjI0Yy4zMjItLjE4NC42MzgtLjM3OS45NzQtLjUzNSIvPjxwYXRoIGZpbGw9IiNmZmYiIGQ9Im04Ljc2NyAxMC41MzhxMCA1LjQyOSAwIDEwLjg1OWExLjUwOSAxLjUwOSAwIDAgMCAuNDI3IDEuMDg3IDEuNjQ3IDEuNjQ3IDAgMCAwIDIuMDYuMjA2IDEuNTY0IDEuNTY0IDAgMCAwIC42ODUtMS4yOTNjMC0yLjYyLS4wMDUtNS4yNCAwLTcuODZxMy41ODMgNC4yOSA3LjE4MSA4LjU2OGEyLjgzMyAyLjgzMyAwIDAgMCAyLjYuNzgyIDEuNTYxIDEuNTYxIDAgMCAwIDEuMjUxLTEuMzcxcS4wMDgtNS41NDEgMC0xMS4wODFhMS41ODIgMS41ODIgMCAwIDAgLTMuMTUyIDBjMCAyLjY2Mi0uMDE2IDUuMzIxIDAgNy45ODItMi4zNDYtMi43NjYtNC42NjMtNS41NTYtNy04LjMzMmEyLjgxNyAyLjgxNyAwIDAgMCAtMi42NDktMS4wNTIgMS41NzkgMS41NzkgMCAwIDAgLTEuNDAzIDEuNTA1eiIvPjwvc3ZnPg==;" parent="8WT_DYF4QWscyHyzon4S-37" vertex="1">
          <mxGeometry x="187" y="149.83999999999992" width="60" height="60" as="geometry" />
        </mxCell>
        <mxCell id="8WT_DYF4QWscyHyzon4S-24" value="" style="shape=image;verticalLabelPosition=bottom;labelBackgroundColor=default;verticalAlign=top;aspect=fixed;imageAspect=0;editableCssRules=.*;image=data:image/svg+xml,PHN2ZyB4bWxucz0iaHR0cDovL3d3dy53My5vcmcvMjAwMC9zdmciIHZpZXdCb3g9IjAgMCAzMiAzMiIgaGVpZ2h0PSIzMiIgd2lkdGg9IjMyIj48ZyBmaWxsLXJ1bGU9ImV2ZW5vZGQiIGZpbGw9Im5vbmUiPjxwYXRoIGQ9Ik0wIDBoMzJ2MzJIMHoiLz48cGF0aCBkPSJNNS40NjYgMjcuOTkzYTEuMzY0IDEuMzY0IDAgMTAtLjA4Ny0uMDc2bC0uMjY2LS4yMzRDMS45NzIgMjQuNzYyIDAgMjAuNTk3IDAgMTUuOTc4IDAgNy4xNjggNy4xNjggMCAxNS45OCAwYzQuNDggMCA4LjUzIDEuODU3IDExLjQzNSA0LjgzNmExNC42ODEgMTQuNjgxIDAgMDAxLjctMy4wMTVjMi4wMzYgNi4xMTggMy4yMzMgMTEuMjYgMi43OTUgMTUuMzEtLjU5MiA4LjI3NC03LjUwOCAxNC44My0xNS45MyAxNC44M2ExNS45MDMgMTUuOTAzIDAgMDEtMTAuMjc2LTMuNzU3bC0uMjM4LS4yMXptMjMuNTgtNC45ODJjNC4wMS01LjMzNiAxLjc3NS0xMy45NjUtLjA4NS0xOS40OC0xLjY1NyAzLjQ1My01LjczOCA2LjA5NC05LjI2MiA2LjkzLTMuMzAzLjc4OC02LjIyNi4xNDItOS4yODMgMS4zMTgtNi45NyAyLjY4LTYuODYgMTAuOTkyLTMuMDIgMTIuODYuMDAyIDAgLjIzLjEyNC4yMjcuMTIgMC0uMDAyIDUuNjQ0LTEuMTIyIDguNzY0LTIuMjc0IDQuNTYtMS42ODQgOS41NjYtNS44MzUgMTEuMjEzLTEwLjY1Ny0uODc3IDUuMDE1LTUuMTgyIDkuODQtOS41MDcgMTIuMDU2LTIuMzAyIDEuMTgyLTQuMDkyIDEuNDQ1LTcuODggMi43NTYtLjQ2NC4xNTgtLjgyOC4zMTQtLjgyOC4zMTQuOTYtLjE2IDEuOTE3LS4yMTIgMS45MTctLjIxMiA1LjM5My0uMjU1IDEzLjgwNyAxLjUxNiAxNy43NDUtMy43M3oiIGZpbGw9IiM3MEFENTEiLz48L2c+PC9zdmc+;" parent="8WT_DYF4QWscyHyzon4S-37" vertex="1">
          <mxGeometry x="280" y="149.83999999999992" width="60" height="60" as="geometry" />
        </mxCell>
        <mxCell id="8WT_DYF4QWscyHyzon4S-25" value="" style="shape=image;verticalLabelPosition=bottom;labelBackgroundColor=default;verticalAlign=top;aspect=fixed;imageAspect=0;editableCssRules=.*;image=data:image/svg+xml,PHN2ZyB4bWxucz0iaHR0cDovL3d3dy53My5vcmcvMjAwMC9zdmciIHdpZHRoPSIyNTYiIHZpZXdCb3g9IjAgMCAyNTYgMjUyIiBwcmVzZXJ2ZUFzcGVjdFJhdGlvPSJ4TWlkWU1pZCIgaGVpZ2h0PSIyNTIiPjxnIGZpbGw9IiMwMDU0NmIiPjxwYXRoIGQ9Im0yMzUuNjQ4Mjc2IDE5NC4yMTE2MzJjLTEzLjkxODQyNS0uMzQ3MDczLTI0LjcwNTQwNCAxLjA0NTY0LTMzLjc1MjY3MiA0Ljg3MjMzMi0yLjYwOTcwNSAxLjA0MzQ0Mi02Ljc4NTY3NyAxLjA0NDUzNC03LjEzMzgzNyA0LjM0OTQ5NCAxLjM5MjczMSAxLjM5MjczMSAxLjU2NjI2NyAzLjY1NDI1OCAyLjc4NDMyOSA1LjU2NzU5NyAyLjA4OTA5NiAzLjQ3ODQ5NiA1Ljc0MTE1MSA4LjE3NzI4OCA5LjA0NzIyMSAxMC42MTM0NTIgMy42NTMxNDQgMi43ODMyNDEgNy4zMDczNzQgNS41NjY0ODIgMTEuMTM0MDk5IDguMDAyNjQ2IDYuNzg1Njc2IDQuMTc1OTcyIDE0LjQ0MTIwOSA2LjYxMTAxNyAyMS4wNTIyNjEgMTAuNzg2OTcgMy44Mjg5IDIuNDMzOTQ0IDcuNjU0NDQ2IDUuNTY3NTg4IDExLjQ4MjI1NyA4LjE3NzI4OCAxLjkxNDQ3MyAxLjM5MDUxNSAzLjEzMTQ0NyAzLjY1MzEzNCA1LjU2NzYxNSA0LjUyMzAzNXYtLjUyMTcxNGMtMS4yMTgxMDctMS41NjYyNTMtMS41NjYyNjctMy44Mjc3OC0yLjc4MzI0MS01LjU2NzU4OC0xLjczODcxNi0xLjczOTgwMy0zLjQ3OTYwNi0zLjMwNjA2MS01LjIxOTQwOS01LjA0NTg2NC01LjA0NTg3NC02Ljc4NDU4LTExLjMwODc2Ni0xMi43MDAyOTYtMTguMDk0MzUyLTE3LjU3MTUzMi01LjU2NjQ4Mi0zLjgyNzc5OC0xNy43NDYxOTItOS4wNDcxOTgtMjAuMDA3NzgzLTE1LjQ4NDY5NyAwIDAtLjE3NDYyNC0uMTczNTQxLS4zNDgxNi0uMzQ3MDgxIDMuODI3NzY3LS4zNDgxODMgOC4zNTA4MTItMS43Mzk3OSAxMi4wMDUwODctMi43ODQzNDcgNS45MTU3NzUtMS41NjYyNDkgMTEuMzA4NzY2LTEuMjE4MDc1IDE3LjM5Nzk4Ni0yLjc4MzI0MSAyLjc4MzI0Mi0uNjk2MzUyIDUuNTY3NjE1LTEuNTY2MjUzIDguMzUwODU2LTIuNDM2MTZ2LTEuNTY1MTQ3Yy0zLjEzMDMxMy0zLjEzMjU0My01LjM5Mjk0NS03LjMwNzM5MS04LjY5OTAxNi0xMC4yNjUyOTctOC44NzI1NTItNy42NTY2NjUtMTguNjE2MTM4LTE1LjEzNjUwOS0yOC43MDY3NTMtMjEuMzk5Mzg0LTUuMzk0MDc5LTMuNDc5NjAyLTEyLjM1MzI5Mi01Ljc0MjI0My0xOC4wOTQzNTItOC42OTkwMjUtMi4wODY4NzYtMS4wNDU2NC01LjU2NzYxNS0xLjU2NjI0OS02Ljc4NDU4OS0zLjMwNjA3LTMuMTMyNTIxLTMuODI3Nzc2LTQuODcyMzI0LTguODcyNTM5LTcuMTMzODQxLTEzLjM5NjcyLTUuMDQzNjUzLTkuNTY5OTc0LTkuOTE3MTE5LTIwLjE4MTI3My0xNC4yNjY1NzItMzAuMjcxOTE0LTMuMTMwMzE0LTYuNzg1NjcyLTUuMDQ0NzU5LTEzLjU3MTM3NTgtOC44NzI1NDgtMTkuODM0MTQxNy0xNy45MTk2OTYtMjkuNTc2NjE3OS0zNy40MDU3NjctNDcuNDk2NDEzMS02Ny4zMzA1NTQtNjUuMDY5MDY1OS02LjQzNzQ4NDgtMy42NTMxNTIyLTE0LjA5MTkzMDEtNS4yMTk0MDMzLTIyLjI2OTI0NTItNy4xMzI3NDUtNC4zNDgzOTc5LS4xNzQ2NDQxLTguNjk5MDE1OS0uNTIxNzE1OC0xMy4wNDg1NTU2LS42OTYzNTk5LTIuNzgzMjQxMS0xLjIxODA5NDYtNS41Njc1ODc3LTQuNTIzMDQzMy04LjAwMzc2MDctNi4wODkzMDg0LTkuOTE0ODcxLTYuMjYzOTQ4LTM1LjQ5MTMyMzQ5LTE5LjgzMzExNTE4LTQyLjc5ODY5MTctMS45MTMzNDE3My00LjY5NzY5MDYyIDExLjMwODc0OTIzIDYuOTU5MjEyNzQgMjIuNDQyNzc0NjMgMTAuOTYwNDkyNyAyOC4xODQ5Nzg4MyAyLjk1ODk4ODUgNC4wMDEzMzY2IDYuNzg1NjcyIDguNTI0MzcgOC44NzM2NTc4IDEzLjA0ODU2NTEgMS4yMTgwODg4IDIuOTU1Njc2MyAxLjU2NTE1NjggNi4wODkzMDIxIDIuNzgzMjQ1NiA5LjIyMDczMDMgMi43ODQzNDIxIDcuNjUzMzYyNCA1LjM5Mjk0MTMgMTYuMTc5ODk3OCA5LjA0NzE4OTUgMjMuMzEzODI5NCAxLjkxNDQ0NTEgMy42NTMxNTE3IDQuMDAxMzI1MyA3LjQ4MDkzNjIgNi40Mzc0ODkzIDEwLjc4NTg2IDEuMzkxNjE2IDEuOTEzMzM5NSAzLjgyNjY3ODkgMi43ODQzNDY2IDQuMzQ5NDk4OSA1LjkxNTc3MDMtMi40MzUwNTM5IDMuNDc5NTkyNy0yLjYwOTcwMDIgOC42OTkwMTU3LTQuMDAyNDMwOSAxMy4wNDg1NTU3LTYuMjYyODQyOSAxOS42NTk1LTMuODI2NjgzNCA0NC4wMTY4MDggNS4wNDU4NzMzIDU4LjQ1Njg5OCAyLjc4MzI0MTEgNC4zNDg0MDcgOS4zOTUzMzU5IDEzLjkxOTUzMSAxOC4yNjc5NjA2IDEwLjI2NTI5MiA3LjgyOTEwOTktMy4xMzE0MzggNi4wODkzMDIxLTEzLjA0ODU1NiA4LjM1MDgyODgtMjEuNzQ3NTcyLjUyMjgyOS0yLjA4OTA4Ny4xNzQ2NDE4LTMuNDc5NTkzIDEuMjE4MDg0Mi00Ljg3MTIyNy4wMDA5MDYyLjE3MzU0MSAwIC4zNDgxNzggMCAuMzQ4MTc4IDIuNDM2MTU5NSA0Ljg3MTIyNyA0Ljg3MTIyNjkgOS41Njg5NDkgNy4xMzI3NDQ1IDE0LjQ0MDA5NSA1LjM5NDA0NjkgOC41MjQzNjkgMTQuNzg4MzU0MyAxNy4zOTgwMTggMjIuNjE3NDEzOSAyMy4zMTM4NDcgNC4xNzcwNzggMy4xMzAzMDUgNy40ODIwMzMgOC41MjQzNzQgMTIuNzAxNDIgMTAuNDM4ODF2LS41MjI4MjloLS4zNDgxNzhjLTEuMDQ0NTQ0LTEuNTY2MjUzLTIuNjA5Ny0yLjI2MTUyNi00LjAwMTMyNS0zLjQ3OTU5Mi0zLjEzMTQyOS0zLjEzMTQyOS02LjYxMjEzNi02Ljk1OTIyNy05LjA0NzE5LTEwLjQzODgxMS03LjMwNjI4NTMtOS43NDM1OTUtMTMuNzQ0ODg5Mi0yMC41Mjk0NDYtMTkuNDg1OTgxNC0zMS42NjQ1ODUtMi43ODMyNDExLTUuMzkyOTQxLTUuMjE5NDAwNS0xMS4zMDg3NjItNy40ODA5MjcyLTE2LjcwMTY4NS0xLjA0NDU0MzQtMi4wODkwODItMS4wNDQ1NDM0LTUuMjE5NDA1LTIuNzg0MzQ2Ni02LjI2MjgzOC0yLjYwOTcwMDMgMy44MjY2NzQtNi40MzYzODM3IDcuMTMyNzQ0LTguMzUwODI4NyAxMS44MzA0NDQtMy4zMDM4NTQ1IDcuNDgwOTI3LTMuNjUzMTQyNyAxNi43MDE2OC00Ljg3MTIyNjkgMjYuMjcwNTMtLjY5NTI2ODkuMTc0NjUxLS4zNDgxODcyIDAtLjY5NjM2OTkuMzQ4MTkxLTUuNTY2NDg2Ni0xLjM5MjczLTcuNDgwOTMxNy03LjEzMjc0NC05LjU2ODk1MzgtMTIuMDA1MDg2LTUuMjE5NDA1LTEyLjM1MjEyNi02LjA4OTMwMi0zMi4xODYzNjgtMS41NjUxNTY4LTQ2LjQ1MTgxNiAxLjIxODA4NDMtMy42NTQyNDggNi40Mzc0ODkzLTE1LjEzNjUyMzIgNC4zNDk1MDM1LTE4LjYxNjEzNDEtMS4wNDM0NDI0LTMuMzA2MDc0Ni00LjUyNDE0OTgtNS4yMTk0MDUtNi40Mzc0ODkzLTcuODI5MTA1Mi0yLjI2MTUyNjctMy4zMDYwNzAxLTQuNjk3Njg2MS03LjQ4MDkzMTctNi4yNjI4NDI5LTExLjEzNTEzOTEtNC4xNzU5NzE3LTkuNzQyNDc2NS02LjI2Mzk0ODUtMjAuNTI5NDQ2Ni0xMC43ODY5NzQ2LTMwLjI3MzA0MjItMi4wODc5ODU4LTQuNTI0MTQ4OS01Ljc0MTEyODUtOS4yMjA3MzE3LTguNjk5MDE1OS0xMy4zOTU2MDkxLTMuMzA0OTU1NS00LjY5NzY3NzktNi45NTkyMTI4LTguMDAzNzQ4OS05LjU2ODk0OTI3LTEzLjU3MTM1NTctLjg2ODgwMDU3LTEuOTEzMzQxNy0yLjA4Nzk4NTg0LTUuMDQ0NzU5MS0uNjk2MzYwNzgtNy4xMzI3NTQuMzQ4MTgyNjYtMS4zOTE2MTE5IDEuMDQzNDM3ODgtMS45MTMzMzY3IDIuNDM2MTU5NDUtMi4yNjE1MjE2MyAyLjI2MTUyNjYtMS45MTQ0NDU0OCA4LjY5OTAxNTkuNTIxNzE1NzMgMTAuOTYwNDkyNyAxLjU2NTE2MTMzIDYuNDM3NDg5MyAyLjYwODU4ODggMTEuODMwNDQ0MiA1LjA0NTg3MjQgMTcuMjI0NDkxMSA4LjY5OTAxNSAyLjQzNTA1ODQgMS43Mzk4MDEgNS4wNDQ3NTg2IDUuMDQ1ODcxOSA4LjE3NjE4NjkgNS45MTU3NzI2aDMuNjU0MjQzN2M1LjU2NzU4NzYgMS4yMTY5ODE0IDExLjgzMDQ0NDEuMzQ4MTY1OSAxNy4wNDk4NDQ2IDEuOTEzMzQxMyA5LjIyMTgzNTkgMi45NTY3ODI4IDE3LjU3MTUzNjUgNy4zMDczODkxIDI1LjA1MzY0MTcgMTIuMDA1MDg2IDIyLjc5MjA2MDQgMTQuNDQwMDk3OCA0MS41ODA1ODM0IDM0Ljk3MDY2MzUgNTQuMjgyMDkzNCA1OS41MDE0OTQyIDIuMDg3OTg2IDQuMDAwMjI0NiAyLjk1Njc4MiA3LjY1NTU2NDYgNC44NzEyMjcgMTEuODMwNDQ0NiAzLjY1NDI0OCA4LjUyNTQ3NSA4LjE3NzI4OCAxNy4yMjQ0ODYgMTEuODMwNDQgMjUuNTc1MzI4IDMuNjUzMTQyIDguMTc2MTgzIDcuMTMyNzQ0IDE2LjUyODE0NCAxMi4zNTIxMzEgMjMuMzEzODMgMi42MTA4MDYgMy42NTIwNDYgMTMuMDQ4NTQyIDUuNTY2NDgyIDE3Ljc0NjE2NSA3LjQ4MDkyNyAzLjQ3OTYwNiAxLjU2NTE2NiA4Ljg3MzY4NSAyLjk1Nzg5NiAxMi4wMDUwODYgNC44NzEyMzEgNS45MTQ2ODkgMy42NTIwMzcgMTEuODMwNDY0IDcuODI5MTI0IDE3LjM5ODAzMyAxMS44MzA0NCAyLjc4NDMyOSAyLjA4Njg4OSAxMS40ODIyNTcgNi40Mzc0OTggMTIuMDA1MDg2IDkuOTE2MDA0eiIvPjxwYXRoIGQ9Im01OC4xODY0ODkyIDQzLjAyMjI2NDRjLTIuOTU3ODgyOSAwLTUuMDQ0NzU4Ny4zNDkyODgyLTcuMTMyNzQ0NS44NzEwMTYyIDAtLjAwMDkwNjIgMCAuMTc0NjQxOSAwIC4zNDgxODI3aC4zNDgxODcyYzEuMzkyNzI2MSAyLjc4MzI0MDEgMy44MjY2ODM1IDQuNjk3Njg1MiA1LjU2NjQ4MjEgNy4xMzI3MzQ1IDEuMzkyNzMwNiAyLjc4MzI0MTEgMi42MDk3MDAzIDUuNTY3NTk2NyA0LjAwMjQzMDkgOC4zNTE5NDM0LjE3MzUzMTctLjE3NDY0NjQuMzQ3MDcyNi0uMzQ4MTgyNy4zNDcwNzI2LS4zNDgxODI3IDIuNDM3Mjc0LTEuNzQwOTA4NyAzLjY1NDI0ODItNC41MjQxNDk4IDMuNjU0MjQ4Mi04LjY5OTAxNTktMS4wNDQ1NDgtMS4yMTgwODQzLTEuMjE4MDg4OC0yLjQzNjE2NC0yLjA4Nzk4NTktMy42NTQyNDgyLTEuMDQzNDQyNC0xLjc0MDkxMjQtMy4zMDYwNzQ2LTIuNjA5Njk5NC00LjY5NzY5MDYtNC4wMDI0M3oiLz48L2c+PC9zdmc+;" parent="8WT_DYF4QWscyHyzon4S-37" vertex="1">
          <mxGeometry x="497" y="144.76" width="71.26" height="70.16" as="geometry" />
        </mxCell>
        <mxCell id="8WT_DYF4QWscyHyzon4S-26" value="" style="edgeStyle=orthogonalEdgeStyle;rounded=0;orthogonalLoop=1;jettySize=auto;html=1;" parent="8WT_DYF4QWscyHyzon4S-37" source="8WT_DYF4QWscyHyzon4S-27" target="8WT_DYF4QWscyHyzon4S-23" edge="1">
          <mxGeometry relative="1" as="geometry" />
        </mxCell>
        <mxCell id="8WT_DYF4QWscyHyzon4S-27" value="" style="shape=image;verticalLabelPosition=bottom;labelBackgroundColor=default;verticalAlign=top;aspect=fixed;imageAspect=0;editableCssRules=.*;image=data:image/svg+xml,PHN2ZyB4bWxucz0iaHR0cDovL3d3dy53My5vcmcvMjAwMC9zdmciIHdpZHRoPSIxNiIgdmlld0JveD0iMCAwIDE2IDE2IiBoZWlnaHQ9IjE2Ij48cGF0aCBmaWxsPSJub25lIiBkPSJtMCAwaDE2djE2aC0xNnoiLz48cGF0aCBkPSJtOCA4YzIuMjA5IDAgNC0xLjc5MSA0LTRzLTEuNzkxLTQtNC00LTQgMS43OTEtNCA0IDEuNzkxIDQgNCA0em00IDJoLThjLTIuMjA5IDAtNCAxLjc5MS00IDR2MmgxNnYtMmMwLTIuMjA5LTEuNzkxLTQtNC00eiIvPjwvc3ZnPg==;" parent="8WT_DYF4QWscyHyzon4S-37" vertex="1">
          <mxGeometry x="67" y="149.83999999999992" width="60" height="60" as="geometry" />
        </mxCell>
        <mxCell id="8WT_DYF4QWscyHyzon4S-28" style="edgeStyle=orthogonalEdgeStyle;rounded=0;orthogonalLoop=1;jettySize=auto;html=1;" parent="8WT_DYF4QWscyHyzon4S-37" source="8WT_DYF4QWscyHyzon4S-24" target="8WT_DYF4QWscyHyzon4S-25" edge="1">
          <mxGeometry relative="1" as="geometry">
            <mxPoint x="347.15999999999997" y="170.66767441860452" as="sourcePoint" />
            <mxPoint x="384.18548999999996" y="169.16391999999996" as="targetPoint" />
            <Array as="points" />
          </mxGeometry>
        </mxCell>
        <mxCell id="8WT_DYF4QWscyHyzon4S-29" value="" style="group" parent="8WT_DYF4QWscyHyzon4S-37" vertex="1" connectable="0">
          <mxGeometry x="427" y="230" width="180" height="130" as="geometry" />
        </mxCell>
        <mxCell id="8WT_DYF4QWscyHyzon4S-30" value="" style="rounded=1;whiteSpace=wrap;html=1;" parent="8WT_DYF4QWscyHyzon4S-29" vertex="1">
          <mxGeometry y="30" width="167.92" height="100" as="geometry" />
        </mxCell>
        <mxCell id="8WT_DYF4QWscyHyzon4S-31" value="" style="group" parent="8WT_DYF4QWscyHyzon4S-29" vertex="1" connectable="0">
          <mxGeometry x="10" width="170" height="130" as="geometry" />
        </mxCell>
        <mxCell id="8WT_DYF4QWscyHyzon4S-32" value="Local Cache" style="text;html=1;align=center;verticalAlign=middle;resizable=0;points=[];autosize=1;strokeColor=none;fillColor=none;container=1;fontFamily=Do Hyeon;fontSource=https%3A%2F%2Ffonts.googleapis.com%2Fcss%3Ffamily%3DDo%2BHyeon;" parent="8WT_DYF4QWscyHyzon4S-31" vertex="1">
          <mxGeometry x="29.999999999999986" width="80" height="30" as="geometry" />
        </mxCell>
        <mxCell id="8WT_DYF4QWscyHyzon4S-33" value="&lt;div&gt;{&lt;/div&gt;&lt;div&gt;&amp;nbsp; &amp;nbsp;&quot;name&quot;:&quot;Son&quot;,&lt;/div&gt;&lt;div&gt;&amp;nbsp; &amp;nbsp;&quot;age&quot;:33,&lt;/div&gt;&lt;div&gt;&amp;nbsp; &amp;nbsp;&quot;statusMessage&quot;:&quot;hello!&quot;&lt;/div&gt;&lt;div&gt;}&lt;/div&gt;" style="text;html=1;align=left;verticalAlign=middle;resizable=0;points=[];autosize=1;strokeColor=none;fillColor=none;fontFamily=Do Hyeon;fontSource=https%3A%2F%2Ffonts.googleapis.com%2Fcss%3Ffamily%3DDo%2BHyeon;" parent="8WT_DYF4QWscyHyzon4S-31" vertex="1">
          <mxGeometry y="35" width="150" height="90" as="geometry" />
        </mxCell>
        <mxCell id="8WT_DYF4QWscyHyzon4S-34" value="수정 후 조회 (서버 1대인 경우)" style="text;html=1;align=center;verticalAlign=middle;whiteSpace=wrap;rounded=0;fontFamily=Do Hyeon;fontSource=https%3A%2F%2Ffonts.googleapis.com%2Fcss%3Ffamily%3DDo%2BHyeon;fontSize=30;" parent="8WT_DYF4QWscyHyzon4S-37" vertex="1">
          <mxGeometry x="148" y="20" width="345.5" height="50" as="geometry" />
        </mxCell>
        <mxCell id="8WT_DYF4QWscyHyzon4S-35" style="edgeStyle=orthogonalEdgeStyle;rounded=0;orthogonalLoop=1;jettySize=auto;html=1;entryX=0.002;entryY=0.588;entryDx=0;entryDy=0;entryPerimeter=0;fillColor=#f8cecc;strokeColor=#FF0000;strokeWidth=3;" parent="8WT_DYF4QWscyHyzon4S-37" source="8WT_DYF4QWscyHyzon4S-24" target="8WT_DYF4QWscyHyzon4S-30" edge="1">
          <mxGeometry relative="1" as="geometry" />
        </mxCell>
        <mxCell id="8WT_DYF4QWscyHyzon4S-36" value="Cache Register" style="text;html=1;align=center;verticalAlign=middle;resizable=0;points=[];autosize=1;strokeColor=none;fillColor=none;fontFamily=Do Hyeon;fontSource=https%3A%2F%2Ffonts.googleapis.com%2Fcss%3Ffamily%3DDo%2BHyeon;fontColor=#FF3333;" parent="8WT_DYF4QWscyHyzon4S-37" vertex="1">
          <mxGeometry x="280" y="250" width="100" height="30" as="geometry" />
        </mxCell>
        <mxCell id="8WT_DYF4QWscyHyzon4S-80" value="" style="group" parent="1" vertex="1" connectable="0">
          <mxGeometry x="810" y="180" width="810" height="560" as="geometry" />
        </mxCell>
        <mxCell id="8WT_DYF4QWscyHyzon4S-38" value="" style="rounded=1;whiteSpace=wrap;html=1;" parent="8WT_DYF4QWscyHyzon4S-80" vertex="1">
          <mxGeometry width="810" height="560" as="geometry" />
        </mxCell>
        <mxCell id="8WT_DYF4QWscyHyzon4S-39" style="edgeStyle=orthogonalEdgeStyle;rounded=0;orthogonalLoop=1;jettySize=auto;html=1;" parent="8WT_DYF4QWscyHyzon4S-80" source="8WT_DYF4QWscyHyzon4S-40" target="8WT_DYF4QWscyHyzon4S-41" edge="1">
          <mxGeometry relative="1" as="geometry">
            <Array as="points">
              <mxPoint x="260" y="320" />
              <mxPoint x="260" y="180" />
            </Array>
          </mxGeometry>
        </mxCell>
        <mxCell id="8WT_DYF4QWscyHyzon4S-118" style="rounded=0;orthogonalLoop=1;jettySize=auto;html=1;entryX=0.001;entryY=0.56;entryDx=0;entryDy=0;entryPerimeter=0;" parent="8WT_DYF4QWscyHyzon4S-80" source="8WT_DYF4QWscyHyzon4S-40" target="8WT_DYF4QWscyHyzon4S-55" edge="1">
          <mxGeometry relative="1" as="geometry" />
        </mxCell>
        <mxCell id="8WT_DYF4QWscyHyzon4S-40" value="" style="shape=image;verticalLabelPosition=bottom;labelBackgroundColor=default;verticalAlign=top;aspect=fixed;imageAspect=0;editableCssRules=.*;image=data:image/svg+xml,PHN2ZyB4bWxucz0iaHR0cDovL3d3dy53My5vcmcvMjAwMC9zdmciIHZpZXdCb3g9IjAgMCAzMiAzMiI+PHBhdGggZmlsbD0iIzAxOTYzOSIgZD0ibTE1Ljk0OCAyaC4wNjVhMTAuNDE4IDEwLjQxOCAwIDAgMSAuOTcyLjUyOHE1LjQyOSAzLjEyMiAxMC44NTggNi4yNDZhLjc5Mi43OTIgMCAwIDEgLjQxNC43ODhjLS4wMDggNC4zODkgMCA4Ljc3Ny0uMDA1IDEzLjE2NGEuODEzLjgxMyAwIDAgMSAtLjM1Ni41MDdxLTUuNzczIDMuMzI0LTExLjU0NyA2LjY0NGEuNTg3LjU4NyAwIDAgMSAtLjY1Ny4wMzdxLTUuNzgtMy4zMTQtMTEuNTQ5LTYuNjRhLjcuNyAwIDAgMSAtLjQtLjY2NnEwLTYuNTgyIDAtMTMuMTYzYS42OTMuNjkzIDAgMCAxIC4zODctLjY3cTUuNDIyLTMuMTE4IDEwLjg0NC02LjI0Yy4zMjItLjE4NC42MzgtLjM3OS45NzQtLjUzNSIvPjxwYXRoIGZpbGw9IiNmZmYiIGQ9Im04Ljc2NyAxMC41MzhxMCA1LjQyOSAwIDEwLjg1OWExLjUwOSAxLjUwOSAwIDAgMCAuNDI3IDEuMDg3IDEuNjQ3IDEuNjQ3IDAgMCAwIDIuMDYuMjA2IDEuNTY0IDEuNTY0IDAgMCAwIC42ODUtMS4yOTNjMC0yLjYyLS4wMDUtNS4yNCAwLTcuODZxMy41ODMgNC4yOSA3LjE4MSA4LjU2OGEyLjgzMyAyLjgzMyAwIDAgMCAyLjYuNzgyIDEuNTYxIDEuNTYxIDAgMCAwIDEuMjUxLTEuMzcxcS4wMDgtNS41NDEgMC0xMS4wODFhMS41ODIgMS41ODIgMCAwIDAgLTMuMTUyIDBjMCAyLjY2Mi0uMDE2IDUuMzIxIDAgNy45ODItMi4zNDYtMi43NjYtNC42NjMtNS41NTYtNy04LjMzMmEyLjgxNyAyLjgxNyAwIDAgMCAtMi42NDktMS4wNTIgMS41NzkgMS41NzkgMCAwIDAgLTEuNDAzIDEuNTA1eiIvPjwvc3ZnPg==;" parent="8WT_DYF4QWscyHyzon4S-80" vertex="1">
          <mxGeometry x="160" y="290" width="60" height="60" as="geometry" />
        </mxCell>
        <mxCell id="8WT_DYF4QWscyHyzon4S-42" value="" style="shape=image;verticalLabelPosition=bottom;labelBackgroundColor=default;verticalAlign=top;aspect=fixed;imageAspect=0;editableCssRules=.*;image=data:image/svg+xml,PHN2ZyB4bWxucz0iaHR0cDovL3d3dy53My5vcmcvMjAwMC9zdmciIHdpZHRoPSIyNTYiIHZpZXdCb3g9IjAgMCAyNTYgMjUyIiBwcmVzZXJ2ZUFzcGVjdFJhdGlvPSJ4TWlkWU1pZCIgaGVpZ2h0PSIyNTIiPjxnIGZpbGw9IiMwMDU0NmIiPjxwYXRoIGQ9Im0yMzUuNjQ4Mjc2IDE5NC4yMTE2MzJjLTEzLjkxODQyNS0uMzQ3MDczLTI0LjcwNTQwNCAxLjA0NTY0LTMzLjc1MjY3MiA0Ljg3MjMzMi0yLjYwOTcwNSAxLjA0MzQ0Mi02Ljc4NTY3NyAxLjA0NDUzNC03LjEzMzgzNyA0LjM0OTQ5NCAxLjM5MjczMSAxLjM5MjczMSAxLjU2NjI2NyAzLjY1NDI1OCAyLjc4NDMyOSA1LjU2NzU5NyAyLjA4OTA5NiAzLjQ3ODQ5NiA1Ljc0MTE1MSA4LjE3NzI4OCA5LjA0NzIyMSAxMC42MTM0NTIgMy42NTMxNDQgMi43ODMyNDEgNy4zMDczNzQgNS41NjY0ODIgMTEuMTM0MDk5IDguMDAyNjQ2IDYuNzg1Njc2IDQuMTc1OTcyIDE0LjQ0MTIwOSA2LjYxMTAxNyAyMS4wNTIyNjEgMTAuNzg2OTcgMy44Mjg5IDIuNDMzOTQ0IDcuNjU0NDQ2IDUuNTY3NTg4IDExLjQ4MjI1NyA4LjE3NzI4OCAxLjkxNDQ3MyAxLjM5MDUxNSAzLjEzMTQ0NyAzLjY1MzEzNCA1LjU2NzYxNSA0LjUyMzAzNXYtLjUyMTcxNGMtMS4yMTgxMDctMS41NjYyNTMtMS41NjYyNjctMy44Mjc3OC0yLjc4MzI0MS01LjU2NzU4OC0xLjczODcxNi0xLjczOTgwMy0zLjQ3OTYwNi0zLjMwNjA2MS01LjIxOTQwOS01LjA0NTg2NC01LjA0NTg3NC02Ljc4NDU4LTExLjMwODc2Ni0xMi43MDAyOTYtMTguMDk0MzUyLTE3LjU3MTUzMi01LjU2NjQ4Mi0zLjgyNzc5OC0xNy43NDYxOTItOS4wNDcxOTgtMjAuMDA3NzgzLTE1LjQ4NDY5NyAwIDAtLjE3NDYyNC0uMTczNTQxLS4zNDgxNi0uMzQ3MDgxIDMuODI3NzY3LS4zNDgxODMgOC4zNTA4MTItMS43Mzk3OSAxMi4wMDUwODctMi43ODQzNDcgNS45MTU3NzUtMS41NjYyNDkgMTEuMzA4NzY2LTEuMjE4MDc1IDE3LjM5Nzk4Ni0yLjc4MzI0MSAyLjc4MzI0Mi0uNjk2MzUyIDUuNTY3NjE1LTEuNTY2MjUzIDguMzUwODU2LTIuNDM2MTZ2LTEuNTY1MTQ3Yy0zLjEzMDMxMy0zLjEzMjU0My01LjM5Mjk0NS03LjMwNzM5MS04LjY5OTAxNi0xMC4yNjUyOTctOC44NzI1NTItNy42NTY2NjUtMTguNjE2MTM4LTE1LjEzNjUwOS0yOC43MDY3NTMtMjEuMzk5Mzg0LTUuMzk0MDc5LTMuNDc5NjAyLTEyLjM1MzI5Mi01Ljc0MjI0My0xOC4wOTQzNTItOC42OTkwMjUtMi4wODY4NzYtMS4wNDU2NC01LjU2NzYxNS0xLjU2NjI0OS02Ljc4NDU4OS0zLjMwNjA3LTMuMTMyNTIxLTMuODI3Nzc2LTQuODcyMzI0LTguODcyNTM5LTcuMTMzODQxLTEzLjM5NjcyLTUuMDQzNjUzLTkuNTY5OTc0LTkuOTE3MTE5LTIwLjE4MTI3My0xNC4yNjY1NzItMzAuMjcxOTE0LTMuMTMwMzE0LTYuNzg1NjcyLTUuMDQ0NzU5LTEzLjU3MTM3NTgtOC44NzI1NDgtMTkuODM0MTQxNy0xNy45MTk2OTYtMjkuNTc2NjE3OS0zNy40MDU3NjctNDcuNDk2NDEzMS02Ny4zMzA1NTQtNjUuMDY5MDY1OS02LjQzNzQ4NDgtMy42NTMxNTIyLTE0LjA5MTkzMDEtNS4yMTk0MDMzLTIyLjI2OTI0NTItNy4xMzI3NDUtNC4zNDgzOTc5LS4xNzQ2NDQxLTguNjk5MDE1OS0uNTIxNzE1OC0xMy4wNDg1NTU2LS42OTYzNTk5LTIuNzgzMjQxMS0xLjIxODA5NDYtNS41Njc1ODc3LTQuNTIzMDQzMy04LjAwMzc2MDctNi4wODkzMDg0LTkuOTE0ODcxLTYuMjYzOTQ4LTM1LjQ5MTMyMzQ5LTE5LjgzMzExNTE4LTQyLjc5ODY5MTctMS45MTMzNDE3My00LjY5NzY5MDYyIDExLjMwODc0OTIzIDYuOTU5MjEyNzQgMjIuNDQyNzc0NjMgMTAuOTYwNDkyNyAyOC4xODQ5Nzg4MyAyLjk1ODk4ODUgNC4wMDEzMzY2IDYuNzg1NjcyIDguNTI0MzcgOC44NzM2NTc4IDEzLjA0ODU2NTEgMS4yMTgwODg4IDIuOTU1Njc2MyAxLjU2NTE1NjggNi4wODkzMDIxIDIuNzgzMjQ1NiA5LjIyMDczMDMgMi43ODQzNDIxIDcuNjUzMzYyNCA1LjM5Mjk0MTMgMTYuMTc5ODk3OCA5LjA0NzE4OTUgMjMuMzEzODI5NCAxLjkxNDQ0NTEgMy42NTMxNTE3IDQuMDAxMzI1MyA3LjQ4MDkzNjIgNi40Mzc0ODkzIDEwLjc4NTg2IDEuMzkxNjE2IDEuOTEzMzM5NSAzLjgyNjY3ODkgMi43ODQzNDY2IDQuMzQ5NDk4OSA1LjkxNTc3MDMtMi40MzUwNTM5IDMuNDc5NTkyNy0yLjYwOTcwMDIgOC42OTkwMTU3LTQuMDAyNDMwOSAxMy4wNDg1NTU3LTYuMjYyODQyOSAxOS42NTk1LTMuODI2NjgzNCA0NC4wMTY4MDggNS4wNDU4NzMzIDU4LjQ1Njg5OCAyLjc4MzI0MTEgNC4zNDg0MDcgOS4zOTUzMzU5IDEzLjkxOTUzMSAxOC4yNjc5NjA2IDEwLjI2NTI5MiA3LjgyOTEwOTktMy4xMzE0MzggNi4wODkzMDIxLTEzLjA0ODU1NiA4LjM1MDgyODgtMjEuNzQ3NTcyLjUyMjgyOS0yLjA4OTA4Ny4xNzQ2NDE4LTMuNDc5NTkzIDEuMjE4MDg0Mi00Ljg3MTIyNy4wMDA5MDYyLjE3MzU0MSAwIC4zNDgxNzggMCAuMzQ4MTc4IDIuNDM2MTU5NSA0Ljg3MTIyNyA0Ljg3MTIyNjkgOS41Njg5NDkgNy4xMzI3NDQ1IDE0LjQ0MDA5NSA1LjM5NDA0NjkgOC41MjQzNjkgMTQuNzg4MzU0MyAxNy4zOTgwMTggMjIuNjE3NDEzOSAyMy4zMTM4NDcgNC4xNzcwNzggMy4xMzAzMDUgNy40ODIwMzMgOC41MjQzNzQgMTIuNzAxNDIgMTAuNDM4ODF2LS41MjI4MjloLS4zNDgxNzhjLTEuMDQ0NTQ0LTEuNTY2MjUzLTIuNjA5Ny0yLjI2MTUyNi00LjAwMTMyNS0zLjQ3OTU5Mi0zLjEzMTQyOS0zLjEzMTQyOS02LjYxMjEzNi02Ljk1OTIyNy05LjA0NzE5LTEwLjQzODgxMS03LjMwNjI4NTMtOS43NDM1OTUtMTMuNzQ0ODg5Mi0yMC41Mjk0NDYtMTkuNDg1OTgxNC0zMS42NjQ1ODUtMi43ODMyNDExLTUuMzkyOTQxLTUuMjE5NDAwNS0xMS4zMDg3NjItNy40ODA5MjcyLTE2LjcwMTY4NS0xLjA0NDU0MzQtMi4wODkwODItMS4wNDQ1NDM0LTUuMjE5NDA1LTIuNzg0MzQ2Ni02LjI2MjgzOC0yLjYwOTcwMDMgMy44MjY2NzQtNi40MzYzODM3IDcuMTMyNzQ0LTguMzUwODI4NyAxMS44MzA0NDQtMy4zMDM4NTQ1IDcuNDgwOTI3LTMuNjUzMTQyNyAxNi43MDE2OC00Ljg3MTIyNjkgMjYuMjcwNTMtLjY5NTI2ODkuMTc0NjUxLS4zNDgxODcyIDAtLjY5NjM2OTkuMzQ4MTkxLTUuNTY2NDg2Ni0xLjM5MjczLTcuNDgwOTMxNy03LjEzMjc0NC05LjU2ODk1MzgtMTIuMDA1MDg2LTUuMjE5NDA1LTEyLjM1MjEyNi02LjA4OTMwMi0zMi4xODYzNjgtMS41NjUxNTY4LTQ2LjQ1MTgxNiAxLjIxODA4NDMtMy42NTQyNDggNi40Mzc0ODkzLTE1LjEzNjUyMzIgNC4zNDk1MDM1LTE4LjYxNjEzNDEtMS4wNDM0NDI0LTMuMzA2MDc0Ni00LjUyNDE0OTgtNS4yMTk0MDUtNi40Mzc0ODkzLTcuODI5MTA1Mi0yLjI2MTUyNjctMy4zMDYwNzAxLTQuNjk3Njg2MS03LjQ4MDkzMTctNi4yNjI4NDI5LTExLjEzNTEzOTEtNC4xNzU5NzE3LTkuNzQyNDc2NS02LjI2Mzk0ODUtMjAuNTI5NDQ2Ni0xMC43ODY5NzQ2LTMwLjI3MzA0MjItMi4wODc5ODU4LTQuNTI0MTQ4OS01Ljc0MTEyODUtOS4yMjA3MzE3LTguNjk5MDE1OS0xMy4zOTU2MDkxLTMuMzA0OTU1NS00LjY5NzY3NzktNi45NTkyMTI4LTguMDAzNzQ4OS05LjU2ODk0OTI3LTEzLjU3MTM1NTctLjg2ODgwMDU3LTEuOTEzMzQxNy0yLjA4Nzk4NTg0LTUuMDQ0NzU5MS0uNjk2MzYwNzgtNy4xMzI3NTQuMzQ4MTgyNjYtMS4zOTE2MTE5IDEuMDQzNDM3ODgtMS45MTMzMzY3IDIuNDM2MTU5NDUtMi4yNjE1MjE2MyAyLjI2MTUyNjYtMS45MTQ0NDU0OCA4LjY5OTAxNTkuNTIxNzE1NzMgMTAuOTYwNDkyNyAxLjU2NTE2MTMzIDYuNDM3NDg5MyAyLjYwODU4ODggMTEuODMwNDQ0MiA1LjA0NTg3MjQgMTcuMjI0NDkxMSA4LjY5OTAxNSAyLjQzNTA1ODQgMS43Mzk4MDEgNS4wNDQ3NTg2IDUuMDQ1ODcxOSA4LjE3NjE4NjkgNS45MTU3NzI2aDMuNjU0MjQzN2M1LjU2NzU4NzYgMS4yMTY5ODE0IDExLjgzMDQ0NDEuMzQ4MTY1OSAxNy4wNDk4NDQ2IDEuOTEzMzQxMyA5LjIyMTgzNTkgMi45NTY3ODI4IDE3LjU3MTUzNjUgNy4zMDczODkxIDI1LjA1MzY0MTcgMTIuMDA1MDg2IDIyLjc5MjA2MDQgMTQuNDQwMDk3OCA0MS41ODA1ODM0IDM0Ljk3MDY2MzUgNTQuMjgyMDkzNCA1OS41MDE0OTQyIDIuMDg3OTg2IDQuMDAwMjI0NiAyLjk1Njc4MiA3LjY1NTU2NDYgNC44NzEyMjcgMTEuODMwNDQ0NiAzLjY1NDI0OCA4LjUyNTQ3NSA4LjE3NzI4OCAxNy4yMjQ0ODYgMTEuODMwNDQgMjUuNTc1MzI4IDMuNjUzMTQyIDguMTc2MTgzIDcuMTMyNzQ0IDE2LjUyODE0NCAxMi4zNTIxMzEgMjMuMzEzODMgMi42MTA4MDYgMy42NTIwNDYgMTMuMDQ4NTQyIDUuNTY2NDgyIDE3Ljc0NjE2NSA3LjQ4MDkyNyAzLjQ3OTYwNiAxLjU2NTE2NiA4Ljg3MzY4NSAyLjk1Nzg5NiAxMi4wMDUwODYgNC44NzEyMzEgNS45MTQ2ODkgMy42NTIwMzcgMTEuODMwNDY0IDcuODI5MTI0IDE3LjM5ODAzMyAxMS44MzA0NCAyLjc4NDMyOSAyLjA4Njg4OSAxMS40ODIyNTcgNi40Mzc0OTggMTIuMDA1MDg2IDkuOTE2MDA0eiIvPjxwYXRoIGQ9Im01OC4xODY0ODkyIDQzLjAyMjI2NDRjLTIuOTU3ODgyOSAwLTUuMDQ0NzU4Ny4zNDkyODgyLTcuMTMyNzQ0NS44NzEwMTYyIDAtLjAwMDkwNjIgMCAuMTc0NjQxOSAwIC4zNDgxODI3aC4zNDgxODcyYzEuMzkyNzI2MSAyLjc4MzI0MDEgMy44MjY2ODM1IDQuNjk3Njg1MiA1LjU2NjQ4MjEgNy4xMzI3MzQ1IDEuMzkyNzMwNiAyLjc4MzI0MTEgMi42MDk3MDAzIDUuNTY3NTk2NyA0LjAwMjQzMDkgOC4zNTE5NDM0LjE3MzUzMTctLjE3NDY0NjQuMzQ3MDcyNi0uMzQ4MTgyNy4zNDcwNzI2LS4zNDgxODI3IDIuNDM3Mjc0LTEuNzQwOTA4NyAzLjY1NDI0ODItNC41MjQxNDk4IDMuNjU0MjQ4Mi04LjY5OTAxNTktMS4wNDQ1NDgtMS4yMTgwODQzLTEuMjE4MDg4OC0yLjQzNjE2NC0yLjA4Nzk4NTktMy42NTQyNDgyLTEuMDQzNDQyNC0xLjc0MDkxMjQtMy4zMDYwNzQ2LTIuNjA5Njk5NC00LjY5NzY5MDYtNC4wMDI0M3oiLz48L2c+PC9zdmc+;" parent="8WT_DYF4QWscyHyzon4S-80" vertex="1">
          <mxGeometry x="690" y="294.91999999999996" width="71.26" height="70.16" as="geometry" />
        </mxCell>
        <mxCell id="8WT_DYF4QWscyHyzon4S-43" value="" style="edgeStyle=orthogonalEdgeStyle;rounded=0;orthogonalLoop=1;jettySize=auto;html=1;" parent="8WT_DYF4QWscyHyzon4S-80" source="8WT_DYF4QWscyHyzon4S-44" target="8WT_DYF4QWscyHyzon4S-40" edge="1">
          <mxGeometry relative="1" as="geometry" />
        </mxCell>
        <mxCell id="8WT_DYF4QWscyHyzon4S-44" value="" style="shape=image;verticalLabelPosition=bottom;labelBackgroundColor=default;verticalAlign=top;aspect=fixed;imageAspect=0;editableCssRules=.*;image=data:image/svg+xml,PHN2ZyB4bWxucz0iaHR0cDovL3d3dy53My5vcmcvMjAwMC9zdmciIHdpZHRoPSIxNiIgdmlld0JveD0iMCAwIDE2IDE2IiBoZWlnaHQ9IjE2Ij48cGF0aCBmaWxsPSJub25lIiBkPSJtMCAwaDE2djE2aC0xNnoiLz48cGF0aCBkPSJtOCA4YzIuMjA5IDAgNC0xLjc5MSA0LTRzLTEuNzkxLTQtNC00LTQgMS43OTEtNCA0IDEuNzkxIDQgNCA0em00IDJoLThjLTIuMjA5IDAtNCAxLjc5MS00IDR2MmgxNnYtMmMwLTIuMjA5LTEuNzkxLTQtNC00eiIvPjwvc3ZnPg==;" parent="8WT_DYF4QWscyHyzon4S-80" vertex="1">
          <mxGeometry x="40" y="290" width="60" height="60" as="geometry" />
        </mxCell>
        <mxCell id="8WT_DYF4QWscyHyzon4S-46" value="" style="group" parent="8WT_DYF4QWscyHyzon4S-80" vertex="1" connectable="0">
          <mxGeometry x="430" y="110" width="180" height="130" as="geometry" />
        </mxCell>
        <mxCell id="8WT_DYF4QWscyHyzon4S-47" value="" style="rounded=1;whiteSpace=wrap;html=1;" parent="8WT_DYF4QWscyHyzon4S-46" vertex="1">
          <mxGeometry y="30" width="167.92" height="100" as="geometry" />
        </mxCell>
        <mxCell id="8WT_DYF4QWscyHyzon4S-48" value="" style="group" parent="8WT_DYF4QWscyHyzon4S-46" vertex="1" connectable="0">
          <mxGeometry x="10" width="170" height="130" as="geometry" />
        </mxCell>
        <mxCell id="8WT_DYF4QWscyHyzon4S-49" value="Local Cache 1" style="text;html=1;align=center;verticalAlign=middle;resizable=0;points=[];autosize=1;strokeColor=none;fillColor=none;container=1;fontFamily=Do Hyeon;fontSource=https%3A%2F%2Ffonts.googleapis.com%2Fcss%3Ffamily%3DDo%2BHyeon;" parent="8WT_DYF4QWscyHyzon4S-48" vertex="1">
          <mxGeometry x="24.999999999999986" width="90" height="30" as="geometry" />
        </mxCell>
        <mxCell id="8WT_DYF4QWscyHyzon4S-50" value="&lt;div&gt;{&lt;/div&gt;&lt;div&gt;&amp;nbsp; &amp;nbsp;&quot;name&quot;:&quot;Son&quot;,&lt;/div&gt;&lt;div&gt;&amp;nbsp; &amp;nbsp;&quot;age&quot;:33,&lt;/div&gt;&lt;div&gt;&amp;nbsp; &amp;nbsp;&quot;statusMessage&quot;:&quot;i am son&quot;&lt;/div&gt;&lt;div&gt;}&lt;/div&gt;" style="text;html=1;align=left;verticalAlign=middle;resizable=0;points=[];autosize=1;strokeColor=none;fillColor=none;fontFamily=Do Hyeon;fontSource=https%3A%2F%2Ffonts.googleapis.com%2Fcss%3Ffamily%3DDo%2BHyeon;" parent="8WT_DYF4QWscyHyzon4S-48" vertex="1">
          <mxGeometry y="35" width="170" height="90" as="geometry" />
        </mxCell>
        <mxCell id="8WT_DYF4QWscyHyzon4S-51" value="조회 (서버가 많은 경우)" style="text;html=1;align=center;verticalAlign=middle;whiteSpace=wrap;rounded=0;fontFamily=Do Hyeon;fontSource=https%3A%2F%2Ffonts.googleapis.com%2Fcss%3Ffamily%3DDo%2BHyeon;fontSize=30;" parent="8WT_DYF4QWscyHyzon4S-80" vertex="1">
          <mxGeometry x="276.5" y="20" width="257" height="50" as="geometry" />
        </mxCell>
        <mxCell id="8WT_DYF4QWscyHyzon4S-58" style="edgeStyle=orthogonalEdgeStyle;rounded=0;orthogonalLoop=1;jettySize=auto;html=1;entryX=0.007;entryY=0.631;entryDx=0;entryDy=0;entryPerimeter=0;" parent="8WT_DYF4QWscyHyzon4S-80" source="8WT_DYF4QWscyHyzon4S-40" target="8WT_DYF4QWscyHyzon4S-56" edge="1">
          <mxGeometry relative="1" as="geometry">
            <Array as="points">
              <mxPoint x="260" y="320" />
              <mxPoint x="260" y="478" />
            </Array>
          </mxGeometry>
        </mxCell>
        <mxCell id="8WT_DYF4QWscyHyzon4S-61" value="Spring Server 2" style="text;html=1;align=center;verticalAlign=middle;resizable=0;points=[];autosize=1;strokeColor=none;fillColor=none;fontFamily=Do Hyeon;fontSource=https%3A%2F%2Ffonts.googleapis.com%2Fcss%3Ffamily%3DDo%2BHyeon;fontSize=15;" parent="8WT_DYF4QWscyHyzon4S-80" vertex="1">
          <mxGeometry x="280" y="350" width="120" height="30" as="geometry" />
        </mxCell>
        <mxCell id="8WT_DYF4QWscyHyzon4S-62" value="Spring Server 3" style="text;html=1;align=center;verticalAlign=middle;resizable=0;points=[];autosize=1;strokeColor=none;fillColor=none;fontFamily=Do Hyeon;fontSource=https%3A%2F%2Ffonts.googleapis.com%2Fcss%3Ffamily%3DDo%2BHyeon;fontSize=15;" parent="8WT_DYF4QWscyHyzon4S-80" vertex="1">
          <mxGeometry x="280" y="505" width="120" height="30" as="geometry" />
        </mxCell>
        <mxCell id="8WT_DYF4QWscyHyzon4S-63" value="" style="group" parent="8WT_DYF4QWscyHyzon4S-80" vertex="1" connectable="0">
          <mxGeometry x="430" y="250" width="180" height="130" as="geometry" />
        </mxCell>
        <mxCell id="8WT_DYF4QWscyHyzon4S-64" value="" style="rounded=1;whiteSpace=wrap;html=1;" parent="8WT_DYF4QWscyHyzon4S-63" vertex="1">
          <mxGeometry y="30" width="167.92" height="100" as="geometry" />
        </mxCell>
        <mxCell id="8WT_DYF4QWscyHyzon4S-65" value="" style="group" parent="8WT_DYF4QWscyHyzon4S-63" vertex="1" connectable="0">
          <mxGeometry x="10" width="170" height="130" as="geometry" />
        </mxCell>
        <mxCell id="8WT_DYF4QWscyHyzon4S-66" value="Local Cache 2" style="text;html=1;align=center;verticalAlign=middle;resizable=0;points=[];autosize=1;strokeColor=none;fillColor=none;container=1;fontFamily=Do Hyeon;fontSource=https%3A%2F%2Ffonts.googleapis.com%2Fcss%3Ffamily%3DDo%2BHyeon;" parent="8WT_DYF4QWscyHyzon4S-65" vertex="1">
          <mxGeometry x="24.999999999999986" width="90" height="30" as="geometry" />
        </mxCell>
        <mxCell id="8WT_DYF4QWscyHyzon4S-67" value="&lt;div&gt;{&lt;/div&gt;&lt;div&gt;&amp;nbsp; &amp;nbsp;&quot;name&quot;:&quot;Son&quot;,&lt;/div&gt;&lt;div&gt;&amp;nbsp; &amp;nbsp;&quot;age&quot;:33,&lt;/div&gt;&lt;div&gt;&amp;nbsp; &amp;nbsp;&quot;statusMessage&quot;:&quot;i am son&quot;&lt;/div&gt;&lt;div&gt;}&lt;/div&gt;" style="text;html=1;align=left;verticalAlign=middle;resizable=0;points=[];autosize=1;strokeColor=none;fillColor=none;fontFamily=Do Hyeon;fontSource=https%3A%2F%2Ffonts.googleapis.com%2Fcss%3Ffamily%3DDo%2BHyeon;" parent="8WT_DYF4QWscyHyzon4S-65" vertex="1">
          <mxGeometry y="35" width="170" height="90" as="geometry" />
        </mxCell>
        <mxCell id="8WT_DYF4QWscyHyzon4S-68" value="" style="group" parent="8WT_DYF4QWscyHyzon4S-80" vertex="1" connectable="0">
          <mxGeometry x="430" y="390" width="180" height="130" as="geometry" />
        </mxCell>
        <mxCell id="8WT_DYF4QWscyHyzon4S-69" value="" style="rounded=1;whiteSpace=wrap;html=1;" parent="8WT_DYF4QWscyHyzon4S-68" vertex="1">
          <mxGeometry y="30" width="167.92" height="100" as="geometry" />
        </mxCell>
        <mxCell id="8WT_DYF4QWscyHyzon4S-70" value="" style="group" parent="8WT_DYF4QWscyHyzon4S-68" vertex="1" connectable="0">
          <mxGeometry x="10" width="170" height="130" as="geometry" />
        </mxCell>
        <mxCell id="8WT_DYF4QWscyHyzon4S-71" value="Local Cache 3" style="text;html=1;align=center;verticalAlign=middle;resizable=0;points=[];autosize=1;strokeColor=none;fillColor=none;container=1;fontFamily=Do Hyeon;fontSource=https%3A%2F%2Ffonts.googleapis.com%2Fcss%3Ffamily%3DDo%2BHyeon;" parent="8WT_DYF4QWscyHyzon4S-70" vertex="1">
          <mxGeometry x="24.999999999999986" width="90" height="30" as="geometry" />
        </mxCell>
        <mxCell id="8WT_DYF4QWscyHyzon4S-72" value="&lt;div&gt;{&lt;/div&gt;&lt;div&gt;&amp;nbsp; &amp;nbsp;&quot;name&quot;:&quot;Son&quot;,&lt;/div&gt;&lt;div&gt;&amp;nbsp; &amp;nbsp;&quot;age&quot;:33,&lt;/div&gt;&lt;div&gt;&amp;nbsp; &amp;nbsp;&quot;statusMessage&quot;:&quot;i am son&quot;&lt;/div&gt;&lt;div&gt;}&lt;/div&gt;" style="text;html=1;align=left;verticalAlign=middle;resizable=0;points=[];autosize=1;strokeColor=none;fillColor=none;fontFamily=Do Hyeon;fontSource=https%3A%2F%2Ffonts.googleapis.com%2Fcss%3Ffamily%3DDo%2BHyeon;" parent="8WT_DYF4QWscyHyzon4S-70" vertex="1">
          <mxGeometry y="35" width="170" height="90" as="geometry" />
        </mxCell>
        <mxCell id="8WT_DYF4QWscyHyzon4S-41" value="" style="shape=image;verticalLabelPosition=bottom;labelBackgroundColor=default;verticalAlign=top;aspect=fixed;imageAspect=0;editableCssRules=.*;image=data:image/svg+xml,PHN2ZyB4bWxucz0iaHR0cDovL3d3dy53My5vcmcvMjAwMC9zdmciIHZpZXdCb3g9IjAgMCAzMiAzMiIgaGVpZ2h0PSIzMiIgd2lkdGg9IjMyIj48ZyBmaWxsLXJ1bGU9ImV2ZW5vZGQiIGZpbGw9Im5vbmUiPjxwYXRoIGQ9Ik0wIDBoMzJ2MzJIMHoiLz48cGF0aCBkPSJNNS40NjYgMjcuOTkzYTEuMzY0IDEuMzY0IDAgMTAtLjA4Ny0uMDc2bC0uMjY2LS4yMzRDMS45NzIgMjQuNzYyIDAgMjAuNTk3IDAgMTUuOTc4IDAgNy4xNjggNy4xNjggMCAxNS45OCAwYzQuNDggMCA4LjUzIDEuODU3IDExLjQzNSA0LjgzNmExNC42ODEgMTQuNjgxIDAgMDAxLjctMy4wMTVjMi4wMzYgNi4xMTggMy4yMzMgMTEuMjYgMi43OTUgMTUuMzEtLjU5MiA4LjI3NC03LjUwOCAxNC44My0xNS45MyAxNC44M2ExNS45MDMgMTUuOTAzIDAgMDEtMTAuMjc2LTMuNzU3bC0uMjM4LS4yMXptMjMuNTgtNC45ODJjNC4wMS01LjMzNiAxLjc3NS0xMy45NjUtLjA4NS0xOS40OC0xLjY1NyAzLjQ1My01LjczOCA2LjA5NC05LjI2MiA2LjkzLTMuMzAzLjc4OC02LjIyNi4xNDItOS4yODMgMS4zMTgtNi45NyAyLjY4LTYuODYgMTAuOTkyLTMuMDIgMTIuODYuMDAyIDAgLjIzLjEyNC4yMjcuMTIgMC0uMDAyIDUuNjQ0LTEuMTIyIDguNzY0LTIuMjc0IDQuNTYtMS42ODQgOS41NjYtNS44MzUgMTEuMjEzLTEwLjY1Ny0uODc3IDUuMDE1LTUuMTgyIDkuODQtOS41MDcgMTIuMDU2LTIuMzAyIDEuMTgyLTQuMDkyIDEuNDQ1LTcuODggMi43NTYtLjQ2NC4xNTgtLjgyOC4zMTQtLjgyOC4zMTQuOTYtLjE2IDEuOTE3LS4yMTIgMS45MTctLjIxMiA1LjM5My0uMjU1IDEzLjgwNyAxLjUxNiAxNy43NDUtMy43M3oiIGZpbGw9IiM3MEFENTEiLz48L2c+PC9zdmc+;" parent="8WT_DYF4QWscyHyzon4S-80" vertex="1">
          <mxGeometry x="301" y="149.83999999999997" width="60" height="60" as="geometry" />
        </mxCell>
        <mxCell id="8WT_DYF4QWscyHyzon4S-55" value="" style="shape=image;verticalLabelPosition=bottom;labelBackgroundColor=default;verticalAlign=top;aspect=fixed;imageAspect=0;editableCssRules=.*;image=data:image/svg+xml,PHN2ZyB4bWxucz0iaHR0cDovL3d3dy53My5vcmcvMjAwMC9zdmciIHZpZXdCb3g9IjAgMCAzMiAzMiIgaGVpZ2h0PSIzMiIgd2lkdGg9IjMyIj48ZyBmaWxsLXJ1bGU9ImV2ZW5vZGQiIGZpbGw9Im5vbmUiPjxwYXRoIGQ9Ik0wIDBoMzJ2MzJIMHoiLz48cGF0aCBkPSJNNS40NjYgMjcuOTkzYTEuMzY0IDEuMzY0IDAgMTAtLjA4Ny0uMDc2bC0uMjY2LS4yMzRDMS45NzIgMjQuNzYyIDAgMjAuNTk3IDAgMTUuOTc4IDAgNy4xNjggNy4xNjggMCAxNS45OCAwYzQuNDggMCA4LjUzIDEuODU3IDExLjQzNSA0LjgzNmExNC42ODEgMTQuNjgxIDAgMDAxLjctMy4wMTVjMi4wMzYgNi4xMTggMy4yMzMgMTEuMjYgMi43OTUgMTUuMzEtLjU5MiA4LjI3NC03LjUwOCAxNC44My0xNS45MyAxNC44M2ExNS45MDMgMTUuOTAzIDAgMDEtMTAuMjc2LTMuNzU3bC0uMjM4LS4yMXptMjMuNTgtNC45ODJjNC4wMS01LjMzNiAxLjc3NS0xMy45NjUtLjA4NS0xOS40OC0xLjY1NyAzLjQ1My01LjczOCA2LjA5NC05LjI2MiA2LjkzLTMuMzAzLjc4OC02LjIyNi4xNDItOS4yODMgMS4zMTgtNi45NyAyLjY4LTYuODYgMTAuOTkyLTMuMDIgMTIuODYuMDAyIDAgLjIzLjEyNC4yMjcuMTIgMC0uMDAyIDUuNjQ0LTEuMTIyIDguNzY0LTIuMjc0IDQuNTYtMS42ODQgOS41NjYtNS44MzUgMTEuMjEzLTEwLjY1Ny0uODc3IDUuMDE1LTUuMTgyIDkuODQtOS41MDcgMTIuMDU2LTIuMzAyIDEuMTgyLTQuMDkyIDEuNDQ1LTcuODggMi43NTYtLjQ2NC4xNTgtLjgyOC4zMTQtLjgyOC4zMTQuOTYtLjE2IDEuOTE3LS4yMTIgMS45MTctLjIxMiA1LjM5My0uMjU1IDEzLjgwNyAxLjUxNiAxNy43NDUtMy43M3oiIGZpbGw9IiM3MEFENTEiLz48L2c+PC9zdmc+;" parent="8WT_DYF4QWscyHyzon4S-80" vertex="1">
          <mxGeometry x="301" y="287" width="60" height="60" as="geometry" />
        </mxCell>
        <mxCell id="8WT_DYF4QWscyHyzon4S-75" style="edgeStyle=orthogonalEdgeStyle;rounded=0;orthogonalLoop=1;jettySize=auto;html=1;entryX=0;entryY=0.5;entryDx=0;entryDy=0;" parent="8WT_DYF4QWscyHyzon4S-80" source="8WT_DYF4QWscyHyzon4S-56" target="8WT_DYF4QWscyHyzon4S-69" edge="1">
          <mxGeometry relative="1" as="geometry" />
        </mxCell>
        <mxCell id="8WT_DYF4QWscyHyzon4S-56" value="" style="shape=image;verticalLabelPosition=bottom;labelBackgroundColor=default;verticalAlign=top;aspect=fixed;imageAspect=0;editableCssRules=.*;image=data:image/svg+xml,PHN2ZyB4bWxucz0iaHR0cDovL3d3dy53My5vcmcvMjAwMC9zdmciIHZpZXdCb3g9IjAgMCAzMiAzMiIgaGVpZ2h0PSIzMiIgd2lkdGg9IjMyIj48ZyBmaWxsLXJ1bGU9ImV2ZW5vZGQiIGZpbGw9Im5vbmUiPjxwYXRoIGQ9Ik0wIDBoMzJ2MzJIMHoiLz48cGF0aCBkPSJNNS40NjYgMjcuOTkzYTEuMzY0IDEuMzY0IDAgMTAtLjA4Ny0uMDc2bC0uMjY2LS4yMzRDMS45NzIgMjQuNzYyIDAgMjAuNTk3IDAgMTUuOTc4IDAgNy4xNjggNy4xNjggMCAxNS45OCAwYzQuNDggMCA4LjUzIDEuODU3IDExLjQzNSA0LjgzNmExNC42ODEgMTQuNjgxIDAgMDAxLjctMy4wMTVjMi4wMzYgNi4xMTggMy4yMzMgMTEuMjYgMi43OTUgMTUuMzEtLjU5MiA4LjI3NC03LjUwOCAxNC44My0xNS45MyAxNC44M2ExNS45MDMgMTUuOTAzIDAgMDEtMTAuMjc2LTMuNzU3bC0uMjM4LS4yMXptMjMuNTgtNC45ODJjNC4wMS01LjMzNiAxLjc3NS0xMy45NjUtLjA4NS0xOS40OC0xLjY1NyAzLjQ1My01LjczOCA2LjA5NC05LjI2MiA2LjkzLTMuMzAzLjc4OC02LjIyNi4xNDItOS4yODMgMS4zMTgtNi45NyAyLjY4LTYuODYgMTAuOTkyLTMuMDIgMTIuODYuMDAyIDAgLjIzLjEyNC4yMjcuMTIgMC0uMDAyIDUuNjQ0LTEuMTIyIDguNzY0LTIuMjc0IDQuNTYtMS42ODQgOS41NjYtNS44MzUgMTEuMjEzLTEwLjY1Ny0uODc3IDUuMDE1LTUuMTgyIDkuODQtOS41MDcgMTIuMDU2LTIuMzAyIDEuMTgyLTQuMDkyIDEuNDQ1LTcuODggMi43NTYtLjQ2NC4xNTgtLjgyOC4zMTQtLjgyOC4zMTQuOTYtLjE2IDEuOTE3LS4yMTIgMS45MTctLjIxMiA1LjM5My0uMjU1IDEzLjgwNyAxLjUxNiAxNy43NDUtMy43M3oiIGZpbGw9IiM3MEFENTEiLz48L2c+PC9zdmc+;" parent="8WT_DYF4QWscyHyzon4S-80" vertex="1">
          <mxGeometry x="301" y="440" width="60" height="60" as="geometry" />
        </mxCell>
        <mxCell id="8WT_DYF4QWscyHyzon4S-60" value="Spring Server 1" style="text;html=1;align=center;verticalAlign=middle;resizable=0;points=[];autosize=1;strokeColor=none;fillColor=none;fontFamily=Do Hyeon;fontSource=https%3A%2F%2Ffonts.googleapis.com%2Fcss%3Ffamily%3DDo%2BHyeon;fontSize=15;" parent="8WT_DYF4QWscyHyzon4S-80" vertex="1">
          <mxGeometry x="280" y="209.83999999999997" width="120" height="30" as="geometry" />
        </mxCell>
        <mxCell id="8WT_DYF4QWscyHyzon4S-73" style="edgeStyle=orthogonalEdgeStyle;rounded=0;orthogonalLoop=1;jettySize=auto;html=1;" parent="8WT_DYF4QWscyHyzon4S-80" source="8WT_DYF4QWscyHyzon4S-41" edge="1">
          <mxGeometry relative="1" as="geometry">
            <mxPoint x="430" y="180" as="targetPoint" />
          </mxGeometry>
        </mxCell>
        <mxCell id="8WT_DYF4QWscyHyzon4S-74" style="edgeStyle=orthogonalEdgeStyle;rounded=0;orthogonalLoop=1;jettySize=auto;html=1;entryX=-0.007;entryY=0.37;entryDx=0;entryDy=0;entryPerimeter=0;" parent="8WT_DYF4QWscyHyzon4S-80" source="8WT_DYF4QWscyHyzon4S-55" target="8WT_DYF4QWscyHyzon4S-64" edge="1">
          <mxGeometry relative="1" as="geometry" />
        </mxCell>
        <mxCell id="8WT_DYF4QWscyHyzon4S-77" style="edgeStyle=orthogonalEdgeStyle;rounded=0;orthogonalLoop=1;jettySize=auto;html=1;" parent="8WT_DYF4QWscyHyzon4S-80" source="8WT_DYF4QWscyHyzon4S-67" target="8WT_DYF4QWscyHyzon4S-42" edge="1">
          <mxGeometry relative="1" as="geometry" />
        </mxCell>
        <mxCell id="8WT_DYF4QWscyHyzon4S-78" style="edgeStyle=orthogonalEdgeStyle;rounded=0;orthogonalLoop=1;jettySize=auto;html=1;entryX=0;entryY=0.5;entryDx=0;entryDy=0;" parent="8WT_DYF4QWscyHyzon4S-80" source="8WT_DYF4QWscyHyzon4S-50" target="8WT_DYF4QWscyHyzon4S-42" edge="1">
          <mxGeometry relative="1" as="geometry" />
        </mxCell>
        <mxCell id="8WT_DYF4QWscyHyzon4S-79" style="edgeStyle=orthogonalEdgeStyle;rounded=0;orthogonalLoop=1;jettySize=auto;html=1;entryX=0;entryY=0.5;entryDx=0;entryDy=0;" parent="8WT_DYF4QWscyHyzon4S-80" source="8WT_DYF4QWscyHyzon4S-72" target="8WT_DYF4QWscyHyzon4S-42" edge="1">
          <mxGeometry relative="1" as="geometry" />
        </mxCell>
        <mxCell id="8WT_DYF4QWscyHyzon4S-119" value="" style="group" parent="1" vertex="1" connectable="0">
          <mxGeometry x="800" y="840" width="810" height="560" as="geometry" />
        </mxCell>
        <mxCell id="8WT_DYF4QWscyHyzon4S-82" value="" style="rounded=1;whiteSpace=wrap;html=1;" parent="8WT_DYF4QWscyHyzon4S-119" vertex="1">
          <mxGeometry width="810" height="560" as="geometry" />
        </mxCell>
        <mxCell id="8WT_DYF4QWscyHyzon4S-83" style="edgeStyle=orthogonalEdgeStyle;rounded=0;orthogonalLoop=1;jettySize=auto;html=1;" parent="8WT_DYF4QWscyHyzon4S-119" source="8WT_DYF4QWscyHyzon4S-84" target="8WT_DYF4QWscyHyzon4S-108" edge="1">
          <mxGeometry relative="1" as="geometry">
            <Array as="points">
              <mxPoint x="250" y="320" />
              <mxPoint x="250" y="180" />
            </Array>
          </mxGeometry>
        </mxCell>
        <mxCell id="8WT_DYF4QWscyHyzon4S-84" value="" style="shape=image;verticalLabelPosition=bottom;labelBackgroundColor=default;verticalAlign=top;aspect=fixed;imageAspect=0;editableCssRules=.*;image=data:image/svg+xml,PHN2ZyB4bWxucz0iaHR0cDovL3d3dy53My5vcmcvMjAwMC9zdmciIHZpZXdCb3g9IjAgMCAzMiAzMiI+PHBhdGggZmlsbD0iIzAxOTYzOSIgZD0ibTE1Ljk0OCAyaC4wNjVhMTAuNDE4IDEwLjQxOCAwIDAgMSAuOTcyLjUyOHE1LjQyOSAzLjEyMiAxMC44NTggNi4yNDZhLjc5Mi43OTIgMCAwIDEgLjQxNC43ODhjLS4wMDggNC4zODkgMCA4Ljc3Ny0uMDA1IDEzLjE2NGEuODEzLjgxMyAwIDAgMSAtLjM1Ni41MDdxLTUuNzczIDMuMzI0LTExLjU0NyA2LjY0NGEuNTg3LjU4NyAwIDAgMSAtLjY1Ny4wMzdxLTUuNzgtMy4zMTQtMTEuNTQ5LTYuNjRhLjcuNyAwIDAgMSAtLjQtLjY2NnEwLTYuNTgyIDAtMTMuMTYzYS42OTMuNjkzIDAgMCAxIC4zODctLjY3cTUuNDIyLTMuMTE4IDEwLjg0NC02LjI0Yy4zMjItLjE4NC42MzgtLjM3OS45NzQtLjUzNSIvPjxwYXRoIGZpbGw9IiNmZmYiIGQ9Im04Ljc2NyAxMC41MzhxMCA1LjQyOSAwIDEwLjg1OWExLjUwOSAxLjUwOSAwIDAgMCAuNDI3IDEuMDg3IDEuNjQ3IDEuNjQ3IDAgMCAwIDIuMDYuMjA2IDEuNTY0IDEuNTY0IDAgMCAwIC42ODUtMS4yOTNjMC0yLjYyLS4wMDUtNS4yNCAwLTcuODZxMy41ODMgNC4yOSA3LjE4MSA4LjU2OGEyLjgzMyAyLjgzMyAwIDAgMCAyLjYuNzgyIDEuNTYxIDEuNTYxIDAgMCAwIDEuMjUxLTEuMzcxcS4wMDgtNS41NDEgMC0xMS4wODFhMS41ODIgMS41ODIgMCAwIDAgLTMuMTUyIDBjMCAyLjY2Mi0uMDE2IDUuMzIxIDAgNy45ODItMi4zNDYtMi43NjYtNC42NjMtNS41NTYtNy04LjMzMmEyLjgxNyAyLjgxNyAwIDAgMCAtMi42NDktMS4wNTIgMS41NzkgMS41NzkgMCAwIDAgLTEuNDAzIDEuNTA1eiIvPjwvc3ZnPg==;" parent="8WT_DYF4QWscyHyzon4S-119" vertex="1">
          <mxGeometry x="140" y="290" width="60" height="60" as="geometry" />
        </mxCell>
        <mxCell id="8WT_DYF4QWscyHyzon4S-85" value="" style="shape=image;verticalLabelPosition=bottom;labelBackgroundColor=default;verticalAlign=top;aspect=fixed;imageAspect=0;editableCssRules=.*;image=data:image/svg+xml,PHN2ZyB4bWxucz0iaHR0cDovL3d3dy53My5vcmcvMjAwMC9zdmciIHdpZHRoPSIyNTYiIHZpZXdCb3g9IjAgMCAyNTYgMjUyIiBwcmVzZXJ2ZUFzcGVjdFJhdGlvPSJ4TWlkWU1pZCIgaGVpZ2h0PSIyNTIiPjxnIGZpbGw9IiMwMDU0NmIiPjxwYXRoIGQ9Im0yMzUuNjQ4Mjc2IDE5NC4yMTE2MzJjLTEzLjkxODQyNS0uMzQ3MDczLTI0LjcwNTQwNCAxLjA0NTY0LTMzLjc1MjY3MiA0Ljg3MjMzMi0yLjYwOTcwNSAxLjA0MzQ0Mi02Ljc4NTY3NyAxLjA0NDUzNC03LjEzMzgzNyA0LjM0OTQ5NCAxLjM5MjczMSAxLjM5MjczMSAxLjU2NjI2NyAzLjY1NDI1OCAyLjc4NDMyOSA1LjU2NzU5NyAyLjA4OTA5NiAzLjQ3ODQ5NiA1Ljc0MTE1MSA4LjE3NzI4OCA5LjA0NzIyMSAxMC42MTM0NTIgMy42NTMxNDQgMi43ODMyNDEgNy4zMDczNzQgNS41NjY0ODIgMTEuMTM0MDk5IDguMDAyNjQ2IDYuNzg1Njc2IDQuMTc1OTcyIDE0LjQ0MTIwOSA2LjYxMTAxNyAyMS4wNTIyNjEgMTAuNzg2OTcgMy44Mjg5IDIuNDMzOTQ0IDcuNjU0NDQ2IDUuNTY3NTg4IDExLjQ4MjI1NyA4LjE3NzI4OCAxLjkxNDQ3MyAxLjM5MDUxNSAzLjEzMTQ0NyAzLjY1MzEzNCA1LjU2NzYxNSA0LjUyMzAzNXYtLjUyMTcxNGMtMS4yMTgxMDctMS41NjYyNTMtMS41NjYyNjctMy44Mjc3OC0yLjc4MzI0MS01LjU2NzU4OC0xLjczODcxNi0xLjczOTgwMy0zLjQ3OTYwNi0zLjMwNjA2MS01LjIxOTQwOS01LjA0NTg2NC01LjA0NTg3NC02Ljc4NDU4LTExLjMwODc2Ni0xMi43MDAyOTYtMTguMDk0MzUyLTE3LjU3MTUzMi01LjU2NjQ4Mi0zLjgyNzc5OC0xNy43NDYxOTItOS4wNDcxOTgtMjAuMDA3NzgzLTE1LjQ4NDY5NyAwIDAtLjE3NDYyNC0uMTczNTQxLS4zNDgxNi0uMzQ3MDgxIDMuODI3NzY3LS4zNDgxODMgOC4zNTA4MTItMS43Mzk3OSAxMi4wMDUwODctMi43ODQzNDcgNS45MTU3NzUtMS41NjYyNDkgMTEuMzA4NzY2LTEuMjE4MDc1IDE3LjM5Nzk4Ni0yLjc4MzI0MSAyLjc4MzI0Mi0uNjk2MzUyIDUuNTY3NjE1LTEuNTY2MjUzIDguMzUwODU2LTIuNDM2MTZ2LTEuNTY1MTQ3Yy0zLjEzMDMxMy0zLjEzMjU0My01LjM5Mjk0NS03LjMwNzM5MS04LjY5OTAxNi0xMC4yNjUyOTctOC44NzI1NTItNy42NTY2NjUtMTguNjE2MTM4LTE1LjEzNjUwOS0yOC43MDY3NTMtMjEuMzk5Mzg0LTUuMzk0MDc5LTMuNDc5NjAyLTEyLjM1MzI5Mi01Ljc0MjI0My0xOC4wOTQzNTItOC42OTkwMjUtMi4wODY4NzYtMS4wNDU2NC01LjU2NzYxNS0xLjU2NjI0OS02Ljc4NDU4OS0zLjMwNjA3LTMuMTMyNTIxLTMuODI3Nzc2LTQuODcyMzI0LTguODcyNTM5LTcuMTMzODQxLTEzLjM5NjcyLTUuMDQzNjUzLTkuNTY5OTc0LTkuOTE3MTE5LTIwLjE4MTI3My0xNC4yNjY1NzItMzAuMjcxOTE0LTMuMTMwMzE0LTYuNzg1NjcyLTUuMDQ0NzU5LTEzLjU3MTM3NTgtOC44NzI1NDgtMTkuODM0MTQxNy0xNy45MTk2OTYtMjkuNTc2NjE3OS0zNy40MDU3NjctNDcuNDk2NDEzMS02Ny4zMzA1NTQtNjUuMDY5MDY1OS02LjQzNzQ4NDgtMy42NTMxNTIyLTE0LjA5MTkzMDEtNS4yMTk0MDMzLTIyLjI2OTI0NTItNy4xMzI3NDUtNC4zNDgzOTc5LS4xNzQ2NDQxLTguNjk5MDE1OS0uNTIxNzE1OC0xMy4wNDg1NTU2LS42OTYzNTk5LTIuNzgzMjQxMS0xLjIxODA5NDYtNS41Njc1ODc3LTQuNTIzMDQzMy04LjAwMzc2MDctNi4wODkzMDg0LTkuOTE0ODcxLTYuMjYzOTQ4LTM1LjQ5MTMyMzQ5LTE5LjgzMzExNTE4LTQyLjc5ODY5MTctMS45MTMzNDE3My00LjY5NzY5MDYyIDExLjMwODc0OTIzIDYuOTU5MjEyNzQgMjIuNDQyNzc0NjMgMTAuOTYwNDkyNyAyOC4xODQ5Nzg4MyAyLjk1ODk4ODUgNC4wMDEzMzY2IDYuNzg1NjcyIDguNTI0MzcgOC44NzM2NTc4IDEzLjA0ODU2NTEgMS4yMTgwODg4IDIuOTU1Njc2MyAxLjU2NTE1NjggNi4wODkzMDIxIDIuNzgzMjQ1NiA5LjIyMDczMDMgMi43ODQzNDIxIDcuNjUzMzYyNCA1LjM5Mjk0MTMgMTYuMTc5ODk3OCA5LjA0NzE4OTUgMjMuMzEzODI5NCAxLjkxNDQ0NTEgMy42NTMxNTE3IDQuMDAxMzI1MyA3LjQ4MDkzNjIgNi40Mzc0ODkzIDEwLjc4NTg2IDEuMzkxNjE2IDEuOTEzMzM5NSAzLjgyNjY3ODkgMi43ODQzNDY2IDQuMzQ5NDk4OSA1LjkxNTc3MDMtMi40MzUwNTM5IDMuNDc5NTkyNy0yLjYwOTcwMDIgOC42OTkwMTU3LTQuMDAyNDMwOSAxMy4wNDg1NTU3LTYuMjYyODQyOSAxOS42NTk1LTMuODI2NjgzNCA0NC4wMTY4MDggNS4wNDU4NzMzIDU4LjQ1Njg5OCAyLjc4MzI0MTEgNC4zNDg0MDcgOS4zOTUzMzU5IDEzLjkxOTUzMSAxOC4yNjc5NjA2IDEwLjI2NTI5MiA3LjgyOTEwOTktMy4xMzE0MzggNi4wODkzMDIxLTEzLjA0ODU1NiA4LjM1MDgyODgtMjEuNzQ3NTcyLjUyMjgyOS0yLjA4OTA4Ny4xNzQ2NDE4LTMuNDc5NTkzIDEuMjE4MDg0Mi00Ljg3MTIyNy4wMDA5MDYyLjE3MzU0MSAwIC4zNDgxNzggMCAuMzQ4MTc4IDIuNDM2MTU5NSA0Ljg3MTIyNyA0Ljg3MTIyNjkgOS41Njg5NDkgNy4xMzI3NDQ1IDE0LjQ0MDA5NSA1LjM5NDA0NjkgOC41MjQzNjkgMTQuNzg4MzU0MyAxNy4zOTgwMTggMjIuNjE3NDEzOSAyMy4zMTM4NDcgNC4xNzcwNzggMy4xMzAzMDUgNy40ODIwMzMgOC41MjQzNzQgMTIuNzAxNDIgMTAuNDM4ODF2LS41MjI4MjloLS4zNDgxNzhjLTEuMDQ0NTQ0LTEuNTY2MjUzLTIuNjA5Ny0yLjI2MTUyNi00LjAwMTMyNS0zLjQ3OTU5Mi0zLjEzMTQyOS0zLjEzMTQyOS02LjYxMjEzNi02Ljk1OTIyNy05LjA0NzE5LTEwLjQzODgxMS03LjMwNjI4NTMtOS43NDM1OTUtMTMuNzQ0ODg5Mi0yMC41Mjk0NDYtMTkuNDg1OTgxNC0zMS42NjQ1ODUtMi43ODMyNDExLTUuMzkyOTQxLTUuMjE5NDAwNS0xMS4zMDg3NjItNy40ODA5MjcyLTE2LjcwMTY4NS0xLjA0NDU0MzQtMi4wODkwODItMS4wNDQ1NDM0LTUuMjE5NDA1LTIuNzg0MzQ2Ni02LjI2MjgzOC0yLjYwOTcwMDMgMy44MjY2NzQtNi40MzYzODM3IDcuMTMyNzQ0LTguMzUwODI4NyAxMS44MzA0NDQtMy4zMDM4NTQ1IDcuNDgwOTI3LTMuNjUzMTQyNyAxNi43MDE2OC00Ljg3MTIyNjkgMjYuMjcwNTMtLjY5NTI2ODkuMTc0NjUxLS4zNDgxODcyIDAtLjY5NjM2OTkuMzQ4MTkxLTUuNTY2NDg2Ni0xLjM5MjczLTcuNDgwOTMxNy03LjEzMjc0NC05LjU2ODk1MzgtMTIuMDA1MDg2LTUuMjE5NDA1LTEyLjM1MjEyNi02LjA4OTMwMi0zMi4xODYzNjgtMS41NjUxNTY4LTQ2LjQ1MTgxNiAxLjIxODA4NDMtMy42NTQyNDggNi40Mzc0ODkzLTE1LjEzNjUyMzIgNC4zNDk1MDM1LTE4LjYxNjEzNDEtMS4wNDM0NDI0LTMuMzA2MDc0Ni00LjUyNDE0OTgtNS4yMTk0MDUtNi40Mzc0ODkzLTcuODI5MTA1Mi0yLjI2MTUyNjctMy4zMDYwNzAxLTQuNjk3Njg2MS03LjQ4MDkzMTctNi4yNjI4NDI5LTExLjEzNTEzOTEtNC4xNzU5NzE3LTkuNzQyNDc2NS02LjI2Mzk0ODUtMjAuNTI5NDQ2Ni0xMC43ODY5NzQ2LTMwLjI3MzA0MjItMi4wODc5ODU4LTQuNTI0MTQ4OS01Ljc0MTEyODUtOS4yMjA3MzE3LTguNjk5MDE1OS0xMy4zOTU2MDkxLTMuMzA0OTU1NS00LjY5NzY3NzktNi45NTkyMTI4LTguMDAzNzQ4OS05LjU2ODk0OTI3LTEzLjU3MTM1NTctLjg2ODgwMDU3LTEuOTEzMzQxNy0yLjA4Nzk4NTg0LTUuMDQ0NzU5MS0uNjk2MzYwNzgtNy4xMzI3NTQuMzQ4MTgyNjYtMS4zOTE2MTE5IDEuMDQzNDM3ODgtMS45MTMzMzY3IDIuNDM2MTU5NDUtMi4yNjE1MjE2MyAyLjI2MTUyNjYtMS45MTQ0NDU0OCA4LjY5OTAxNTkuNTIxNzE1NzMgMTAuOTYwNDkyNyAxLjU2NTE2MTMzIDYuNDM3NDg5MyAyLjYwODU4ODggMTEuODMwNDQ0MiA1LjA0NTg3MjQgMTcuMjI0NDkxMSA4LjY5OTAxNSAyLjQzNTA1ODQgMS43Mzk4MDEgNS4wNDQ3NTg2IDUuMDQ1ODcxOSA4LjE3NjE4NjkgNS45MTU3NzI2aDMuNjU0MjQzN2M1LjU2NzU4NzYgMS4yMTY5ODE0IDExLjgzMDQ0NDEuMzQ4MTY1OSAxNy4wNDk4NDQ2IDEuOTEzMzQxMyA5LjIyMTgzNTkgMi45NTY3ODI4IDE3LjU3MTUzNjUgNy4zMDczODkxIDI1LjA1MzY0MTcgMTIuMDA1MDg2IDIyLjc5MjA2MDQgMTQuNDQwMDk3OCA0MS41ODA1ODM0IDM0Ljk3MDY2MzUgNTQuMjgyMDkzNCA1OS41MDE0OTQyIDIuMDg3OTg2IDQuMDAwMjI0NiAyLjk1Njc4MiA3LjY1NTU2NDYgNC44NzEyMjcgMTEuODMwNDQ0NiAzLjY1NDI0OCA4LjUyNTQ3NSA4LjE3NzI4OCAxNy4yMjQ0ODYgMTEuODMwNDQgMjUuNTc1MzI4IDMuNjUzMTQyIDguMTc2MTgzIDcuMTMyNzQ0IDE2LjUyODE0NCAxMi4zNTIxMzEgMjMuMzEzODMgMi42MTA4MDYgMy42NTIwNDYgMTMuMDQ4NTQyIDUuNTY2NDgyIDE3Ljc0NjE2NSA3LjQ4MDkyNyAzLjQ3OTYwNiAxLjU2NTE2NiA4Ljg3MzY4NSAyLjk1Nzg5NiAxMi4wMDUwODYgNC44NzEyMzEgNS45MTQ2ODkgMy42NTIwMzcgMTEuODMwNDY0IDcuODI5MTI0IDE3LjM5ODAzMyAxMS44MzA0NCAyLjc4NDMyOSAyLjA4Njg4OSAxMS40ODIyNTcgNi40Mzc0OTggMTIuMDA1MDg2IDkuOTE2MDA0eiIvPjxwYXRoIGQ9Im01OC4xODY0ODkyIDQzLjAyMjI2NDRjLTIuOTU3ODgyOSAwLTUuMDQ0NzU4Ny4zNDkyODgyLTcuMTMyNzQ0NS44NzEwMTYyIDAtLjAwMDkwNjIgMCAuMTc0NjQxOSAwIC4zNDgxODI3aC4zNDgxODcyYzEuMzkyNzI2MSAyLjc4MzI0MDEgMy44MjY2ODM1IDQuNjk3Njg1MiA1LjU2NjQ4MjEgNy4xMzI3MzQ1IDEuMzkyNzMwNiAyLjc4MzI0MTEgMi42MDk3MDAzIDUuNTY3NTk2NyA0LjAwMjQzMDkgOC4zNTE5NDM0LjE3MzUzMTctLjE3NDY0NjQuMzQ3MDcyNi0uMzQ4MTgyNy4zNDcwNzI2LS4zNDgxODI3IDIuNDM3Mjc0LTEuNzQwOTA4NyAzLjY1NDI0ODItNC41MjQxNDk4IDMuNjU0MjQ4Mi04LjY5OTAxNTktMS4wNDQ1NDgtMS4yMTgwODQzLTEuMjE4MDg4OC0yLjQzNjE2NC0yLjA4Nzk4NTktMy42NTQyNDgyLTEuMDQzNDQyNC0xLjc0MDkxMjQtMy4zMDYwNzQ2LTIuNjA5Njk5NC00LjY5NzY5MDYtNC4wMDI0M3oiLz48L2c+PC9zdmc+;" parent="8WT_DYF4QWscyHyzon4S-119" vertex="1">
          <mxGeometry x="690" y="294.9200000000001" width="71.26" height="70.16" as="geometry" />
        </mxCell>
        <mxCell id="8WT_DYF4QWscyHyzon4S-86" value="" style="edgeStyle=orthogonalEdgeStyle;rounded=0;orthogonalLoop=1;jettySize=auto;html=1;" parent="8WT_DYF4QWscyHyzon4S-119" source="8WT_DYF4QWscyHyzon4S-87" target="8WT_DYF4QWscyHyzon4S-84" edge="1">
          <mxGeometry relative="1" as="geometry" />
        </mxCell>
        <mxCell id="8WT_DYF4QWscyHyzon4S-87" value="" style="shape=image;verticalLabelPosition=bottom;labelBackgroundColor=default;verticalAlign=top;aspect=fixed;imageAspect=0;editableCssRules=.*;image=data:image/svg+xml,PHN2ZyB4bWxucz0iaHR0cDovL3d3dy53My5vcmcvMjAwMC9zdmciIHdpZHRoPSIxNiIgdmlld0JveD0iMCAwIDE2IDE2IiBoZWlnaHQ9IjE2Ij48cGF0aCBmaWxsPSJub25lIiBkPSJtMCAwaDE2djE2aC0xNnoiLz48cGF0aCBkPSJtOCA4YzIuMjA5IDAgNC0xLjc5MSA0LTRzLTEuNzkxLTQtNC00LTQgMS43OTEtNCA0IDEuNzkxIDQgNCA0em00IDJoLThjLTIuMjA5IDAtNCAxLjc5MS00IDR2MmgxNnYtMmMwLTIuMjA5LTEuNzkxLTQtNC00eiIvPjwvc3ZnPg==;" parent="8WT_DYF4QWscyHyzon4S-119" vertex="1">
          <mxGeometry x="60" y="290" width="60" height="60" as="geometry" />
        </mxCell>
        <mxCell id="8WT_DYF4QWscyHyzon4S-88" value="" style="group" parent="8WT_DYF4QWscyHyzon4S-119" vertex="1" connectable="0">
          <mxGeometry x="430" y="110" width="180" height="130" as="geometry" />
        </mxCell>
        <mxCell id="8WT_DYF4QWscyHyzon4S-89" value="" style="rounded=1;whiteSpace=wrap;html=1;" parent="8WT_DYF4QWscyHyzon4S-88" vertex="1">
          <mxGeometry y="30" width="167.92" height="100" as="geometry" />
        </mxCell>
        <mxCell id="8WT_DYF4QWscyHyzon4S-90" value="" style="group" parent="8WT_DYF4QWscyHyzon4S-88" vertex="1" connectable="0">
          <mxGeometry x="10" width="170" height="130" as="geometry" />
        </mxCell>
        <mxCell id="8WT_DYF4QWscyHyzon4S-91" value="Local Cache 1" style="text;html=1;align=center;verticalAlign=middle;resizable=0;points=[];autosize=1;strokeColor=none;fillColor=none;container=1;fontFamily=Do Hyeon;fontSource=https%3A%2F%2Ffonts.googleapis.com%2Fcss%3Ffamily%3DDo%2BHyeon;" parent="8WT_DYF4QWscyHyzon4S-90" vertex="1">
          <mxGeometry x="24.999999999999986" width="90" height="30" as="geometry" />
        </mxCell>
        <mxCell id="8WT_DYF4QWscyHyzon4S-93" value="수정 (서버가 많은 경우)" style="text;html=1;align=center;verticalAlign=middle;whiteSpace=wrap;rounded=0;fontFamily=Do Hyeon;fontSource=https%3A%2F%2Ffonts.googleapis.com%2Fcss%3Ffamily%3DDo%2BHyeon;fontSize=30;" parent="8WT_DYF4QWscyHyzon4S-119" vertex="1">
          <mxGeometry x="276.5" y="20" width="353.5" height="50" as="geometry" />
        </mxCell>
        <mxCell id="8WT_DYF4QWscyHyzon4S-94" style="edgeStyle=orthogonalEdgeStyle;rounded=0;orthogonalLoop=1;jettySize=auto;html=1;entryX=0.007;entryY=0.569;entryDx=0;entryDy=0;entryPerimeter=0;" parent="8WT_DYF4QWscyHyzon4S-119" edge="1">
          <mxGeometry relative="1" as="geometry">
            <mxPoint x="199.58000000000004" y="319.4303092783507" as="sourcePoint" />
            <mxPoint x="301" y="320.55999999999995" as="targetPoint" />
            <Array as="points">
              <mxPoint x="299.5799999999999" y="319.4200000000001" />
              <mxPoint x="299.5799999999999" y="320.4200000000001" />
            </Array>
          </mxGeometry>
        </mxCell>
        <mxCell id="8WT_DYF4QWscyHyzon4S-95" style="edgeStyle=orthogonalEdgeStyle;rounded=0;orthogonalLoop=1;jettySize=auto;html=1;entryX=0.007;entryY=0.631;entryDx=0;entryDy=0;entryPerimeter=0;" parent="8WT_DYF4QWscyHyzon4S-119" source="8WT_DYF4QWscyHyzon4S-84" target="8WT_DYF4QWscyHyzon4S-111" edge="1">
          <mxGeometry relative="1" as="geometry" />
        </mxCell>
        <mxCell id="8WT_DYF4QWscyHyzon4S-96" value="Spring Server 2" style="text;html=1;align=center;verticalAlign=middle;resizable=0;points=[];autosize=1;strokeColor=none;fillColor=none;fontFamily=Do Hyeon;fontSource=https%3A%2F%2Ffonts.googleapis.com%2Fcss%3Ffamily%3DDo%2BHyeon;fontSize=15;" parent="8WT_DYF4QWscyHyzon4S-119" vertex="1">
          <mxGeometry x="280" y="350" width="120" height="30" as="geometry" />
        </mxCell>
        <mxCell id="8WT_DYF4QWscyHyzon4S-97" value="Spring Server 3" style="text;html=1;align=center;verticalAlign=middle;resizable=0;points=[];autosize=1;strokeColor=none;fillColor=none;fontFamily=Do Hyeon;fontSource=https%3A%2F%2Ffonts.googleapis.com%2Fcss%3Ffamily%3DDo%2BHyeon;fontSize=15;" parent="8WT_DYF4QWscyHyzon4S-119" vertex="1">
          <mxGeometry x="280" y="505" width="120" height="30" as="geometry" />
        </mxCell>
        <mxCell id="8WT_DYF4QWscyHyzon4S-98" value="" style="group" parent="8WT_DYF4QWscyHyzon4S-119" vertex="1" connectable="0">
          <mxGeometry x="430" y="250" width="180" height="130" as="geometry" />
        </mxCell>
        <mxCell id="8WT_DYF4QWscyHyzon4S-99" value="" style="rounded=1;whiteSpace=wrap;html=1;" parent="8WT_DYF4QWscyHyzon4S-98" vertex="1">
          <mxGeometry y="30" width="167.92" height="100" as="geometry" />
        </mxCell>
        <mxCell id="8WT_DYF4QWscyHyzon4S-100" value="" style="group" parent="8WT_DYF4QWscyHyzon4S-98" vertex="1" connectable="0">
          <mxGeometry x="10" width="170" height="130" as="geometry" />
        </mxCell>
        <mxCell id="8WT_DYF4QWscyHyzon4S-101" value="Local Cache 2" style="text;html=1;align=center;verticalAlign=middle;resizable=0;points=[];autosize=1;strokeColor=none;fillColor=none;container=1;fontFamily=Do Hyeon;fontSource=https%3A%2F%2Ffonts.googleapis.com%2Fcss%3Ffamily%3DDo%2BHyeon;" parent="8WT_DYF4QWscyHyzon4S-100" vertex="1">
          <mxGeometry x="24.999999999999986" width="90" height="30" as="geometry" />
        </mxCell>
        <mxCell id="8WT_DYF4QWscyHyzon4S-102" value="&lt;div&gt;{&lt;/div&gt;&lt;div&gt;&amp;nbsp; &amp;nbsp;&quot;name&quot;:&quot;Son&quot;,&lt;/div&gt;&lt;div&gt;&amp;nbsp; &amp;nbsp;&quot;age&quot;:33,&lt;/div&gt;&lt;div&gt;&amp;nbsp; &amp;nbsp;&quot;statusMessage&quot;:&quot;i am son&quot;&lt;/div&gt;&lt;div&gt;}&lt;/div&gt;" style="text;html=1;align=left;verticalAlign=middle;resizable=0;points=[];autosize=1;strokeColor=none;fillColor=none;fontFamily=Do Hyeon;fontSource=https%3A%2F%2Ffonts.googleapis.com%2Fcss%3Ffamily%3DDo%2BHyeon;" parent="8WT_DYF4QWscyHyzon4S-100" vertex="1">
          <mxGeometry y="35" width="170" height="90" as="geometry" />
        </mxCell>
        <mxCell id="8WT_DYF4QWscyHyzon4S-103" value="" style="group" parent="8WT_DYF4QWscyHyzon4S-119" vertex="1" connectable="0">
          <mxGeometry x="430" y="390" width="180" height="130" as="geometry" />
        </mxCell>
        <mxCell id="8WT_DYF4QWscyHyzon4S-104" value="" style="rounded=1;whiteSpace=wrap;html=1;" parent="8WT_DYF4QWscyHyzon4S-103" vertex="1">
          <mxGeometry y="30" width="167.92" height="100" as="geometry" />
        </mxCell>
        <mxCell id="8WT_DYF4QWscyHyzon4S-105" value="" style="group" parent="8WT_DYF4QWscyHyzon4S-103" vertex="1" connectable="0">
          <mxGeometry x="10" width="170" height="130" as="geometry" />
        </mxCell>
        <mxCell id="8WT_DYF4QWscyHyzon4S-106" value="Local Cache 3" style="text;html=1;align=center;verticalAlign=middle;resizable=0;points=[];autosize=1;strokeColor=none;fillColor=none;container=1;fontFamily=Do Hyeon;fontSource=https%3A%2F%2Ffonts.googleapis.com%2Fcss%3Ffamily%3DDo%2BHyeon;" parent="8WT_DYF4QWscyHyzon4S-105" vertex="1">
          <mxGeometry x="24.999999999999986" width="90" height="30" as="geometry" />
        </mxCell>
        <mxCell id="8WT_DYF4QWscyHyzon4S-107" value="&lt;div&gt;{&lt;/div&gt;&lt;div&gt;&amp;nbsp; &amp;nbsp;&quot;name&quot;:&quot;Son&quot;,&lt;/div&gt;&lt;div&gt;&amp;nbsp; &amp;nbsp;&quot;age&quot;:33,&lt;/div&gt;&lt;div&gt;&amp;nbsp; &amp;nbsp;&quot;statusMessage&quot;:&quot;i am son&quot;&lt;/div&gt;&lt;div&gt;}&lt;/div&gt;" style="text;html=1;align=left;verticalAlign=middle;resizable=0;points=[];autosize=1;strokeColor=none;fillColor=none;fontFamily=Do Hyeon;fontSource=https%3A%2F%2Ffonts.googleapis.com%2Fcss%3Ffamily%3DDo%2BHyeon;" parent="8WT_DYF4QWscyHyzon4S-105" vertex="1">
          <mxGeometry y="35" width="170" height="90" as="geometry" />
        </mxCell>
        <mxCell id="8WT_DYF4QWscyHyzon4S-108" value="" style="shape=image;verticalLabelPosition=bottom;labelBackgroundColor=default;verticalAlign=top;aspect=fixed;imageAspect=0;editableCssRules=.*;image=data:image/svg+xml,PHN2ZyB4bWxucz0iaHR0cDovL3d3dy53My5vcmcvMjAwMC9zdmciIHZpZXdCb3g9IjAgMCAzMiAzMiIgaGVpZ2h0PSIzMiIgd2lkdGg9IjMyIj48ZyBmaWxsLXJ1bGU9ImV2ZW5vZGQiIGZpbGw9Im5vbmUiPjxwYXRoIGQ9Ik0wIDBoMzJ2MzJIMHoiLz48cGF0aCBkPSJNNS40NjYgMjcuOTkzYTEuMzY0IDEuMzY0IDAgMTAtLjA4Ny0uMDc2bC0uMjY2LS4yMzRDMS45NzIgMjQuNzYyIDAgMjAuNTk3IDAgMTUuOTc4IDAgNy4xNjggNy4xNjggMCAxNS45OCAwYzQuNDggMCA4LjUzIDEuODU3IDExLjQzNSA0LjgzNmExNC42ODEgMTQuNjgxIDAgMDAxLjctMy4wMTVjMi4wMzYgNi4xMTggMy4yMzMgMTEuMjYgMi43OTUgMTUuMzEtLjU5MiA4LjI3NC03LjUwOCAxNC44My0xNS45MyAxNC44M2ExNS45MDMgMTUuOTAzIDAgMDEtMTAuMjc2LTMuNzU3bC0uMjM4LS4yMXptMjMuNTgtNC45ODJjNC4wMS01LjMzNiAxLjc3NS0xMy45NjUtLjA4NS0xOS40OC0xLjY1NyAzLjQ1My01LjczOCA2LjA5NC05LjI2MiA2LjkzLTMuMzAzLjc4OC02LjIyNi4xNDItOS4yODMgMS4zMTgtNi45NyAyLjY4LTYuODYgMTAuOTkyLTMuMDIgMTIuODYuMDAyIDAgLjIzLjEyNC4yMjcuMTIgMC0uMDAyIDUuNjQ0LTEuMTIyIDguNzY0LTIuMjc0IDQuNTYtMS42ODQgOS41NjYtNS44MzUgMTEuMjEzLTEwLjY1Ny0uODc3IDUuMDE1LTUuMTgyIDkuODQtOS41MDcgMTIuMDU2LTIuMzAyIDEuMTgyLTQuMDkyIDEuNDQ1LTcuODggMi43NTYtLjQ2NC4xNTgtLjgyOC4zMTQtLjgyOC4zMTQuOTYtLjE2IDEuOTE3LS4yMTIgMS45MTctLjIxMiA1LjM5My0uMjU1IDEzLjgwNyAxLjUxNiAxNy43NDUtMy43M3oiIGZpbGw9IiM3MEFENTEiLz48L2c+PC9zdmc+;" parent="8WT_DYF4QWscyHyzon4S-119" vertex="1">
          <mxGeometry x="301" y="149.83999999999992" width="60" height="60" as="geometry" />
        </mxCell>
        <mxCell id="8WT_DYF4QWscyHyzon4S-109" value="" style="shape=image;verticalLabelPosition=bottom;labelBackgroundColor=default;verticalAlign=top;aspect=fixed;imageAspect=0;editableCssRules=.*;image=data:image/svg+xml,PHN2ZyB4bWxucz0iaHR0cDovL3d3dy53My5vcmcvMjAwMC9zdmciIHZpZXdCb3g9IjAgMCAzMiAzMiIgaGVpZ2h0PSIzMiIgd2lkdGg9IjMyIj48ZyBmaWxsLXJ1bGU9ImV2ZW5vZGQiIGZpbGw9Im5vbmUiPjxwYXRoIGQ9Ik0wIDBoMzJ2MzJIMHoiLz48cGF0aCBkPSJNNS40NjYgMjcuOTkzYTEuMzY0IDEuMzY0IDAgMTAtLjA4Ny0uMDc2bC0uMjY2LS4yMzRDMS45NzIgMjQuNzYyIDAgMjAuNTk3IDAgMTUuOTc4IDAgNy4xNjggNy4xNjggMCAxNS45OCAwYzQuNDggMCA4LjUzIDEuODU3IDExLjQzNSA0LjgzNmExNC42ODEgMTQuNjgxIDAgMDAxLjctMy4wMTVjMi4wMzYgNi4xMTggMy4yMzMgMTEuMjYgMi43OTUgMTUuMzEtLjU5MiA4LjI3NC03LjUwOCAxNC44My0xNS45MyAxNC44M2ExNS45MDMgMTUuOTAzIDAgMDEtMTAuMjc2LTMuNzU3bC0uMjM4LS4yMXptMjMuNTgtNC45ODJjNC4wMS01LjMzNiAxLjc3NS0xMy45NjUtLjA4NS0xOS40OC0xLjY1NyAzLjQ1My01LjczOCA2LjA5NC05LjI2MiA2LjkzLTMuMzAzLjc4OC02LjIyNi4xNDItOS4yODMgMS4zMTgtNi45NyAyLjY4LTYuODYgMTAuOTkyLTMuMDIgMTIuODYuMDAyIDAgLjIzLjEyNC4yMjcuMTIgMC0uMDAyIDUuNjQ0LTEuMTIyIDguNzY0LTIuMjc0IDQuNTYtMS42ODQgOS41NjYtNS44MzUgMTEuMjEzLTEwLjY1Ny0uODc3IDUuMDE1LTUuMTgyIDkuODQtOS41MDcgMTIuMDU2LTIuMzAyIDEuMTgyLTQuMDkyIDEuNDQ1LTcuODggMi43NTYtLjQ2NC4xNTgtLjgyOC4zMTQtLjgyOC4zMTQuOTYtLjE2IDEuOTE3LS4yMTIgMS45MTctLjIxMiA1LjM5My0uMjU1IDEzLjgwNyAxLjUxNiAxNy43NDUtMy43M3oiIGZpbGw9IiM3MEFENTEiLz48L2c+PC9zdmc+;" parent="8WT_DYF4QWscyHyzon4S-119" vertex="1">
          <mxGeometry x="301" y="287" width="60" height="60" as="geometry" />
        </mxCell>
        <mxCell id="8WT_DYF4QWscyHyzon4S-110" style="edgeStyle=orthogonalEdgeStyle;rounded=0;orthogonalLoop=1;jettySize=auto;html=1;entryX=0;entryY=0.5;entryDx=0;entryDy=0;" parent="8WT_DYF4QWscyHyzon4S-119" source="8WT_DYF4QWscyHyzon4S-111" target="8WT_DYF4QWscyHyzon4S-104" edge="1">
          <mxGeometry relative="1" as="geometry" />
        </mxCell>
        <mxCell id="8WT_DYF4QWscyHyzon4S-111" value="" style="shape=image;verticalLabelPosition=bottom;labelBackgroundColor=default;verticalAlign=top;aspect=fixed;imageAspect=0;editableCssRules=.*;image=data:image/svg+xml,PHN2ZyB4bWxucz0iaHR0cDovL3d3dy53My5vcmcvMjAwMC9zdmciIHZpZXdCb3g9IjAgMCAzMiAzMiIgaGVpZ2h0PSIzMiIgd2lkdGg9IjMyIj48ZyBmaWxsLXJ1bGU9ImV2ZW5vZGQiIGZpbGw9Im5vbmUiPjxwYXRoIGQ9Ik0wIDBoMzJ2MzJIMHoiLz48cGF0aCBkPSJNNS40NjYgMjcuOTkzYTEuMzY0IDEuMzY0IDAgMTAtLjA4Ny0uMDc2bC0uMjY2LS4yMzRDMS45NzIgMjQuNzYyIDAgMjAuNTk3IDAgMTUuOTc4IDAgNy4xNjggNy4xNjggMCAxNS45OCAwYzQuNDggMCA4LjUzIDEuODU3IDExLjQzNSA0LjgzNmExNC42ODEgMTQuNjgxIDAgMDAxLjctMy4wMTVjMi4wMzYgNi4xMTggMy4yMzMgMTEuMjYgMi43OTUgMTUuMzEtLjU5MiA4LjI3NC03LjUwOCAxNC44My0xNS45MyAxNC44M2ExNS45MDMgMTUuOTAzIDAgMDEtMTAuMjc2LTMuNzU3bC0uMjM4LS4yMXptMjMuNTgtNC45ODJjNC4wMS01LjMzNiAxLjc3NS0xMy45NjUtLjA4NS0xOS40OC0xLjY1NyAzLjQ1My01LjczOCA2LjA5NC05LjI2MiA2LjkzLTMuMzAzLjc4OC02LjIyNi4xNDItOS4yODMgMS4zMTgtNi45NyAyLjY4LTYuODYgMTAuOTkyLTMuMDIgMTIuODYuMDAyIDAgLjIzLjEyNC4yMjcuMTIgMC0uMDAyIDUuNjQ0LTEuMTIyIDguNzY0LTIuMjc0IDQuNTYtMS42ODQgOS41NjYtNS44MzUgMTEuMjEzLTEwLjY1Ny0uODc3IDUuMDE1LTUuMTgyIDkuODQtOS41MDcgMTIuMDU2LTIuMzAyIDEuMTgyLTQuMDkyIDEuNDQ1LTcuODggMi43NTYtLjQ2NC4xNTgtLjgyOC4zMTQtLjgyOC4zMTQuOTYtLjE2IDEuOTE3LS4yMTIgMS45MTctLjIxMiA1LjM5My0uMjU1IDEzLjgwNyAxLjUxNiAxNy43NDUtMy43M3oiIGZpbGw9IiM3MEFENTEiLz48L2c+PC9zdmc+;" parent="8WT_DYF4QWscyHyzon4S-119" vertex="1">
          <mxGeometry x="301" y="440" width="60" height="60" as="geometry" />
        </mxCell>
        <mxCell id="8WT_DYF4QWscyHyzon4S-112" value="Spring Server 1" style="text;html=1;align=center;verticalAlign=middle;resizable=0;points=[];autosize=1;strokeColor=none;fillColor=none;fontFamily=Do Hyeon;fontSource=https%3A%2F%2Ffonts.googleapis.com%2Fcss%3Ffamily%3DDo%2BHyeon;fontSize=15;" parent="8WT_DYF4QWscyHyzon4S-119" vertex="1">
          <mxGeometry x="280" y="209.83999999999992" width="120" height="30" as="geometry" />
        </mxCell>
        <mxCell id="8WT_DYF4QWscyHyzon4S-113" style="edgeStyle=orthogonalEdgeStyle;rounded=0;orthogonalLoop=1;jettySize=auto;html=1;strokeWidth=3;strokeColor=#FF0000;" parent="8WT_DYF4QWscyHyzon4S-119" source="8WT_DYF4QWscyHyzon4S-108" edge="1">
          <mxGeometry relative="1" as="geometry">
            <mxPoint x="430" y="180" as="targetPoint" />
          </mxGeometry>
        </mxCell>
        <mxCell id="8WT_DYF4QWscyHyzon4S-114" style="edgeStyle=orthogonalEdgeStyle;rounded=0;orthogonalLoop=1;jettySize=auto;html=1;entryX=-0.007;entryY=0.37;entryDx=0;entryDy=0;entryPerimeter=0;" parent="8WT_DYF4QWscyHyzon4S-119" source="8WT_DYF4QWscyHyzon4S-109" target="8WT_DYF4QWscyHyzon4S-99" edge="1">
          <mxGeometry relative="1" as="geometry" />
        </mxCell>
        <mxCell id="8WT_DYF4QWscyHyzon4S-115" style="edgeStyle=orthogonalEdgeStyle;rounded=0;orthogonalLoop=1;jettySize=auto;html=1;" parent="8WT_DYF4QWscyHyzon4S-119" source="8WT_DYF4QWscyHyzon4S-102" target="8WT_DYF4QWscyHyzon4S-85" edge="1">
          <mxGeometry relative="1" as="geometry" />
        </mxCell>
        <mxCell id="8WT_DYF4QWscyHyzon4S-116" style="edgeStyle=orthogonalEdgeStyle;rounded=0;orthogonalLoop=1;jettySize=auto;html=1;entryX=0;entryY=0.5;entryDx=0;entryDy=0;" parent="8WT_DYF4QWscyHyzon4S-119" target="8WT_DYF4QWscyHyzon4S-85" edge="1">
          <mxGeometry relative="1" as="geometry">
            <mxPoint x="590" y="190" as="sourcePoint" />
            <Array as="points">
              <mxPoint x="650" y="190" />
              <mxPoint x="650" y="330" />
            </Array>
          </mxGeometry>
        </mxCell>
        <mxCell id="8WT_DYF4QWscyHyzon4S-117" style="edgeStyle=orthogonalEdgeStyle;rounded=0;orthogonalLoop=1;jettySize=auto;html=1;entryX=0;entryY=0.5;entryDx=0;entryDy=0;" parent="8WT_DYF4QWscyHyzon4S-119" source="8WT_DYF4QWscyHyzon4S-107" target="8WT_DYF4QWscyHyzon4S-85" edge="1">
          <mxGeometry relative="1" as="geometry" />
        </mxCell>
        <mxCell id="8WT_DYF4QWscyHyzon4S-191" value="Cache Evict" style="text;html=1;align=center;verticalAlign=middle;resizable=0;points=[];autosize=1;strokeColor=none;fillColor=none;fontFamily=Do Hyeon;fontSource=https%3A%2F%2Ffonts.googleapis.com%2Fcss%3Ffamily%3DDo%2BHyeon;fontColor=#FF3333;" parent="8WT_DYF4QWscyHyzon4S-119" vertex="1">
          <mxGeometry x="355" y="179.84" width="80" height="30" as="geometry" />
        </mxCell>
        <mxCell id="8WT_DYF4QWscyHyzon4S-120" value="" style="group" parent="1" vertex="1" connectable="0">
          <mxGeometry x="790" y="1500" width="810" height="560" as="geometry" />
        </mxCell>
        <mxCell id="8WT_DYF4QWscyHyzon4S-121" value="" style="rounded=1;whiteSpace=wrap;html=1;" parent="8WT_DYF4QWscyHyzon4S-120" vertex="1">
          <mxGeometry width="810" height="560" as="geometry" />
        </mxCell>
        <mxCell id="8WT_DYF4QWscyHyzon4S-122" style="edgeStyle=orthogonalEdgeStyle;rounded=0;orthogonalLoop=1;jettySize=auto;html=1;" parent="8WT_DYF4QWscyHyzon4S-120" source="8WT_DYF4QWscyHyzon4S-123" target="8WT_DYF4QWscyHyzon4S-147" edge="1">
          <mxGeometry relative="1" as="geometry">
            <Array as="points">
              <mxPoint x="250" y="320" />
              <mxPoint x="250" y="180" />
            </Array>
          </mxGeometry>
        </mxCell>
        <mxCell id="8WT_DYF4QWscyHyzon4S-123" value="" style="shape=image;verticalLabelPosition=bottom;labelBackgroundColor=default;verticalAlign=top;aspect=fixed;imageAspect=0;editableCssRules=.*;image=data:image/svg+xml,PHN2ZyB4bWxucz0iaHR0cDovL3d3dy53My5vcmcvMjAwMC9zdmciIHZpZXdCb3g9IjAgMCAzMiAzMiI+PHBhdGggZmlsbD0iIzAxOTYzOSIgZD0ibTE1Ljk0OCAyaC4wNjVhMTAuNDE4IDEwLjQxOCAwIDAgMSAuOTcyLjUyOHE1LjQyOSAzLjEyMiAxMC44NTggNi4yNDZhLjc5Mi43OTIgMCAwIDEgLjQxNC43ODhjLS4wMDggNC4zODkgMCA4Ljc3Ny0uMDA1IDEzLjE2NGEuODEzLjgxMyAwIDAgMSAtLjM1Ni41MDdxLTUuNzczIDMuMzI0LTExLjU0NyA2LjY0NGEuNTg3LjU4NyAwIDAgMSAtLjY1Ny4wMzdxLTUuNzgtMy4zMTQtMTEuNTQ5LTYuNjRhLjcuNyAwIDAgMSAtLjQtLjY2NnEwLTYuNTgyIDAtMTMuMTYzYS42OTMuNjkzIDAgMCAxIC4zODctLjY3cTUuNDIyLTMuMTE4IDEwLjg0NC02LjI0Yy4zMjItLjE4NC42MzgtLjM3OS45NzQtLjUzNSIvPjxwYXRoIGZpbGw9IiNmZmYiIGQ9Im04Ljc2NyAxMC41MzhxMCA1LjQyOSAwIDEwLjg1OWExLjUwOSAxLjUwOSAwIDAgMCAuNDI3IDEuMDg3IDEuNjQ3IDEuNjQ3IDAgMCAwIDIuMDYuMjA2IDEuNTY0IDEuNTY0IDAgMCAwIC42ODUtMS4yOTNjMC0yLjYyLS4wMDUtNS4yNCAwLTcuODZxMy41ODMgNC4yOSA3LjE4MSA4LjU2OGEyLjgzMyAyLjgzMyAwIDAgMCAyLjYuNzgyIDEuNTYxIDEuNTYxIDAgMCAwIDEuMjUxLTEuMzcxcS4wMDgtNS41NDEgMC0xMS4wODFhMS41ODIgMS41ODIgMCAwIDAgLTMuMTUyIDBjMCAyLjY2Mi0uMDE2IDUuMzIxIDAgNy45ODItMi4zNDYtMi43NjYtNC42NjMtNS41NTYtNy04LjMzMmEyLjgxNyAyLjgxNyAwIDAgMCAtMi42NDktMS4wNTIgMS41NzkgMS41NzkgMCAwIDAgLTEuNDAzIDEuNTA1eiIvPjwvc3ZnPg==;" parent="8WT_DYF4QWscyHyzon4S-120" vertex="1">
          <mxGeometry x="140" y="290" width="60" height="60" as="geometry" />
        </mxCell>
        <mxCell id="8WT_DYF4QWscyHyzon4S-124" value="" style="shape=image;verticalLabelPosition=bottom;labelBackgroundColor=default;verticalAlign=top;aspect=fixed;imageAspect=0;editableCssRules=.*;image=data:image/svg+xml,PHN2ZyB4bWxucz0iaHR0cDovL3d3dy53My5vcmcvMjAwMC9zdmciIHdpZHRoPSIyNTYiIHZpZXdCb3g9IjAgMCAyNTYgMjUyIiBwcmVzZXJ2ZUFzcGVjdFJhdGlvPSJ4TWlkWU1pZCIgaGVpZ2h0PSIyNTIiPjxnIGZpbGw9IiMwMDU0NmIiPjxwYXRoIGQ9Im0yMzUuNjQ4Mjc2IDE5NC4yMTE2MzJjLTEzLjkxODQyNS0uMzQ3MDczLTI0LjcwNTQwNCAxLjA0NTY0LTMzLjc1MjY3MiA0Ljg3MjMzMi0yLjYwOTcwNSAxLjA0MzQ0Mi02Ljc4NTY3NyAxLjA0NDUzNC03LjEzMzgzNyA0LjM0OTQ5NCAxLjM5MjczMSAxLjM5MjczMSAxLjU2NjI2NyAzLjY1NDI1OCAyLjc4NDMyOSA1LjU2NzU5NyAyLjA4OTA5NiAzLjQ3ODQ5NiA1Ljc0MTE1MSA4LjE3NzI4OCA5LjA0NzIyMSAxMC42MTM0NTIgMy42NTMxNDQgMi43ODMyNDEgNy4zMDczNzQgNS41NjY0ODIgMTEuMTM0MDk5IDguMDAyNjQ2IDYuNzg1Njc2IDQuMTc1OTcyIDE0LjQ0MTIwOSA2LjYxMTAxNyAyMS4wNTIyNjEgMTAuNzg2OTcgMy44Mjg5IDIuNDMzOTQ0IDcuNjU0NDQ2IDUuNTY3NTg4IDExLjQ4MjI1NyA4LjE3NzI4OCAxLjkxNDQ3MyAxLjM5MDUxNSAzLjEzMTQ0NyAzLjY1MzEzNCA1LjU2NzYxNSA0LjUyMzAzNXYtLjUyMTcxNGMtMS4yMTgxMDctMS41NjYyNTMtMS41NjYyNjctMy44Mjc3OC0yLjc4MzI0MS01LjU2NzU4OC0xLjczODcxNi0xLjczOTgwMy0zLjQ3OTYwNi0zLjMwNjA2MS01LjIxOTQwOS01LjA0NTg2NC01LjA0NTg3NC02Ljc4NDU4LTExLjMwODc2Ni0xMi43MDAyOTYtMTguMDk0MzUyLTE3LjU3MTUzMi01LjU2NjQ4Mi0zLjgyNzc5OC0xNy43NDYxOTItOS4wNDcxOTgtMjAuMDA3NzgzLTE1LjQ4NDY5NyAwIDAtLjE3NDYyNC0uMTczNTQxLS4zNDgxNi0uMzQ3MDgxIDMuODI3NzY3LS4zNDgxODMgOC4zNTA4MTItMS43Mzk3OSAxMi4wMDUwODctMi43ODQzNDcgNS45MTU3NzUtMS41NjYyNDkgMTEuMzA4NzY2LTEuMjE4MDc1IDE3LjM5Nzk4Ni0yLjc4MzI0MSAyLjc4MzI0Mi0uNjk2MzUyIDUuNTY3NjE1LTEuNTY2MjUzIDguMzUwODU2LTIuNDM2MTZ2LTEuNTY1MTQ3Yy0zLjEzMDMxMy0zLjEzMjU0My01LjM5Mjk0NS03LjMwNzM5MS04LjY5OTAxNi0xMC4yNjUyOTctOC44NzI1NTItNy42NTY2NjUtMTguNjE2MTM4LTE1LjEzNjUwOS0yOC43MDY3NTMtMjEuMzk5Mzg0LTUuMzk0MDc5LTMuNDc5NjAyLTEyLjM1MzI5Mi01Ljc0MjI0My0xOC4wOTQzNTItOC42OTkwMjUtMi4wODY4NzYtMS4wNDU2NC01LjU2NzYxNS0xLjU2NjI0OS02Ljc4NDU4OS0zLjMwNjA3LTMuMTMyNTIxLTMuODI3Nzc2LTQuODcyMzI0LTguODcyNTM5LTcuMTMzODQxLTEzLjM5NjcyLTUuMDQzNjUzLTkuNTY5OTc0LTkuOTE3MTE5LTIwLjE4MTI3My0xNC4yNjY1NzItMzAuMjcxOTE0LTMuMTMwMzE0LTYuNzg1NjcyLTUuMDQ0NzU5LTEzLjU3MTM3NTgtOC44NzI1NDgtMTkuODM0MTQxNy0xNy45MTk2OTYtMjkuNTc2NjE3OS0zNy40MDU3NjctNDcuNDk2NDEzMS02Ny4zMzA1NTQtNjUuMDY5MDY1OS02LjQzNzQ4NDgtMy42NTMxNTIyLTE0LjA5MTkzMDEtNS4yMTk0MDMzLTIyLjI2OTI0NTItNy4xMzI3NDUtNC4zNDgzOTc5LS4xNzQ2NDQxLTguNjk5MDE1OS0uNTIxNzE1OC0xMy4wNDg1NTU2LS42OTYzNTk5LTIuNzgzMjQxMS0xLjIxODA5NDYtNS41Njc1ODc3LTQuNTIzMDQzMy04LjAwMzc2MDctNi4wODkzMDg0LTkuOTE0ODcxLTYuMjYzOTQ4LTM1LjQ5MTMyMzQ5LTE5LjgzMzExNTE4LTQyLjc5ODY5MTctMS45MTMzNDE3My00LjY5NzY5MDYyIDExLjMwODc0OTIzIDYuOTU5MjEyNzQgMjIuNDQyNzc0NjMgMTAuOTYwNDkyNyAyOC4xODQ5Nzg4MyAyLjk1ODk4ODUgNC4wMDEzMzY2IDYuNzg1NjcyIDguNTI0MzcgOC44NzM2NTc4IDEzLjA0ODU2NTEgMS4yMTgwODg4IDIuOTU1Njc2MyAxLjU2NTE1NjggNi4wODkzMDIxIDIuNzgzMjQ1NiA5LjIyMDczMDMgMi43ODQzNDIxIDcuNjUzMzYyNCA1LjM5Mjk0MTMgMTYuMTc5ODk3OCA5LjA0NzE4OTUgMjMuMzEzODI5NCAxLjkxNDQ0NTEgMy42NTMxNTE3IDQuMDAxMzI1MyA3LjQ4MDkzNjIgNi40Mzc0ODkzIDEwLjc4NTg2IDEuMzkxNjE2IDEuOTEzMzM5NSAzLjgyNjY3ODkgMi43ODQzNDY2IDQuMzQ5NDk4OSA1LjkxNTc3MDMtMi40MzUwNTM5IDMuNDc5NTkyNy0yLjYwOTcwMDIgOC42OTkwMTU3LTQuMDAyNDMwOSAxMy4wNDg1NTU3LTYuMjYyODQyOSAxOS42NTk1LTMuODI2NjgzNCA0NC4wMTY4MDggNS4wNDU4NzMzIDU4LjQ1Njg5OCAyLjc4MzI0MTEgNC4zNDg0MDcgOS4zOTUzMzU5IDEzLjkxOTUzMSAxOC4yNjc5NjA2IDEwLjI2NTI5MiA3LjgyOTEwOTktMy4xMzE0MzggNi4wODkzMDIxLTEzLjA0ODU1NiA4LjM1MDgyODgtMjEuNzQ3NTcyLjUyMjgyOS0yLjA4OTA4Ny4xNzQ2NDE4LTMuNDc5NTkzIDEuMjE4MDg0Mi00Ljg3MTIyNy4wMDA5MDYyLjE3MzU0MSAwIC4zNDgxNzggMCAuMzQ4MTc4IDIuNDM2MTU5NSA0Ljg3MTIyNyA0Ljg3MTIyNjkgOS41Njg5NDkgNy4xMzI3NDQ1IDE0LjQ0MDA5NSA1LjM5NDA0NjkgOC41MjQzNjkgMTQuNzg4MzU0MyAxNy4zOTgwMTggMjIuNjE3NDEzOSAyMy4zMTM4NDcgNC4xNzcwNzggMy4xMzAzMDUgNy40ODIwMzMgOC41MjQzNzQgMTIuNzAxNDIgMTAuNDM4ODF2LS41MjI4MjloLS4zNDgxNzhjLTEuMDQ0NTQ0LTEuNTY2MjUzLTIuNjA5Ny0yLjI2MTUyNi00LjAwMTMyNS0zLjQ3OTU5Mi0zLjEzMTQyOS0zLjEzMTQyOS02LjYxMjEzNi02Ljk1OTIyNy05LjA0NzE5LTEwLjQzODgxMS03LjMwNjI4NTMtOS43NDM1OTUtMTMuNzQ0ODg5Mi0yMC41Mjk0NDYtMTkuNDg1OTgxNC0zMS42NjQ1ODUtMi43ODMyNDExLTUuMzkyOTQxLTUuMjE5NDAwNS0xMS4zMDg3NjItNy40ODA5MjcyLTE2LjcwMTY4NS0xLjA0NDU0MzQtMi4wODkwODItMS4wNDQ1NDM0LTUuMjE5NDA1LTIuNzg0MzQ2Ni02LjI2MjgzOC0yLjYwOTcwMDMgMy44MjY2NzQtNi40MzYzODM3IDcuMTMyNzQ0LTguMzUwODI4NyAxMS44MzA0NDQtMy4zMDM4NTQ1IDcuNDgwOTI3LTMuNjUzMTQyNyAxNi43MDE2OC00Ljg3MTIyNjkgMjYuMjcwNTMtLjY5NTI2ODkuMTc0NjUxLS4zNDgxODcyIDAtLjY5NjM2OTkuMzQ4MTkxLTUuNTY2NDg2Ni0xLjM5MjczLTcuNDgwOTMxNy03LjEzMjc0NC05LjU2ODk1MzgtMTIuMDA1MDg2LTUuMjE5NDA1LTEyLjM1MjEyNi02LjA4OTMwMi0zMi4xODYzNjgtMS41NjUxNTY4LTQ2LjQ1MTgxNiAxLjIxODA4NDMtMy42NTQyNDggNi40Mzc0ODkzLTE1LjEzNjUyMzIgNC4zNDk1MDM1LTE4LjYxNjEzNDEtMS4wNDM0NDI0LTMuMzA2MDc0Ni00LjUyNDE0OTgtNS4yMTk0MDUtNi40Mzc0ODkzLTcuODI5MTA1Mi0yLjI2MTUyNjctMy4zMDYwNzAxLTQuNjk3Njg2MS03LjQ4MDkzMTctNi4yNjI4NDI5LTExLjEzNTEzOTEtNC4xNzU5NzE3LTkuNzQyNDc2NS02LjI2Mzk0ODUtMjAuNTI5NDQ2Ni0xMC43ODY5NzQ2LTMwLjI3MzA0MjItMi4wODc5ODU4LTQuNTI0MTQ4OS01Ljc0MTEyODUtOS4yMjA3MzE3LTguNjk5MDE1OS0xMy4zOTU2MDkxLTMuMzA0OTU1NS00LjY5NzY3NzktNi45NTkyMTI4LTguMDAzNzQ4OS05LjU2ODk0OTI3LTEzLjU3MTM1NTctLjg2ODgwMDU3LTEuOTEzMzQxNy0yLjA4Nzk4NTg0LTUuMDQ0NzU5MS0uNjk2MzYwNzgtNy4xMzI3NTQuMzQ4MTgyNjYtMS4zOTE2MTE5IDEuMDQzNDM3ODgtMS45MTMzMzY3IDIuNDM2MTU5NDUtMi4yNjE1MjE2MyAyLjI2MTUyNjYtMS45MTQ0NDU0OCA4LjY5OTAxNTkuNTIxNzE1NzMgMTAuOTYwNDkyNyAxLjU2NTE2MTMzIDYuNDM3NDg5MyAyLjYwODU4ODggMTEuODMwNDQ0MiA1LjA0NTg3MjQgMTcuMjI0NDkxMSA4LjY5OTAxNSAyLjQzNTA1ODQgMS43Mzk4MDEgNS4wNDQ3NTg2IDUuMDQ1ODcxOSA4LjE3NjE4NjkgNS45MTU3NzI2aDMuNjU0MjQzN2M1LjU2NzU4NzYgMS4yMTY5ODE0IDExLjgzMDQ0NDEuMzQ4MTY1OSAxNy4wNDk4NDQ2IDEuOTEzMzQxMyA5LjIyMTgzNTkgMi45NTY3ODI4IDE3LjU3MTUzNjUgNy4zMDczODkxIDI1LjA1MzY0MTcgMTIuMDA1MDg2IDIyLjc5MjA2MDQgMTQuNDQwMDk3OCA0MS41ODA1ODM0IDM0Ljk3MDY2MzUgNTQuMjgyMDkzNCA1OS41MDE0OTQyIDIuMDg3OTg2IDQuMDAwMjI0NiAyLjk1Njc4MiA3LjY1NTU2NDYgNC44NzEyMjcgMTEuODMwNDQ0NiAzLjY1NDI0OCA4LjUyNTQ3NSA4LjE3NzI4OCAxNy4yMjQ0ODYgMTEuODMwNDQgMjUuNTc1MzI4IDMuNjUzMTQyIDguMTc2MTgzIDcuMTMyNzQ0IDE2LjUyODE0NCAxMi4zNTIxMzEgMjMuMzEzODMgMi42MTA4MDYgMy42NTIwNDYgMTMuMDQ4NTQyIDUuNTY2NDgyIDE3Ljc0NjE2NSA3LjQ4MDkyNyAzLjQ3OTYwNiAxLjU2NTE2NiA4Ljg3MzY4NSAyLjk1Nzg5NiAxMi4wMDUwODYgNC44NzEyMzEgNS45MTQ2ODkgMy42NTIwMzcgMTEuODMwNDY0IDcuODI5MTI0IDE3LjM5ODAzMyAxMS44MzA0NCAyLjc4NDMyOSAyLjA4Njg4OSAxMS40ODIyNTcgNi40Mzc0OTggMTIuMDA1MDg2IDkuOTE2MDA0eiIvPjxwYXRoIGQ9Im01OC4xODY0ODkyIDQzLjAyMjI2NDRjLTIuOTU3ODgyOSAwLTUuMDQ0NzU4Ny4zNDkyODgyLTcuMTMyNzQ0NS44NzEwMTYyIDAtLjAwMDkwNjIgMCAuMTc0NjQxOSAwIC4zNDgxODI3aC4zNDgxODcyYzEuMzkyNzI2MSAyLjc4MzI0MDEgMy44MjY2ODM1IDQuNjk3Njg1MiA1LjU2NjQ4MjEgNy4xMzI3MzQ1IDEuMzkyNzMwNiAyLjc4MzI0MTEgMi42MDk3MDAzIDUuNTY3NTk2NyA0LjAwMjQzMDkgOC4zNTE5NDM0LjE3MzUzMTctLjE3NDY0NjQuMzQ3MDcyNi0uMzQ4MTgyNy4zNDcwNzI2LS4zNDgxODI3IDIuNDM3Mjc0LTEuNzQwOTA4NyAzLjY1NDI0ODItNC41MjQxNDk4IDMuNjU0MjQ4Mi04LjY5OTAxNTktMS4wNDQ1NDgtMS4yMTgwODQzLTEuMjE4MDg4OC0yLjQzNjE2NC0yLjA4Nzk4NTktMy42NTQyNDgyLTEuMDQzNDQyNC0xLjc0MDkxMjQtMy4zMDYwNzQ2LTIuNjA5Njk5NC00LjY5NzY5MDYtNC4wMDI0M3oiLz48L2c+PC9zdmc+;" parent="8WT_DYF4QWscyHyzon4S-120" vertex="1">
          <mxGeometry x="690" y="294.9200000000001" width="71.26" height="70.16" as="geometry" />
        </mxCell>
        <mxCell id="8WT_DYF4QWscyHyzon4S-125" value="" style="edgeStyle=orthogonalEdgeStyle;rounded=0;orthogonalLoop=1;jettySize=auto;html=1;" parent="8WT_DYF4QWscyHyzon4S-120" source="8WT_DYF4QWscyHyzon4S-126" target="8WT_DYF4QWscyHyzon4S-123" edge="1">
          <mxGeometry relative="1" as="geometry" />
        </mxCell>
        <mxCell id="8WT_DYF4QWscyHyzon4S-126" value="" style="shape=image;verticalLabelPosition=bottom;labelBackgroundColor=default;verticalAlign=top;aspect=fixed;imageAspect=0;editableCssRules=.*;image=data:image/svg+xml,PHN2ZyB4bWxucz0iaHR0cDovL3d3dy53My5vcmcvMjAwMC9zdmciIHdpZHRoPSIxNiIgdmlld0JveD0iMCAwIDE2IDE2IiBoZWlnaHQ9IjE2Ij48cGF0aCBmaWxsPSJub25lIiBkPSJtMCAwaDE2djE2aC0xNnoiLz48cGF0aCBkPSJtOCA4YzIuMjA5IDAgNC0xLjc5MSA0LTRzLTEuNzkxLTQtNC00LTQgMS43OTEtNCA0IDEuNzkxIDQgNCA0em00IDJoLThjLTIuMjA5IDAtNCAxLjc5MS00IDR2MmgxNnYtMmMwLTIuMjA5LTEuNzkxLTQtNC00eiIvPjwvc3ZnPg==;" parent="8WT_DYF4QWscyHyzon4S-120" vertex="1">
          <mxGeometry x="60" y="290" width="60" height="60" as="geometry" />
        </mxCell>
        <mxCell id="8WT_DYF4QWscyHyzon4S-127" value="" style="group" parent="8WT_DYF4QWscyHyzon4S-120" vertex="1" connectable="0">
          <mxGeometry x="430" y="110" width="180" height="130" as="geometry" />
        </mxCell>
        <mxCell id="8WT_DYF4QWscyHyzon4S-128" value="" style="rounded=1;whiteSpace=wrap;html=1;" parent="8WT_DYF4QWscyHyzon4S-127" vertex="1">
          <mxGeometry y="30" width="167.92" height="100" as="geometry" />
        </mxCell>
        <mxCell id="8WT_DYF4QWscyHyzon4S-129" value="" style="group" parent="8WT_DYF4QWscyHyzon4S-127" vertex="1" connectable="0">
          <mxGeometry x="10" width="170" height="130" as="geometry" />
        </mxCell>
        <mxCell id="8WT_DYF4QWscyHyzon4S-130" value="Local Cache 1" style="text;html=1;align=center;verticalAlign=middle;resizable=0;points=[];autosize=1;strokeColor=none;fillColor=none;container=1;fontFamily=Do Hyeon;fontSource=https%3A%2F%2Ffonts.googleapis.com%2Fcss%3Ffamily%3DDo%2BHyeon;" parent="8WT_DYF4QWscyHyzon4S-129" vertex="1">
          <mxGeometry x="24.999999999999986" width="90" height="30" as="geometry" />
        </mxCell>
        <mxCell id="8WT_DYF4QWscyHyzon4S-131" value="&lt;div&gt;&lt;font style=&quot;color: rgb(255, 0, 0);&quot;&gt;{&lt;/font&gt;&lt;/div&gt;&lt;div&gt;&lt;font style=&quot;color: rgb(255, 0, 0);&quot;&gt;&amp;nbsp; &amp;nbsp;&quot;name&quot;:&quot;Son&quot;,&lt;/font&gt;&lt;/div&gt;&lt;div&gt;&lt;font style=&quot;color: rgb(255, 0, 0);&quot;&gt;&amp;nbsp; &amp;nbsp;&quot;age&quot;:33,&lt;/font&gt;&lt;/div&gt;&lt;div&gt;&lt;font style=&quot;color: rgb(255, 0, 0);&quot;&gt;&amp;nbsp; &amp;nbsp;&quot;statusMessage&quot;:&quot;hello~&quot;&lt;/font&gt;&lt;/div&gt;&lt;div&gt;&lt;font style=&quot;color: rgb(255, 0, 0);&quot;&gt;}&lt;/font&gt;&lt;/div&gt;" style="text;html=1;align=left;verticalAlign=middle;resizable=0;points=[];autosize=1;strokeColor=none;fillColor=none;fontFamily=Do Hyeon;fontSource=https%3A%2F%2Ffonts.googleapis.com%2Fcss%3Ffamily%3DDo%2BHyeon;" parent="8WT_DYF4QWscyHyzon4S-129" vertex="1">
          <mxGeometry y="35" width="150" height="90" as="geometry" />
        </mxCell>
        <mxCell id="8WT_DYF4QWscyHyzon4S-132" value="수정 후 조회 (서버가 많은 경우)" style="text;html=1;align=center;verticalAlign=middle;whiteSpace=wrap;rounded=0;fontFamily=Do Hyeon;fontSource=https%3A%2F%2Ffonts.googleapis.com%2Fcss%3Ffamily%3DDo%2BHyeon;fontSize=30;" parent="8WT_DYF4QWscyHyzon4S-120" vertex="1">
          <mxGeometry x="276.5" y="20" width="353.5" height="50" as="geometry" />
        </mxCell>
        <mxCell id="8WT_DYF4QWscyHyzon4S-133" style="edgeStyle=orthogonalEdgeStyle;rounded=0;orthogonalLoop=1;jettySize=auto;html=1;entryX=0.007;entryY=0.569;entryDx=0;entryDy=0;entryPerimeter=0;" parent="8WT_DYF4QWscyHyzon4S-120" edge="1">
          <mxGeometry relative="1" as="geometry">
            <mxPoint x="199.58000000000004" y="319.4303092783507" as="sourcePoint" />
            <mxPoint x="301" y="320.55999999999995" as="targetPoint" />
            <Array as="points">
              <mxPoint x="299.5799999999999" y="319.4200000000001" />
              <mxPoint x="299.5799999999999" y="320.4200000000001" />
            </Array>
          </mxGeometry>
        </mxCell>
        <mxCell id="8WT_DYF4QWscyHyzon4S-134" style="edgeStyle=orthogonalEdgeStyle;rounded=0;orthogonalLoop=1;jettySize=auto;html=1;entryX=0.007;entryY=0.631;entryDx=0;entryDy=0;entryPerimeter=0;" parent="8WT_DYF4QWscyHyzon4S-120" source="8WT_DYF4QWscyHyzon4S-123" target="8WT_DYF4QWscyHyzon4S-150" edge="1">
          <mxGeometry relative="1" as="geometry" />
        </mxCell>
        <mxCell id="8WT_DYF4QWscyHyzon4S-135" value="Spring Server 2" style="text;html=1;align=center;verticalAlign=middle;resizable=0;points=[];autosize=1;strokeColor=none;fillColor=none;fontFamily=Do Hyeon;fontSource=https%3A%2F%2Ffonts.googleapis.com%2Fcss%3Ffamily%3DDo%2BHyeon;fontSize=15;" parent="8WT_DYF4QWscyHyzon4S-120" vertex="1">
          <mxGeometry x="280" y="350" width="120" height="30" as="geometry" />
        </mxCell>
        <mxCell id="8WT_DYF4QWscyHyzon4S-136" value="Spring Server 3" style="text;html=1;align=center;verticalAlign=middle;resizable=0;points=[];autosize=1;strokeColor=none;fillColor=none;fontFamily=Do Hyeon;fontSource=https%3A%2F%2Ffonts.googleapis.com%2Fcss%3Ffamily%3DDo%2BHyeon;fontSize=15;" parent="8WT_DYF4QWscyHyzon4S-120" vertex="1">
          <mxGeometry x="280" y="505" width="120" height="30" as="geometry" />
        </mxCell>
        <mxCell id="8WT_DYF4QWscyHyzon4S-137" value="" style="group" parent="8WT_DYF4QWscyHyzon4S-120" vertex="1" connectable="0">
          <mxGeometry x="430" y="250" width="180" height="130" as="geometry" />
        </mxCell>
        <mxCell id="8WT_DYF4QWscyHyzon4S-138" value="" style="rounded=1;whiteSpace=wrap;html=1;" parent="8WT_DYF4QWscyHyzon4S-137" vertex="1">
          <mxGeometry y="30" width="167.92" height="100" as="geometry" />
        </mxCell>
        <mxCell id="8WT_DYF4QWscyHyzon4S-139" value="" style="group" parent="8WT_DYF4QWscyHyzon4S-137" vertex="1" connectable="0">
          <mxGeometry x="10" width="170" height="130" as="geometry" />
        </mxCell>
        <mxCell id="8WT_DYF4QWscyHyzon4S-140" value="Local Cache 2" style="text;html=1;align=center;verticalAlign=middle;resizable=0;points=[];autosize=1;strokeColor=none;fillColor=none;container=1;fontFamily=Do Hyeon;fontSource=https%3A%2F%2Ffonts.googleapis.com%2Fcss%3Ffamily%3DDo%2BHyeon;" parent="8WT_DYF4QWscyHyzon4S-139" vertex="1">
          <mxGeometry x="24.999999999999986" width="90" height="30" as="geometry" />
        </mxCell>
        <mxCell id="8WT_DYF4QWscyHyzon4S-141" value="&lt;div&gt;{&lt;/div&gt;&lt;div&gt;&amp;nbsp; &amp;nbsp;&quot;name&quot;:&quot;Son&quot;,&lt;/div&gt;&lt;div&gt;&amp;nbsp; &amp;nbsp;&quot;age&quot;:33,&lt;/div&gt;&lt;div&gt;&amp;nbsp; &amp;nbsp;&quot;statusMessage&quot;:&quot;i am son&quot;&lt;/div&gt;&lt;div&gt;}&lt;/div&gt;" style="text;html=1;align=left;verticalAlign=middle;resizable=0;points=[];autosize=1;strokeColor=none;fillColor=none;fontFamily=Do Hyeon;fontSource=https%3A%2F%2Ffonts.googleapis.com%2Fcss%3Ffamily%3DDo%2BHyeon;" parent="8WT_DYF4QWscyHyzon4S-139" vertex="1">
          <mxGeometry y="35" width="170" height="90" as="geometry" />
        </mxCell>
        <mxCell id="8WT_DYF4QWscyHyzon4S-142" value="" style="group" parent="8WT_DYF4QWscyHyzon4S-120" vertex="1" connectable="0">
          <mxGeometry x="430" y="390" width="180" height="130" as="geometry" />
        </mxCell>
        <mxCell id="8WT_DYF4QWscyHyzon4S-143" value="" style="rounded=1;whiteSpace=wrap;html=1;" parent="8WT_DYF4QWscyHyzon4S-142" vertex="1">
          <mxGeometry y="30" width="167.92" height="100" as="geometry" />
        </mxCell>
        <mxCell id="8WT_DYF4QWscyHyzon4S-144" value="" style="group" parent="8WT_DYF4QWscyHyzon4S-142" vertex="1" connectable="0">
          <mxGeometry x="10" width="170" height="130" as="geometry" />
        </mxCell>
        <mxCell id="8WT_DYF4QWscyHyzon4S-145" value="Local Cache 3" style="text;html=1;align=center;verticalAlign=middle;resizable=0;points=[];autosize=1;strokeColor=none;fillColor=none;container=1;fontFamily=Do Hyeon;fontSource=https%3A%2F%2Ffonts.googleapis.com%2Fcss%3Ffamily%3DDo%2BHyeon;" parent="8WT_DYF4QWscyHyzon4S-144" vertex="1">
          <mxGeometry x="24.999999999999986" width="90" height="30" as="geometry" />
        </mxCell>
        <mxCell id="8WT_DYF4QWscyHyzon4S-146" value="&lt;div&gt;{&lt;/div&gt;&lt;div&gt;&amp;nbsp; &amp;nbsp;&quot;name&quot;:&quot;Son&quot;,&lt;/div&gt;&lt;div&gt;&amp;nbsp; &amp;nbsp;&quot;age&quot;:33,&lt;/div&gt;&lt;div&gt;&amp;nbsp; &amp;nbsp;&quot;statusMessage&quot;:&quot;i am son&quot;&lt;/div&gt;&lt;div&gt;}&lt;/div&gt;" style="text;html=1;align=left;verticalAlign=middle;resizable=0;points=[];autosize=1;strokeColor=none;fillColor=none;fontFamily=Do Hyeon;fontSource=https%3A%2F%2Ffonts.googleapis.com%2Fcss%3Ffamily%3DDo%2BHyeon;" parent="8WT_DYF4QWscyHyzon4S-144" vertex="1">
          <mxGeometry y="35" width="170" height="90" as="geometry" />
        </mxCell>
        <mxCell id="8WT_DYF4QWscyHyzon4S-147" value="" style="shape=image;verticalLabelPosition=bottom;labelBackgroundColor=default;verticalAlign=top;aspect=fixed;imageAspect=0;editableCssRules=.*;image=data:image/svg+xml,PHN2ZyB4bWxucz0iaHR0cDovL3d3dy53My5vcmcvMjAwMC9zdmciIHZpZXdCb3g9IjAgMCAzMiAzMiIgaGVpZ2h0PSIzMiIgd2lkdGg9IjMyIj48ZyBmaWxsLXJ1bGU9ImV2ZW5vZGQiIGZpbGw9Im5vbmUiPjxwYXRoIGQ9Ik0wIDBoMzJ2MzJIMHoiLz48cGF0aCBkPSJNNS40NjYgMjcuOTkzYTEuMzY0IDEuMzY0IDAgMTAtLjA4Ny0uMDc2bC0uMjY2LS4yMzRDMS45NzIgMjQuNzYyIDAgMjAuNTk3IDAgMTUuOTc4IDAgNy4xNjggNy4xNjggMCAxNS45OCAwYzQuNDggMCA4LjUzIDEuODU3IDExLjQzNSA0LjgzNmExNC42ODEgMTQuNjgxIDAgMDAxLjctMy4wMTVjMi4wMzYgNi4xMTggMy4yMzMgMTEuMjYgMi43OTUgMTUuMzEtLjU5MiA4LjI3NC03LjUwOCAxNC44My0xNS45MyAxNC44M2ExNS45MDMgMTUuOTAzIDAgMDEtMTAuMjc2LTMuNzU3bC0uMjM4LS4yMXptMjMuNTgtNC45ODJjNC4wMS01LjMzNiAxLjc3NS0xMy45NjUtLjA4NS0xOS40OC0xLjY1NyAzLjQ1My01LjczOCA2LjA5NC05LjI2MiA2LjkzLTMuMzAzLjc4OC02LjIyNi4xNDItOS4yODMgMS4zMTgtNi45NyAyLjY4LTYuODYgMTAuOTkyLTMuMDIgMTIuODYuMDAyIDAgLjIzLjEyNC4yMjcuMTIgMC0uMDAyIDUuNjQ0LTEuMTIyIDguNzY0LTIuMjc0IDQuNTYtMS42ODQgOS41NjYtNS44MzUgMTEuMjEzLTEwLjY1Ny0uODc3IDUuMDE1LTUuMTgyIDkuODQtOS41MDcgMTIuMDU2LTIuMzAyIDEuMTgyLTQuMDkyIDEuNDQ1LTcuODggMi43NTYtLjQ2NC4xNTgtLjgyOC4zMTQtLjgyOC4zMTQuOTYtLjE2IDEuOTE3LS4yMTIgMS45MTctLjIxMiA1LjM5My0uMjU1IDEzLjgwNyAxLjUxNiAxNy43NDUtMy43M3oiIGZpbGw9IiM3MEFENTEiLz48L2c+PC9zdmc+;" parent="8WT_DYF4QWscyHyzon4S-120" vertex="1">
          <mxGeometry x="301" y="149.83999999999992" width="60" height="60" as="geometry" />
        </mxCell>
        <mxCell id="8WT_DYF4QWscyHyzon4S-148" value="" style="shape=image;verticalLabelPosition=bottom;labelBackgroundColor=default;verticalAlign=top;aspect=fixed;imageAspect=0;editableCssRules=.*;image=data:image/svg+xml,PHN2ZyB4bWxucz0iaHR0cDovL3d3dy53My5vcmcvMjAwMC9zdmciIHZpZXdCb3g9IjAgMCAzMiAzMiIgaGVpZ2h0PSIzMiIgd2lkdGg9IjMyIj48ZyBmaWxsLXJ1bGU9ImV2ZW5vZGQiIGZpbGw9Im5vbmUiPjxwYXRoIGQ9Ik0wIDBoMzJ2MzJIMHoiLz48cGF0aCBkPSJNNS40NjYgMjcuOTkzYTEuMzY0IDEuMzY0IDAgMTAtLjA4Ny0uMDc2bC0uMjY2LS4yMzRDMS45NzIgMjQuNzYyIDAgMjAuNTk3IDAgMTUuOTc4IDAgNy4xNjggNy4xNjggMCAxNS45OCAwYzQuNDggMCA4LjUzIDEuODU3IDExLjQzNSA0LjgzNmExNC42ODEgMTQuNjgxIDAgMDAxLjctMy4wMTVjMi4wMzYgNi4xMTggMy4yMzMgMTEuMjYgMi43OTUgMTUuMzEtLjU5MiA4LjI3NC03LjUwOCAxNC44My0xNS45MyAxNC44M2ExNS45MDMgMTUuOTAzIDAgMDEtMTAuMjc2LTMuNzU3bC0uMjM4LS4yMXptMjMuNTgtNC45ODJjNC4wMS01LjMzNiAxLjc3NS0xMy45NjUtLjA4NS0xOS40OC0xLjY1NyAzLjQ1My01LjczOCA2LjA5NC05LjI2MiA2LjkzLTMuMzAzLjc4OC02LjIyNi4xNDItOS4yODMgMS4zMTgtNi45NyAyLjY4LTYuODYgMTAuOTkyLTMuMDIgMTIuODYuMDAyIDAgLjIzLjEyNC4yMjcuMTIgMC0uMDAyIDUuNjQ0LTEuMTIyIDguNzY0LTIuMjc0IDQuNTYtMS42ODQgOS41NjYtNS44MzUgMTEuMjEzLTEwLjY1Ny0uODc3IDUuMDE1LTUuMTgyIDkuODQtOS41MDcgMTIuMDU2LTIuMzAyIDEuMTgyLTQuMDkyIDEuNDQ1LTcuODggMi43NTYtLjQ2NC4xNTgtLjgyOC4zMTQtLjgyOC4zMTQuOTYtLjE2IDEuOTE3LS4yMTIgMS45MTctLjIxMiA1LjM5My0uMjU1IDEzLjgwNyAxLjUxNiAxNy43NDUtMy43M3oiIGZpbGw9IiM3MEFENTEiLz48L2c+PC9zdmc+;" parent="8WT_DYF4QWscyHyzon4S-120" vertex="1">
          <mxGeometry x="301" y="287" width="60" height="60" as="geometry" />
        </mxCell>
        <mxCell id="8WT_DYF4QWscyHyzon4S-149" style="edgeStyle=orthogonalEdgeStyle;rounded=0;orthogonalLoop=1;jettySize=auto;html=1;entryX=0;entryY=0.5;entryDx=0;entryDy=0;" parent="8WT_DYF4QWscyHyzon4S-120" source="8WT_DYF4QWscyHyzon4S-150" target="8WT_DYF4QWscyHyzon4S-143" edge="1">
          <mxGeometry relative="1" as="geometry" />
        </mxCell>
        <mxCell id="8WT_DYF4QWscyHyzon4S-150" value="" style="shape=image;verticalLabelPosition=bottom;labelBackgroundColor=default;verticalAlign=top;aspect=fixed;imageAspect=0;editableCssRules=.*;image=data:image/svg+xml,PHN2ZyB4bWxucz0iaHR0cDovL3d3dy53My5vcmcvMjAwMC9zdmciIHZpZXdCb3g9IjAgMCAzMiAzMiIgaGVpZ2h0PSIzMiIgd2lkdGg9IjMyIj48ZyBmaWxsLXJ1bGU9ImV2ZW5vZGQiIGZpbGw9Im5vbmUiPjxwYXRoIGQ9Ik0wIDBoMzJ2MzJIMHoiLz48cGF0aCBkPSJNNS40NjYgMjcuOTkzYTEuMzY0IDEuMzY0IDAgMTAtLjA4Ny0uMDc2bC0uMjY2LS4yMzRDMS45NzIgMjQuNzYyIDAgMjAuNTk3IDAgMTUuOTc4IDAgNy4xNjggNy4xNjggMCAxNS45OCAwYzQuNDggMCA4LjUzIDEuODU3IDExLjQzNSA0LjgzNmExNC42ODEgMTQuNjgxIDAgMDAxLjctMy4wMTVjMi4wMzYgNi4xMTggMy4yMzMgMTEuMjYgMi43OTUgMTUuMzEtLjU5MiA4LjI3NC03LjUwOCAxNC44My0xNS45MyAxNC44M2ExNS45MDMgMTUuOTAzIDAgMDEtMTAuMjc2LTMuNzU3bC0uMjM4LS4yMXptMjMuNTgtNC45ODJjNC4wMS01LjMzNiAxLjc3NS0xMy45NjUtLjA4NS0xOS40OC0xLjY1NyAzLjQ1My01LjczOCA2LjA5NC05LjI2MiA2LjkzLTMuMzAzLjc4OC02LjIyNi4xNDItOS4yODMgMS4zMTgtNi45NyAyLjY4LTYuODYgMTAuOTkyLTMuMDIgMTIuODYuMDAyIDAgLjIzLjEyNC4yMjcuMTIgMC0uMDAyIDUuNjQ0LTEuMTIyIDguNzY0LTIuMjc0IDQuNTYtMS42ODQgOS41NjYtNS44MzUgMTEuMjEzLTEwLjY1Ny0uODc3IDUuMDE1LTUuMTgyIDkuODQtOS41MDcgMTIuMDU2LTIuMzAyIDEuMTgyLTQuMDkyIDEuNDQ1LTcuODggMi43NTYtLjQ2NC4xNTgtLjgyOC4zMTQtLjgyOC4zMTQuOTYtLjE2IDEuOTE3LS4yMTIgMS45MTctLjIxMiA1LjM5My0uMjU1IDEzLjgwNyAxLjUxNiAxNy43NDUtMy43M3oiIGZpbGw9IiM3MEFENTEiLz48L2c+PC9zdmc+;" parent="8WT_DYF4QWscyHyzon4S-120" vertex="1">
          <mxGeometry x="301" y="440" width="60" height="60" as="geometry" />
        </mxCell>
        <mxCell id="8WT_DYF4QWscyHyzon4S-151" value="Spring Server 1" style="text;html=1;align=center;verticalAlign=middle;resizable=0;points=[];autosize=1;strokeColor=none;fillColor=none;fontFamily=Do Hyeon;fontSource=https%3A%2F%2Ffonts.googleapis.com%2Fcss%3Ffamily%3DDo%2BHyeon;fontSize=15;" parent="8WT_DYF4QWscyHyzon4S-120" vertex="1">
          <mxGeometry x="280" y="209.83999999999992" width="120" height="30" as="geometry" />
        </mxCell>
        <mxCell id="8WT_DYF4QWscyHyzon4S-152" style="edgeStyle=orthogonalEdgeStyle;rounded=0;orthogonalLoop=1;jettySize=auto;html=1;strokeWidth=3;strokeColor=#FF0000;" parent="8WT_DYF4QWscyHyzon4S-120" source="8WT_DYF4QWscyHyzon4S-147" edge="1">
          <mxGeometry relative="1" as="geometry">
            <mxPoint x="430" y="180" as="targetPoint" />
          </mxGeometry>
        </mxCell>
        <mxCell id="8WT_DYF4QWscyHyzon4S-153" style="edgeStyle=orthogonalEdgeStyle;rounded=0;orthogonalLoop=1;jettySize=auto;html=1;entryX=-0.007;entryY=0.37;entryDx=0;entryDy=0;entryPerimeter=0;" parent="8WT_DYF4QWscyHyzon4S-120" source="8WT_DYF4QWscyHyzon4S-148" target="8WT_DYF4QWscyHyzon4S-138" edge="1">
          <mxGeometry relative="1" as="geometry" />
        </mxCell>
        <mxCell id="8WT_DYF4QWscyHyzon4S-154" style="edgeStyle=orthogonalEdgeStyle;rounded=0;orthogonalLoop=1;jettySize=auto;html=1;" parent="8WT_DYF4QWscyHyzon4S-120" source="8WT_DYF4QWscyHyzon4S-141" target="8WT_DYF4QWscyHyzon4S-124" edge="1">
          <mxGeometry relative="1" as="geometry" />
        </mxCell>
        <mxCell id="8WT_DYF4QWscyHyzon4S-155" style="edgeStyle=orthogonalEdgeStyle;rounded=0;orthogonalLoop=1;jettySize=auto;html=1;entryX=0;entryY=0.5;entryDx=0;entryDy=0;" parent="8WT_DYF4QWscyHyzon4S-120" source="8WT_DYF4QWscyHyzon4S-131" target="8WT_DYF4QWscyHyzon4S-124" edge="1">
          <mxGeometry relative="1" as="geometry">
            <Array as="points">
              <mxPoint x="650" y="190" />
              <mxPoint x="650" y="330" />
            </Array>
          </mxGeometry>
        </mxCell>
        <mxCell id="8WT_DYF4QWscyHyzon4S-156" style="edgeStyle=orthogonalEdgeStyle;rounded=0;orthogonalLoop=1;jettySize=auto;html=1;entryX=0;entryY=0.5;entryDx=0;entryDy=0;" parent="8WT_DYF4QWscyHyzon4S-120" source="8WT_DYF4QWscyHyzon4S-146" target="8WT_DYF4QWscyHyzon4S-124" edge="1">
          <mxGeometry relative="1" as="geometry" />
        </mxCell>
        <mxCell id="8WT_DYF4QWscyHyzon4S-192" value="Cache Register" style="text;html=1;align=center;verticalAlign=middle;resizable=0;points=[];autosize=1;strokeColor=none;fillColor=none;fontColor=#FF0000;fontFamily=Do Hyeon;fontSource=https%3A%2F%2Ffonts.googleapis.com%2Fcss%3Ffamily%3DDo%2BHyeon;" parent="8WT_DYF4QWscyHyzon4S-120" vertex="1">
          <mxGeometry x="333" y="119.84" width="100" height="30" as="geometry" />
        </mxCell>
        <mxCell id="8WT_DYF4QWscyHyzon4S-174" value="" style="group" parent="1" vertex="1" connectable="0">
          <mxGeometry x="20" y="730" width="620" height="410" as="geometry" />
        </mxCell>
        <mxCell id="8WT_DYF4QWscyHyzon4S-175" value="" style="rounded=1;whiteSpace=wrap;html=1;" parent="8WT_DYF4QWscyHyzon4S-174" vertex="1">
          <mxGeometry width="620" height="410" as="geometry" />
        </mxCell>
        <mxCell id="8WT_DYF4QWscyHyzon4S-176" style="edgeStyle=orthogonalEdgeStyle;rounded=0;orthogonalLoop=1;jettySize=auto;html=1;" parent="8WT_DYF4QWscyHyzon4S-174" source="8WT_DYF4QWscyHyzon4S-177" target="8WT_DYF4QWscyHyzon4S-178" edge="1">
          <mxGeometry relative="1" as="geometry" />
        </mxCell>
        <mxCell id="8WT_DYF4QWscyHyzon4S-177" value="" style="shape=image;verticalLabelPosition=bottom;labelBackgroundColor=default;verticalAlign=top;aspect=fixed;imageAspect=0;editableCssRules=.*;image=data:image/svg+xml,PHN2ZyB4bWxucz0iaHR0cDovL3d3dy53My5vcmcvMjAwMC9zdmciIHZpZXdCb3g9IjAgMCAzMiAzMiI+PHBhdGggZmlsbD0iIzAxOTYzOSIgZD0ibTE1Ljk0OCAyaC4wNjVhMTAuNDE4IDEwLjQxOCAwIDAgMSAuOTcyLjUyOHE1LjQyOSAzLjEyMiAxMC44NTggNi4yNDZhLjc5Mi43OTIgMCAwIDEgLjQxNC43ODhjLS4wMDggNC4zODkgMCA4Ljc3Ny0uMDA1IDEzLjE2NGEuODEzLjgxMyAwIDAgMSAtLjM1Ni41MDdxLTUuNzczIDMuMzI0LTExLjU0NyA2LjY0NGEuNTg3LjU4NyAwIDAgMSAtLjY1Ny4wMzdxLTUuNzgtMy4zMTQtMTEuNTQ5LTYuNjRhLjcuNyAwIDAgMSAtLjQtLjY2NnEwLTYuNTgyIDAtMTMuMTYzYS42OTMuNjkzIDAgMCAxIC4zODctLjY3cTUuNDIyLTMuMTE4IDEwLjg0NC02LjI0Yy4zMjItLjE4NC42MzgtLjM3OS45NzQtLjUzNSIvPjxwYXRoIGZpbGw9IiNmZmYiIGQ9Im04Ljc2NyAxMC41MzhxMCA1LjQyOSAwIDEwLjg1OWExLjUwOSAxLjUwOSAwIDAgMCAuNDI3IDEuMDg3IDEuNjQ3IDEuNjQ3IDAgMCAwIDIuMDYuMjA2IDEuNTY0IDEuNTY0IDAgMCAwIC42ODUtMS4yOTNjMC0yLjYyLS4wMDUtNS4yNCAwLTcuODZxMy41ODMgNC4yOSA3LjE4MSA4LjU2OGEyLjgzMyAyLjgzMyAwIDAgMCAyLjYuNzgyIDEuNTYxIDEuNTYxIDAgMCAwIDEuMjUxLTEuMzcxcS4wMDgtNS41NDEgMC0xMS4wODFhMS41ODIgMS41ODIgMCAwIDAgLTMuMTUyIDBjMCAyLjY2Mi0uMDE2IDUuMzIxIDAgNy45ODItMi4zNDYtMi43NjYtNC42NjMtNS41NTYtNy04LjMzMmEyLjgxNyAyLjgxNyAwIDAgMCAtMi42NDktMS4wNTIgMS41NzkgMS41NzkgMCAwIDAgLTEuNDAzIDEuNTA1eiIvPjwvc3ZnPg==;" parent="8WT_DYF4QWscyHyzon4S-174" vertex="1">
          <mxGeometry x="187" y="149.83999999999992" width="60" height="60" as="geometry" />
        </mxCell>
        <mxCell id="8WT_DYF4QWscyHyzon4S-178" value="" style="shape=image;verticalLabelPosition=bottom;labelBackgroundColor=default;verticalAlign=top;aspect=fixed;imageAspect=0;editableCssRules=.*;image=data:image/svg+xml,PHN2ZyB4bWxucz0iaHR0cDovL3d3dy53My5vcmcvMjAwMC9zdmciIHZpZXdCb3g9IjAgMCAzMiAzMiIgaGVpZ2h0PSIzMiIgd2lkdGg9IjMyIj48ZyBmaWxsLXJ1bGU9ImV2ZW5vZGQiIGZpbGw9Im5vbmUiPjxwYXRoIGQ9Ik0wIDBoMzJ2MzJIMHoiLz48cGF0aCBkPSJNNS40NjYgMjcuOTkzYTEuMzY0IDEuMzY0IDAgMTAtLjA4Ny0uMDc2bC0uMjY2LS4yMzRDMS45NzIgMjQuNzYyIDAgMjAuNTk3IDAgMTUuOTc4IDAgNy4xNjggNy4xNjggMCAxNS45OCAwYzQuNDggMCA4LjUzIDEuODU3IDExLjQzNSA0LjgzNmExNC42ODEgMTQuNjgxIDAgMDAxLjctMy4wMTVjMi4wMzYgNi4xMTggMy4yMzMgMTEuMjYgMi43OTUgMTUuMzEtLjU5MiA4LjI3NC03LjUwOCAxNC44My0xNS45MyAxNC44M2ExNS45MDMgMTUuOTAzIDAgMDEtMTAuMjc2LTMuNzU3bC0uMjM4LS4yMXptMjMuNTgtNC45ODJjNC4wMS01LjMzNiAxLjc3NS0xMy45NjUtLjA4NS0xOS40OC0xLjY1NyAzLjQ1My01LjczOCA2LjA5NC05LjI2MiA2LjkzLTMuMzAzLjc4OC02LjIyNi4xNDItOS4yODMgMS4zMTgtNi45NyAyLjY4LTYuODYgMTAuOTkyLTMuMDIgMTIuODYuMDAyIDAgLjIzLjEyNC4yMjcuMTIgMC0uMDAyIDUuNjQ0LTEuMTIyIDguNzY0LTIuMjc0IDQuNTYtMS42ODQgOS41NjYtNS44MzUgMTEuMjEzLTEwLjY1Ny0uODc3IDUuMDE1LTUuMTgyIDkuODQtOS41MDcgMTIuMDU2LTIuMzAyIDEuMTgyLTQuMDkyIDEuNDQ1LTcuODggMi43NTYtLjQ2NC4xNTgtLjgyOC4zMTQtLjgyOC4zMTQuOTYtLjE2IDEuOTE3LS4yMTIgMS45MTctLjIxMiA1LjM5My0uMjU1IDEzLjgwNyAxLjUxNiAxNy43NDUtMy43M3oiIGZpbGw9IiM3MEFENTEiLz48L2c+PC9zdmc+;" parent="8WT_DYF4QWscyHyzon4S-174" vertex="1">
          <mxGeometry x="280" y="149.83999999999992" width="60" height="60" as="geometry" />
        </mxCell>
        <mxCell id="8WT_DYF4QWscyHyzon4S-179" value="" style="shape=image;verticalLabelPosition=bottom;labelBackgroundColor=default;verticalAlign=top;aspect=fixed;imageAspect=0;editableCssRules=.*;image=data:image/svg+xml,PHN2ZyB4bWxucz0iaHR0cDovL3d3dy53My5vcmcvMjAwMC9zdmciIHdpZHRoPSIyNTYiIHZpZXdCb3g9IjAgMCAyNTYgMjUyIiBwcmVzZXJ2ZUFzcGVjdFJhdGlvPSJ4TWlkWU1pZCIgaGVpZ2h0PSIyNTIiPjxnIGZpbGw9IiMwMDU0NmIiPjxwYXRoIGQ9Im0yMzUuNjQ4Mjc2IDE5NC4yMTE2MzJjLTEzLjkxODQyNS0uMzQ3MDczLTI0LjcwNTQwNCAxLjA0NTY0LTMzLjc1MjY3MiA0Ljg3MjMzMi0yLjYwOTcwNSAxLjA0MzQ0Mi02Ljc4NTY3NyAxLjA0NDUzNC03LjEzMzgzNyA0LjM0OTQ5NCAxLjM5MjczMSAxLjM5MjczMSAxLjU2NjI2NyAzLjY1NDI1OCAyLjc4NDMyOSA1LjU2NzU5NyAyLjA4OTA5NiAzLjQ3ODQ5NiA1Ljc0MTE1MSA4LjE3NzI4OCA5LjA0NzIyMSAxMC42MTM0NTIgMy42NTMxNDQgMi43ODMyNDEgNy4zMDczNzQgNS41NjY0ODIgMTEuMTM0MDk5IDguMDAyNjQ2IDYuNzg1Njc2IDQuMTc1OTcyIDE0LjQ0MTIwOSA2LjYxMTAxNyAyMS4wNTIyNjEgMTAuNzg2OTcgMy44Mjg5IDIuNDMzOTQ0IDcuNjU0NDQ2IDUuNTY3NTg4IDExLjQ4MjI1NyA4LjE3NzI4OCAxLjkxNDQ3MyAxLjM5MDUxNSAzLjEzMTQ0NyAzLjY1MzEzNCA1LjU2NzYxNSA0LjUyMzAzNXYtLjUyMTcxNGMtMS4yMTgxMDctMS41NjYyNTMtMS41NjYyNjctMy44Mjc3OC0yLjc4MzI0MS01LjU2NzU4OC0xLjczODcxNi0xLjczOTgwMy0zLjQ3OTYwNi0zLjMwNjA2MS01LjIxOTQwOS01LjA0NTg2NC01LjA0NTg3NC02Ljc4NDU4LTExLjMwODc2Ni0xMi43MDAyOTYtMTguMDk0MzUyLTE3LjU3MTUzMi01LjU2NjQ4Mi0zLjgyNzc5OC0xNy43NDYxOTItOS4wNDcxOTgtMjAuMDA3NzgzLTE1LjQ4NDY5NyAwIDAtLjE3NDYyNC0uMTczNTQxLS4zNDgxNi0uMzQ3MDgxIDMuODI3NzY3LS4zNDgxODMgOC4zNTA4MTItMS43Mzk3OSAxMi4wMDUwODctMi43ODQzNDcgNS45MTU3NzUtMS41NjYyNDkgMTEuMzA4NzY2LTEuMjE4MDc1IDE3LjM5Nzk4Ni0yLjc4MzI0MSAyLjc4MzI0Mi0uNjk2MzUyIDUuNTY3NjE1LTEuNTY2MjUzIDguMzUwODU2LTIuNDM2MTZ2LTEuNTY1MTQ3Yy0zLjEzMDMxMy0zLjEzMjU0My01LjM5Mjk0NS03LjMwNzM5MS04LjY5OTAxNi0xMC4yNjUyOTctOC44NzI1NTItNy42NTY2NjUtMTguNjE2MTM4LTE1LjEzNjUwOS0yOC43MDY3NTMtMjEuMzk5Mzg0LTUuMzk0MDc5LTMuNDc5NjAyLTEyLjM1MzI5Mi01Ljc0MjI0My0xOC4wOTQzNTItOC42OTkwMjUtMi4wODY4NzYtMS4wNDU2NC01LjU2NzYxNS0xLjU2NjI0OS02Ljc4NDU4OS0zLjMwNjA3LTMuMTMyNTIxLTMuODI3Nzc2LTQuODcyMzI0LTguODcyNTM5LTcuMTMzODQxLTEzLjM5NjcyLTUuMDQzNjUzLTkuNTY5OTc0LTkuOTE3MTE5LTIwLjE4MTI3My0xNC4yNjY1NzItMzAuMjcxOTE0LTMuMTMwMzE0LTYuNzg1NjcyLTUuMDQ0NzU5LTEzLjU3MTM3NTgtOC44NzI1NDgtMTkuODM0MTQxNy0xNy45MTk2OTYtMjkuNTc2NjE3OS0zNy40MDU3NjctNDcuNDk2NDEzMS02Ny4zMzA1NTQtNjUuMDY5MDY1OS02LjQzNzQ4NDgtMy42NTMxNTIyLTE0LjA5MTkzMDEtNS4yMTk0MDMzLTIyLjI2OTI0NTItNy4xMzI3NDUtNC4zNDgzOTc5LS4xNzQ2NDQxLTguNjk5MDE1OS0uNTIxNzE1OC0xMy4wNDg1NTU2LS42OTYzNTk5LTIuNzgzMjQxMS0xLjIxODA5NDYtNS41Njc1ODc3LTQuNTIzMDQzMy04LjAwMzc2MDctNi4wODkzMDg0LTkuOTE0ODcxLTYuMjYzOTQ4LTM1LjQ5MTMyMzQ5LTE5LjgzMzExNTE4LTQyLjc5ODY5MTctMS45MTMzNDE3My00LjY5NzY5MDYyIDExLjMwODc0OTIzIDYuOTU5MjEyNzQgMjIuNDQyNzc0NjMgMTAuOTYwNDkyNyAyOC4xODQ5Nzg4MyAyLjk1ODk4ODUgNC4wMDEzMzY2IDYuNzg1NjcyIDguNTI0MzcgOC44NzM2NTc4IDEzLjA0ODU2NTEgMS4yMTgwODg4IDIuOTU1Njc2MyAxLjU2NTE1NjggNi4wODkzMDIxIDIuNzgzMjQ1NiA5LjIyMDczMDMgMi43ODQzNDIxIDcuNjUzMzYyNCA1LjM5Mjk0MTMgMTYuMTc5ODk3OCA5LjA0NzE4OTUgMjMuMzEzODI5NCAxLjkxNDQ0NTEgMy42NTMxNTE3IDQuMDAxMzI1MyA3LjQ4MDkzNjIgNi40Mzc0ODkzIDEwLjc4NTg2IDEuMzkxNjE2IDEuOTEzMzM5NSAzLjgyNjY3ODkgMi43ODQzNDY2IDQuMzQ5NDk4OSA1LjkxNTc3MDMtMi40MzUwNTM5IDMuNDc5NTkyNy0yLjYwOTcwMDIgOC42OTkwMTU3LTQuMDAyNDMwOSAxMy4wNDg1NTU3LTYuMjYyODQyOSAxOS42NTk1LTMuODI2NjgzNCA0NC4wMTY4MDggNS4wNDU4NzMzIDU4LjQ1Njg5OCAyLjc4MzI0MTEgNC4zNDg0MDcgOS4zOTUzMzU5IDEzLjkxOTUzMSAxOC4yNjc5NjA2IDEwLjI2NTI5MiA3LjgyOTEwOTktMy4xMzE0MzggNi4wODkzMDIxLTEzLjA0ODU1NiA4LjM1MDgyODgtMjEuNzQ3NTcyLjUyMjgyOS0yLjA4OTA4Ny4xNzQ2NDE4LTMuNDc5NTkzIDEuMjE4MDg0Mi00Ljg3MTIyNy4wMDA5MDYyLjE3MzU0MSAwIC4zNDgxNzggMCAuMzQ4MTc4IDIuNDM2MTU5NSA0Ljg3MTIyNyA0Ljg3MTIyNjkgOS41Njg5NDkgNy4xMzI3NDQ1IDE0LjQ0MDA5NSA1LjM5NDA0NjkgOC41MjQzNjkgMTQuNzg4MzU0MyAxNy4zOTgwMTggMjIuNjE3NDEzOSAyMy4zMTM4NDcgNC4xNzcwNzggMy4xMzAzMDUgNy40ODIwMzMgOC41MjQzNzQgMTIuNzAxNDIgMTAuNDM4ODF2LS41MjI4MjloLS4zNDgxNzhjLTEuMDQ0NTQ0LTEuNTY2MjUzLTIuNjA5Ny0yLjI2MTUyNi00LjAwMTMyNS0zLjQ3OTU5Mi0zLjEzMTQyOS0zLjEzMTQyOS02LjYxMjEzNi02Ljk1OTIyNy05LjA0NzE5LTEwLjQzODgxMS03LjMwNjI4NTMtOS43NDM1OTUtMTMuNzQ0ODg5Mi0yMC41Mjk0NDYtMTkuNDg1OTgxNC0zMS42NjQ1ODUtMi43ODMyNDExLTUuMzkyOTQxLTUuMjE5NDAwNS0xMS4zMDg3NjItNy40ODA5MjcyLTE2LjcwMTY4NS0xLjA0NDU0MzQtMi4wODkwODItMS4wNDQ1NDM0LTUuMjE5NDA1LTIuNzg0MzQ2Ni02LjI2MjgzOC0yLjYwOTcwMDMgMy44MjY2NzQtNi40MzYzODM3IDcuMTMyNzQ0LTguMzUwODI4NyAxMS44MzA0NDQtMy4zMDM4NTQ1IDcuNDgwOTI3LTMuNjUzMTQyNyAxNi43MDE2OC00Ljg3MTIyNjkgMjYuMjcwNTMtLjY5NTI2ODkuMTc0NjUxLS4zNDgxODcyIDAtLjY5NjM2OTkuMzQ4MTkxLTUuNTY2NDg2Ni0xLjM5MjczLTcuNDgwOTMxNy03LjEzMjc0NC05LjU2ODk1MzgtMTIuMDA1MDg2LTUuMjE5NDA1LTEyLjM1MjEyNi02LjA4OTMwMi0zMi4xODYzNjgtMS41NjUxNTY4LTQ2LjQ1MTgxNiAxLjIxODA4NDMtMy42NTQyNDggNi40Mzc0ODkzLTE1LjEzNjUyMzIgNC4zNDk1MDM1LTE4LjYxNjEzNDEtMS4wNDM0NDI0LTMuMzA2MDc0Ni00LjUyNDE0OTgtNS4yMTk0MDUtNi40Mzc0ODkzLTcuODI5MTA1Mi0yLjI2MTUyNjctMy4zMDYwNzAxLTQuNjk3Njg2MS03LjQ4MDkzMTctNi4yNjI4NDI5LTExLjEzNTEzOTEtNC4xNzU5NzE3LTkuNzQyNDc2NS02LjI2Mzk0ODUtMjAuNTI5NDQ2Ni0xMC43ODY5NzQ2LTMwLjI3MzA0MjItMi4wODc5ODU4LTQuNTI0MTQ4OS01Ljc0MTEyODUtOS4yMjA3MzE3LTguNjk5MDE1OS0xMy4zOTU2MDkxLTMuMzA0OTU1NS00LjY5NzY3NzktNi45NTkyMTI4LTguMDAzNzQ4OS05LjU2ODk0OTI3LTEzLjU3MTM1NTctLjg2ODgwMDU3LTEuOTEzMzQxNy0yLjA4Nzk4NTg0LTUuMDQ0NzU5MS0uNjk2MzYwNzgtNy4xMzI3NTQuMzQ4MTgyNjYtMS4zOTE2MTE5IDEuMDQzNDM3ODgtMS45MTMzMzY3IDIuNDM2MTU5NDUtMi4yNjE1MjE2MyAyLjI2MTUyNjYtMS45MTQ0NDU0OCA4LjY5OTAxNTkuNTIxNzE1NzMgMTAuOTYwNDkyNyAxLjU2NTE2MTMzIDYuNDM3NDg5MyAyLjYwODU4ODggMTEuODMwNDQ0MiA1LjA0NTg3MjQgMTcuMjI0NDkxMSA4LjY5OTAxNSAyLjQzNTA1ODQgMS43Mzk4MDEgNS4wNDQ3NTg2IDUuMDQ1ODcxOSA4LjE3NjE4NjkgNS45MTU3NzI2aDMuNjU0MjQzN2M1LjU2NzU4NzYgMS4yMTY5ODE0IDExLjgzMDQ0NDEuMzQ4MTY1OSAxNy4wNDk4NDQ2IDEuOTEzMzQxMyA5LjIyMTgzNTkgMi45NTY3ODI4IDE3LjU3MTUzNjUgNy4zMDczODkxIDI1LjA1MzY0MTcgMTIuMDA1MDg2IDIyLjc5MjA2MDQgMTQuNDQwMDk3OCA0MS41ODA1ODM0IDM0Ljk3MDY2MzUgNTQuMjgyMDkzNCA1OS41MDE0OTQyIDIuMDg3OTg2IDQuMDAwMjI0NiAyLjk1Njc4MiA3LjY1NTU2NDYgNC44NzEyMjcgMTEuODMwNDQ0NiAzLjY1NDI0OCA4LjUyNTQ3NSA4LjE3NzI4OCAxNy4yMjQ0ODYgMTEuODMwNDQgMjUuNTc1MzI4IDMuNjUzMTQyIDguMTc2MTgzIDcuMTMyNzQ0IDE2LjUyODE0NCAxMi4zNTIxMzEgMjMuMzEzODMgMi42MTA4MDYgMy42NTIwNDYgMTMuMDQ4NTQyIDUuNTY2NDgyIDE3Ljc0NjE2NSA3LjQ4MDkyNyAzLjQ3OTYwNiAxLjU2NTE2NiA4Ljg3MzY4NSAyLjk1Nzg5NiAxMi4wMDUwODYgNC44NzEyMzEgNS45MTQ2ODkgMy42NTIwMzcgMTEuODMwNDY0IDcuODI5MTI0IDE3LjM5ODAzMyAxMS44MzA0NCAyLjc4NDMyOSAyLjA4Njg4OSAxMS40ODIyNTcgNi40Mzc0OTggMTIuMDA1MDg2IDkuOTE2MDA0eiIvPjxwYXRoIGQ9Im01OC4xODY0ODkyIDQzLjAyMjI2NDRjLTIuOTU3ODgyOSAwLTUuMDQ0NzU4Ny4zNDkyODgyLTcuMTMyNzQ0NS44NzEwMTYyIDAtLjAwMDkwNjIgMCAuMTc0NjQxOSAwIC4zNDgxODI3aC4zNDgxODcyYzEuMzkyNzI2MSAyLjc4MzI0MDEgMy44MjY2ODM1IDQuNjk3Njg1MiA1LjU2NjQ4MjEgNy4xMzI3MzQ1IDEuMzkyNzMwNiAyLjc4MzI0MTEgMi42MDk3MDAzIDUuNTY3NTk2NyA0LjAwMjQzMDkgOC4zNTE5NDM0LjE3MzUzMTctLjE3NDY0NjQuMzQ3MDcyNi0uMzQ4MTgyNy4zNDcwNzI2LS4zNDgxODI3IDIuNDM3Mjc0LTEuNzQwOTA4NyAzLjY1NDI0ODItNC41MjQxNDk4IDMuNjU0MjQ4Mi04LjY5OTAxNTktMS4wNDQ1NDgtMS4yMTgwODQzLTEuMjE4MDg4OC0yLjQzNjE2NC0yLjA4Nzk4NTktMy42NTQyNDgyLTEuMDQzNDQyNC0xLjc0MDkxMjQtMy4zMDYwNzQ2LTIuNjA5Njk5NC00LjY5NzY5MDYtNC4wMDI0M3oiLz48L2c+PC9zdmc+;" parent="8WT_DYF4QWscyHyzon4S-174" vertex="1">
          <mxGeometry x="497" y="144.76" width="71.26" height="70.16" as="geometry" />
        </mxCell>
        <mxCell id="8WT_DYF4QWscyHyzon4S-180" value="" style="edgeStyle=orthogonalEdgeStyle;rounded=0;orthogonalLoop=1;jettySize=auto;html=1;" parent="8WT_DYF4QWscyHyzon4S-174" source="8WT_DYF4QWscyHyzon4S-181" target="8WT_DYF4QWscyHyzon4S-177" edge="1">
          <mxGeometry relative="1" as="geometry" />
        </mxCell>
        <mxCell id="8WT_DYF4QWscyHyzon4S-181" value="" style="shape=image;verticalLabelPosition=bottom;labelBackgroundColor=default;verticalAlign=top;aspect=fixed;imageAspect=0;editableCssRules=.*;image=data:image/svg+xml,PHN2ZyB4bWxucz0iaHR0cDovL3d3dy53My5vcmcvMjAwMC9zdmciIHdpZHRoPSIxNiIgdmlld0JveD0iMCAwIDE2IDE2IiBoZWlnaHQ9IjE2Ij48cGF0aCBmaWxsPSJub25lIiBkPSJtMCAwaDE2djE2aC0xNnoiLz48cGF0aCBkPSJtOCA4YzIuMjA5IDAgNC0xLjc5MSA0LTRzLTEuNzkxLTQtNC00LTQgMS43OTEtNCA0IDEuNzkxIDQgNCA0em00IDJoLThjLTIuMjA5IDAtNCAxLjc5MS00IDR2MmgxNnYtMmMwLTIuMjA5LTEuNzkxLTQtNC00eiIvPjwvc3ZnPg==;" parent="8WT_DYF4QWscyHyzon4S-174" vertex="1">
          <mxGeometry x="67" y="149.83999999999992" width="60" height="60" as="geometry" />
        </mxCell>
        <mxCell id="8WT_DYF4QWscyHyzon4S-182" style="edgeStyle=orthogonalEdgeStyle;rounded=0;orthogonalLoop=1;jettySize=auto;html=1;" parent="8WT_DYF4QWscyHyzon4S-174" source="8WT_DYF4QWscyHyzon4S-178" target="8WT_DYF4QWscyHyzon4S-179" edge="1">
          <mxGeometry relative="1" as="geometry">
            <mxPoint x="347.15999999999997" y="170.66767441860452" as="sourcePoint" />
            <mxPoint x="384.18548999999996" y="169.16391999999996" as="targetPoint" />
            <Array as="points" />
          </mxGeometry>
        </mxCell>
        <mxCell id="8WT_DYF4QWscyHyzon4S-183" value="" style="group" parent="8WT_DYF4QWscyHyzon4S-174" vertex="1" connectable="0">
          <mxGeometry x="427" y="230" width="180" height="130" as="geometry" />
        </mxCell>
        <mxCell id="8WT_DYF4QWscyHyzon4S-184" value="" style="rounded=1;whiteSpace=wrap;html=1;" parent="8WT_DYF4QWscyHyzon4S-183" vertex="1">
          <mxGeometry y="30" width="167.92" height="100" as="geometry" />
        </mxCell>
        <mxCell id="8WT_DYF4QWscyHyzon4S-185" value="" style="group" parent="8WT_DYF4QWscyHyzon4S-183" vertex="1" connectable="0">
          <mxGeometry x="10" width="170" height="130" as="geometry" />
        </mxCell>
        <mxCell id="8WT_DYF4QWscyHyzon4S-186" value="Local Cache" style="text;html=1;align=center;verticalAlign=middle;resizable=0;points=[];autosize=1;strokeColor=none;fillColor=none;container=1;fontFamily=Do Hyeon;fontSource=https%3A%2F%2Ffonts.googleapis.com%2Fcss%3Ffamily%3DDo%2BHyeon;" parent="8WT_DYF4QWscyHyzon4S-185" vertex="1">
          <mxGeometry x="29.999999999999986" width="80" height="30" as="geometry" />
        </mxCell>
        <mxCell id="8WT_DYF4QWscyHyzon4S-188" value="수정 (서버 1대인 경우)" style="text;html=1;align=center;verticalAlign=middle;whiteSpace=wrap;rounded=0;fontFamily=Do Hyeon;fontSource=https%3A%2F%2Ffonts.googleapis.com%2Fcss%3Ffamily%3DDo%2BHyeon;fontSize=30;" parent="8WT_DYF4QWscyHyzon4S-174" vertex="1">
          <mxGeometry x="148" y="20" width="345.5" height="50" as="geometry" />
        </mxCell>
        <mxCell id="8WT_DYF4QWscyHyzon4S-189" style="edgeStyle=orthogonalEdgeStyle;rounded=0;orthogonalLoop=1;jettySize=auto;html=1;entryX=0.002;entryY=0.588;entryDx=0;entryDy=0;entryPerimeter=0;fillColor=#f8cecc;strokeColor=#FF0000;strokeWidth=3;fontColor=default;" parent="8WT_DYF4QWscyHyzon4S-174" source="8WT_DYF4QWscyHyzon4S-178" target="8WT_DYF4QWscyHyzon4S-184" edge="1">
          <mxGeometry relative="1" as="geometry" />
        </mxCell>
        <mxCell id="8WT_DYF4QWscyHyzon4S-190" value="Cache Evict" style="text;html=1;align=center;verticalAlign=middle;resizable=0;points=[];autosize=1;strokeColor=none;fillColor=none;fontFamily=Do Hyeon;fontSource=https%3A%2F%2Ffonts.googleapis.com%2Fcss%3Ffamily%3DDo%2BHyeon;fontColor=#FF0000;" parent="8WT_DYF4QWscyHyzon4S-174" vertex="1">
          <mxGeometry x="301" y="250" width="80" height="30" as="geometry" />
        </mxCell>
        <mxCell id="8WT_DYF4QWscyHyzon4S-245" value="" style="group" parent="1" vertex="1" connectable="0">
          <mxGeometry x="1990" y="1090" width="810" height="560" as="geometry" />
        </mxCell>
        <mxCell id="8WT_DYF4QWscyHyzon4S-246" value="" style="rounded=1;whiteSpace=wrap;html=1;" parent="8WT_DYF4QWscyHyzon4S-245" vertex="1">
          <mxGeometry width="810" height="560" as="geometry" />
        </mxCell>
        <mxCell id="8WT_DYF4QWscyHyzon4S-247" style="edgeStyle=orthogonalEdgeStyle;rounded=0;orthogonalLoop=1;jettySize=auto;html=1;" parent="8WT_DYF4QWscyHyzon4S-245" source="8WT_DYF4QWscyHyzon4S-248" target="8WT_DYF4QWscyHyzon4S-271" edge="1">
          <mxGeometry relative="1" as="geometry">
            <Array as="points">
              <mxPoint x="250" y="320" />
              <mxPoint x="250" y="180" />
            </Array>
          </mxGeometry>
        </mxCell>
        <mxCell id="8WT_DYF4QWscyHyzon4S-248" value="" style="shape=image;verticalLabelPosition=bottom;labelBackgroundColor=default;verticalAlign=top;aspect=fixed;imageAspect=0;editableCssRules=.*;image=data:image/svg+xml,PHN2ZyB4bWxucz0iaHR0cDovL3d3dy53My5vcmcvMjAwMC9zdmciIHZpZXdCb3g9IjAgMCAzMiAzMiI+PHBhdGggZmlsbD0iIzAxOTYzOSIgZD0ibTE1Ljk0OCAyaC4wNjVhMTAuNDE4IDEwLjQxOCAwIDAgMSAuOTcyLjUyOHE1LjQyOSAzLjEyMiAxMC44NTggNi4yNDZhLjc5Mi43OTIgMCAwIDEgLjQxNC43ODhjLS4wMDggNC4zODkgMCA4Ljc3Ny0uMDA1IDEzLjE2NGEuODEzLjgxMyAwIDAgMSAtLjM1Ni41MDdxLTUuNzczIDMuMzI0LTExLjU0NyA2LjY0NGEuNTg3LjU4NyAwIDAgMSAtLjY1Ny4wMzdxLTUuNzgtMy4zMTQtMTEuNTQ5LTYuNjRhLjcuNyAwIDAgMSAtLjQtLjY2NnEwLTYuNTgyIDAtMTMuMTYzYS42OTMuNjkzIDAgMCAxIC4zODctLjY3cTUuNDIyLTMuMTE4IDEwLjg0NC02LjI0Yy4zMjItLjE4NC42MzgtLjM3OS45NzQtLjUzNSIvPjxwYXRoIGZpbGw9IiNmZmYiIGQ9Im04Ljc2NyAxMC41MzhxMCA1LjQyOSAwIDEwLjg1OWExLjUwOSAxLjUwOSAwIDAgMCAuNDI3IDEuMDg3IDEuNjQ3IDEuNjQ3IDAgMCAwIDIuMDYuMjA2IDEuNTY0IDEuNTY0IDAgMCAwIC42ODUtMS4yOTNjMC0yLjYyLS4wMDUtNS4yNCAwLTcuODZxMy41ODMgNC4yOSA3LjE4MSA4LjU2OGEyLjgzMyAyLjgzMyAwIDAgMCAyLjYuNzgyIDEuNTYxIDEuNTYxIDAgMCAwIDEuMjUxLTEuMzcxcS4wMDgtNS41NDEgMC0xMS4wODFhMS41ODIgMS41ODIgMCAwIDAgLTMuMTUyIDBjMCAyLjY2Mi0uMDE2IDUuMzIxIDAgNy45ODItMi4zNDYtMi43NjYtNC42NjMtNS41NTYtNy04LjMzMmEyLjgxNyAyLjgxNyAwIDAgMCAtMi42NDktMS4wNTIgMS41NzkgMS41NzkgMCAwIDAgLTEuNDAzIDEuNTA1eiIvPjwvc3ZnPg==;" parent="8WT_DYF4QWscyHyzon4S-245" vertex="1">
          <mxGeometry x="140" y="290" width="60" height="60" as="geometry" />
        </mxCell>
        <mxCell id="8WT_DYF4QWscyHyzon4S-249" value="" style="shape=image;verticalLabelPosition=bottom;labelBackgroundColor=default;verticalAlign=top;aspect=fixed;imageAspect=0;editableCssRules=.*;image=data:image/svg+xml,PHN2ZyB4bWxucz0iaHR0cDovL3d3dy53My5vcmcvMjAwMC9zdmciIHdpZHRoPSIyNTYiIHZpZXdCb3g9IjAgMCAyNTYgMjUyIiBwcmVzZXJ2ZUFzcGVjdFJhdGlvPSJ4TWlkWU1pZCIgaGVpZ2h0PSIyNTIiPjxnIGZpbGw9IiMwMDU0NmIiPjxwYXRoIGQ9Im0yMzUuNjQ4Mjc2IDE5NC4yMTE2MzJjLTEzLjkxODQyNS0uMzQ3MDczLTI0LjcwNTQwNCAxLjA0NTY0LTMzLjc1MjY3MiA0Ljg3MjMzMi0yLjYwOTcwNSAxLjA0MzQ0Mi02Ljc4NTY3NyAxLjA0NDUzNC03LjEzMzgzNyA0LjM0OTQ5NCAxLjM5MjczMSAxLjM5MjczMSAxLjU2NjI2NyAzLjY1NDI1OCAyLjc4NDMyOSA1LjU2NzU5NyAyLjA4OTA5NiAzLjQ3ODQ5NiA1Ljc0MTE1MSA4LjE3NzI4OCA5LjA0NzIyMSAxMC42MTM0NTIgMy42NTMxNDQgMi43ODMyNDEgNy4zMDczNzQgNS41NjY0ODIgMTEuMTM0MDk5IDguMDAyNjQ2IDYuNzg1Njc2IDQuMTc1OTcyIDE0LjQ0MTIwOSA2LjYxMTAxNyAyMS4wNTIyNjEgMTAuNzg2OTcgMy44Mjg5IDIuNDMzOTQ0IDcuNjU0NDQ2IDUuNTY3NTg4IDExLjQ4MjI1NyA4LjE3NzI4OCAxLjkxNDQ3MyAxLjM5MDUxNSAzLjEzMTQ0NyAzLjY1MzEzNCA1LjU2NzYxNSA0LjUyMzAzNXYtLjUyMTcxNGMtMS4yMTgxMDctMS41NjYyNTMtMS41NjYyNjctMy44Mjc3OC0yLjc4MzI0MS01LjU2NzU4OC0xLjczODcxNi0xLjczOTgwMy0zLjQ3OTYwNi0zLjMwNjA2MS01LjIxOTQwOS01LjA0NTg2NC01LjA0NTg3NC02Ljc4NDU4LTExLjMwODc2Ni0xMi43MDAyOTYtMTguMDk0MzUyLTE3LjU3MTUzMi01LjU2NjQ4Mi0zLjgyNzc5OC0xNy43NDYxOTItOS4wNDcxOTgtMjAuMDA3NzgzLTE1LjQ4NDY5NyAwIDAtLjE3NDYyNC0uMTczNTQxLS4zNDgxNi0uMzQ3MDgxIDMuODI3NzY3LS4zNDgxODMgOC4zNTA4MTItMS43Mzk3OSAxMi4wMDUwODctMi43ODQzNDcgNS45MTU3NzUtMS41NjYyNDkgMTEuMzA4NzY2LTEuMjE4MDc1IDE3LjM5Nzk4Ni0yLjc4MzI0MSAyLjc4MzI0Mi0uNjk2MzUyIDUuNTY3NjE1LTEuNTY2MjUzIDguMzUwODU2LTIuNDM2MTZ2LTEuNTY1MTQ3Yy0zLjEzMDMxMy0zLjEzMjU0My01LjM5Mjk0NS03LjMwNzM5MS04LjY5OTAxNi0xMC4yNjUyOTctOC44NzI1NTItNy42NTY2NjUtMTguNjE2MTM4LTE1LjEzNjUwOS0yOC43MDY3NTMtMjEuMzk5Mzg0LTUuMzk0MDc5LTMuNDc5NjAyLTEyLjM1MzI5Mi01Ljc0MjI0My0xOC4wOTQzNTItOC42OTkwMjUtMi4wODY4NzYtMS4wNDU2NC01LjU2NzYxNS0xLjU2NjI0OS02Ljc4NDU4OS0zLjMwNjA3LTMuMTMyNTIxLTMuODI3Nzc2LTQuODcyMzI0LTguODcyNTM5LTcuMTMzODQxLTEzLjM5NjcyLTUuMDQzNjUzLTkuNTY5OTc0LTkuOTE3MTE5LTIwLjE4MTI3My0xNC4yNjY1NzItMzAuMjcxOTE0LTMuMTMwMzE0LTYuNzg1NjcyLTUuMDQ0NzU5LTEzLjU3MTM3NTgtOC44NzI1NDgtMTkuODM0MTQxNy0xNy45MTk2OTYtMjkuNTc2NjE3OS0zNy40MDU3NjctNDcuNDk2NDEzMS02Ny4zMzA1NTQtNjUuMDY5MDY1OS02LjQzNzQ4NDgtMy42NTMxNTIyLTE0LjA5MTkzMDEtNS4yMTk0MDMzLTIyLjI2OTI0NTItNy4xMzI3NDUtNC4zNDgzOTc5LS4xNzQ2NDQxLTguNjk5MDE1OS0uNTIxNzE1OC0xMy4wNDg1NTU2LS42OTYzNTk5LTIuNzgzMjQxMS0xLjIxODA5NDYtNS41Njc1ODc3LTQuNTIzMDQzMy04LjAwMzc2MDctNi4wODkzMDg0LTkuOTE0ODcxLTYuMjYzOTQ4LTM1LjQ5MTMyMzQ5LTE5LjgzMzExNTE4LTQyLjc5ODY5MTctMS45MTMzNDE3My00LjY5NzY5MDYyIDExLjMwODc0OTIzIDYuOTU5MjEyNzQgMjIuNDQyNzc0NjMgMTAuOTYwNDkyNyAyOC4xODQ5Nzg4MyAyLjk1ODk4ODUgNC4wMDEzMzY2IDYuNzg1NjcyIDguNTI0MzcgOC44NzM2NTc4IDEzLjA0ODU2NTEgMS4yMTgwODg4IDIuOTU1Njc2MyAxLjU2NTE1NjggNi4wODkzMDIxIDIuNzgzMjQ1NiA5LjIyMDczMDMgMi43ODQzNDIxIDcuNjUzMzYyNCA1LjM5Mjk0MTMgMTYuMTc5ODk3OCA5LjA0NzE4OTUgMjMuMzEzODI5NCAxLjkxNDQ0NTEgMy42NTMxNTE3IDQuMDAxMzI1MyA3LjQ4MDkzNjIgNi40Mzc0ODkzIDEwLjc4NTg2IDEuMzkxNjE2IDEuOTEzMzM5NSAzLjgyNjY3ODkgMi43ODQzNDY2IDQuMzQ5NDk4OSA1LjkxNTc3MDMtMi40MzUwNTM5IDMuNDc5NTkyNy0yLjYwOTcwMDIgOC42OTkwMTU3LTQuMDAyNDMwOSAxMy4wNDg1NTU3LTYuMjYyODQyOSAxOS42NTk1LTMuODI2NjgzNCA0NC4wMTY4MDggNS4wNDU4NzMzIDU4LjQ1Njg5OCAyLjc4MzI0MTEgNC4zNDg0MDcgOS4zOTUzMzU5IDEzLjkxOTUzMSAxOC4yNjc5NjA2IDEwLjI2NTI5MiA3LjgyOTEwOTktMy4xMzE0MzggNi4wODkzMDIxLTEzLjA0ODU1NiA4LjM1MDgyODgtMjEuNzQ3NTcyLjUyMjgyOS0yLjA4OTA4Ny4xNzQ2NDE4LTMuNDc5NTkzIDEuMjE4MDg0Mi00Ljg3MTIyNy4wMDA5MDYyLjE3MzU0MSAwIC4zNDgxNzggMCAuMzQ4MTc4IDIuNDM2MTU5NSA0Ljg3MTIyNyA0Ljg3MTIyNjkgOS41Njg5NDkgNy4xMzI3NDQ1IDE0LjQ0MDA5NSA1LjM5NDA0NjkgOC41MjQzNjkgMTQuNzg4MzU0MyAxNy4zOTgwMTggMjIuNjE3NDEzOSAyMy4zMTM4NDcgNC4xNzcwNzggMy4xMzAzMDUgNy40ODIwMzMgOC41MjQzNzQgMTIuNzAxNDIgMTAuNDM4ODF2LS41MjI4MjloLS4zNDgxNzhjLTEuMDQ0NTQ0LTEuNTY2MjUzLTIuNjA5Ny0yLjI2MTUyNi00LjAwMTMyNS0zLjQ3OTU5Mi0zLjEzMTQyOS0zLjEzMTQyOS02LjYxMjEzNi02Ljk1OTIyNy05LjA0NzE5LTEwLjQzODgxMS03LjMwNjI4NTMtOS43NDM1OTUtMTMuNzQ0ODg5Mi0yMC41Mjk0NDYtMTkuNDg1OTgxNC0zMS42NjQ1ODUtMi43ODMyNDExLTUuMzkyOTQxLTUuMjE5NDAwNS0xMS4zMDg3NjItNy40ODA5MjcyLTE2LjcwMTY4NS0xLjA0NDU0MzQtMi4wODkwODItMS4wNDQ1NDM0LTUuMjE5NDA1LTIuNzg0MzQ2Ni02LjI2MjgzOC0yLjYwOTcwMDMgMy44MjY2NzQtNi40MzYzODM3IDcuMTMyNzQ0LTguMzUwODI4NyAxMS44MzA0NDQtMy4zMDM4NTQ1IDcuNDgwOTI3LTMuNjUzMTQyNyAxNi43MDE2OC00Ljg3MTIyNjkgMjYuMjcwNTMtLjY5NTI2ODkuMTc0NjUxLS4zNDgxODcyIDAtLjY5NjM2OTkuMzQ4MTkxLTUuNTY2NDg2Ni0xLjM5MjczLTcuNDgwOTMxNy03LjEzMjc0NC05LjU2ODk1MzgtMTIuMDA1MDg2LTUuMjE5NDA1LTEyLjM1MjEyNi02LjA4OTMwMi0zMi4xODYzNjgtMS41NjUxNTY4LTQ2LjQ1MTgxNiAxLjIxODA4NDMtMy42NTQyNDggNi40Mzc0ODkzLTE1LjEzNjUyMzIgNC4zNDk1MDM1LTE4LjYxNjEzNDEtMS4wNDM0NDI0LTMuMzA2MDc0Ni00LjUyNDE0OTgtNS4yMTk0MDUtNi40Mzc0ODkzLTcuODI5MTA1Mi0yLjI2MTUyNjctMy4zMDYwNzAxLTQuNjk3Njg2MS03LjQ4MDkzMTctNi4yNjI4NDI5LTExLjEzNTEzOTEtNC4xNzU5NzE3LTkuNzQyNDc2NS02LjI2Mzk0ODUtMjAuNTI5NDQ2Ni0xMC43ODY5NzQ2LTMwLjI3MzA0MjItMi4wODc5ODU4LTQuNTI0MTQ4OS01Ljc0MTEyODUtOS4yMjA3MzE3LTguNjk5MDE1OS0xMy4zOTU2MDkxLTMuMzA0OTU1NS00LjY5NzY3NzktNi45NTkyMTI4LTguMDAzNzQ4OS05LjU2ODk0OTI3LTEzLjU3MTM1NTctLjg2ODgwMDU3LTEuOTEzMzQxNy0yLjA4Nzk4NTg0LTUuMDQ0NzU5MS0uNjk2MzYwNzgtNy4xMzI3NTQuMzQ4MTgyNjYtMS4zOTE2MTE5IDEuMDQzNDM3ODgtMS45MTMzMzY3IDIuNDM2MTU5NDUtMi4yNjE1MjE2MyAyLjI2MTUyNjYtMS45MTQ0NDU0OCA4LjY5OTAxNTkuNTIxNzE1NzMgMTAuOTYwNDkyNyAxLjU2NTE2MTMzIDYuNDM3NDg5MyAyLjYwODU4ODggMTEuODMwNDQ0MiA1LjA0NTg3MjQgMTcuMjI0NDkxMSA4LjY5OTAxNSAyLjQzNTA1ODQgMS43Mzk4MDEgNS4wNDQ3NTg2IDUuMDQ1ODcxOSA4LjE3NjE4NjkgNS45MTU3NzI2aDMuNjU0MjQzN2M1LjU2NzU4NzYgMS4yMTY5ODE0IDExLjgzMDQ0NDEuMzQ4MTY1OSAxNy4wNDk4NDQ2IDEuOTEzMzQxMyA5LjIyMTgzNTkgMi45NTY3ODI4IDE3LjU3MTUzNjUgNy4zMDczODkxIDI1LjA1MzY0MTcgMTIuMDA1MDg2IDIyLjc5MjA2MDQgMTQuNDQwMDk3OCA0MS41ODA1ODM0IDM0Ljk3MDY2MzUgNTQuMjgyMDkzNCA1OS41MDE0OTQyIDIuMDg3OTg2IDQuMDAwMjI0NiAyLjk1Njc4MiA3LjY1NTU2NDYgNC44NzEyMjcgMTEuODMwNDQ0NiAzLjY1NDI0OCA4LjUyNTQ3NSA4LjE3NzI4OCAxNy4yMjQ0ODYgMTEuODMwNDQgMjUuNTc1MzI4IDMuNjUzMTQyIDguMTc2MTgzIDcuMTMyNzQ0IDE2LjUyODE0NCAxMi4zNTIxMzEgMjMuMzEzODMgMi42MTA4MDYgMy42NTIwNDYgMTMuMDQ4NTQyIDUuNTY2NDgyIDE3Ljc0NjE2NSA3LjQ4MDkyNyAzLjQ3OTYwNiAxLjU2NTE2NiA4Ljg3MzY4NSAyLjk1Nzg5NiAxMi4wMDUwODYgNC44NzEyMzEgNS45MTQ2ODkgMy42NTIwMzcgMTEuODMwNDY0IDcuODI5MTI0IDE3LjM5ODAzMyAxMS44MzA0NCAyLjc4NDMyOSAyLjA4Njg4OSAxMS40ODIyNTcgNi40Mzc0OTggMTIuMDA1MDg2IDkuOTE2MDA0eiIvPjxwYXRoIGQ9Im01OC4xODY0ODkyIDQzLjAyMjI2NDRjLTIuOTU3ODgyOSAwLTUuMDQ0NzU4Ny4zNDkyODgyLTcuMTMyNzQ0NS44NzEwMTYyIDAtLjAwMDkwNjIgMCAuMTc0NjQxOSAwIC4zNDgxODI3aC4zNDgxODcyYzEuMzkyNzI2MSAyLjc4MzI0MDEgMy44MjY2ODM1IDQuNjk3Njg1MiA1LjU2NjQ4MjEgNy4xMzI3MzQ1IDEuMzkyNzMwNiAyLjc4MzI0MTEgMi42MDk3MDAzIDUuNTY3NTk2NyA0LjAwMjQzMDkgOC4zNTE5NDM0LjE3MzUzMTctLjE3NDY0NjQuMzQ3MDcyNi0uMzQ4MTgyNy4zNDcwNzI2LS4zNDgxODI3IDIuNDM3Mjc0LTEuNzQwOTA4NyAzLjY1NDI0ODItNC41MjQxNDk4IDMuNjU0MjQ4Mi04LjY5OTAxNTktMS4wNDQ1NDgtMS4yMTgwODQzLTEuMjE4MDg4OC0yLjQzNjE2NC0yLjA4Nzk4NTktMy42NTQyNDgyLTEuMDQzNDQyNC0xLjc0MDkxMjQtMy4zMDYwNzQ2LTIuNjA5Njk5NC00LjY5NzY5MDYtNC4wMDI0M3oiLz48L2c+PC9zdmc+;" parent="8WT_DYF4QWscyHyzon4S-245" vertex="1">
          <mxGeometry x="690" y="294.9200000000001" width="71.26" height="70.16" as="geometry" />
        </mxCell>
        <mxCell id="8WT_DYF4QWscyHyzon4S-250" value="" style="edgeStyle=orthogonalEdgeStyle;rounded=0;orthogonalLoop=1;jettySize=auto;html=1;" parent="8WT_DYF4QWscyHyzon4S-245" source="8WT_DYF4QWscyHyzon4S-251" target="8WT_DYF4QWscyHyzon4S-248" edge="1">
          <mxGeometry relative="1" as="geometry" />
        </mxCell>
        <mxCell id="8WT_DYF4QWscyHyzon4S-251" value="" style="shape=image;verticalLabelPosition=bottom;labelBackgroundColor=default;verticalAlign=top;aspect=fixed;imageAspect=0;editableCssRules=.*;image=data:image/svg+xml,PHN2ZyB4bWxucz0iaHR0cDovL3d3dy53My5vcmcvMjAwMC9zdmciIHdpZHRoPSIxNiIgdmlld0JveD0iMCAwIDE2IDE2IiBoZWlnaHQ9IjE2Ij48cGF0aCBmaWxsPSJub25lIiBkPSJtMCAwaDE2djE2aC0xNnoiLz48cGF0aCBkPSJtOCA4YzIuMjA5IDAgNC0xLjc5MSA0LTRzLTEuNzkxLTQtNC00LTQgMS43OTEtNCA0IDEuNzkxIDQgNCA0em00IDJoLThjLTIuMjA5IDAtNCAxLjc5MS00IDR2MmgxNnYtMmMwLTIuMjA5LTEuNzkxLTQtNC00eiIvPjwvc3ZnPg==;" parent="8WT_DYF4QWscyHyzon4S-245" vertex="1">
          <mxGeometry x="60" y="290" width="60" height="60" as="geometry" />
        </mxCell>
        <mxCell id="8WT_DYF4QWscyHyzon4S-252" value="" style="group" parent="8WT_DYF4QWscyHyzon4S-245" vertex="1" connectable="0">
          <mxGeometry x="430" y="110" width="180" height="130" as="geometry" />
        </mxCell>
        <mxCell id="8WT_DYF4QWscyHyzon4S-253" value="" style="rounded=1;whiteSpace=wrap;html=1;" parent="8WT_DYF4QWscyHyzon4S-252" vertex="1">
          <mxGeometry y="30" width="167.92" height="100" as="geometry" />
        </mxCell>
        <mxCell id="8WT_DYF4QWscyHyzon4S-254" value="" style="group" parent="8WT_DYF4QWscyHyzon4S-252" vertex="1" connectable="0">
          <mxGeometry x="10" width="170" height="130" as="geometry" />
        </mxCell>
        <mxCell id="8WT_DYF4QWscyHyzon4S-255" value="Local Cache 1" style="text;html=1;align=center;verticalAlign=middle;resizable=0;points=[];autosize=1;strokeColor=none;fillColor=none;container=1;fontFamily=Do Hyeon;fontSource=https%3A%2F%2Ffonts.googleapis.com%2Fcss%3Ffamily%3DDo%2BHyeon;" parent="8WT_DYF4QWscyHyzon4S-254" vertex="1">
          <mxGeometry x="24.999999999999986" width="90" height="30" as="geometry" />
        </mxCell>
        <mxCell id="8WT_DYF4QWscyHyzon4S-256" value="동기화 작업 후 (동기화 설정)" style="text;html=1;align=center;verticalAlign=middle;whiteSpace=wrap;rounded=0;fontFamily=Do Hyeon;fontSource=https%3A%2F%2Ffonts.googleapis.com%2Fcss%3Ffamily%3DDo%2BHyeon;fontSize=30;" parent="8WT_DYF4QWscyHyzon4S-245" vertex="1">
          <mxGeometry x="276.5" y="20" width="353.5" height="50" as="geometry" />
        </mxCell>
        <mxCell id="8WT_DYF4QWscyHyzon4S-257" style="edgeStyle=orthogonalEdgeStyle;rounded=0;orthogonalLoop=1;jettySize=auto;html=1;entryX=0.007;entryY=0.569;entryDx=0;entryDy=0;entryPerimeter=0;" parent="8WT_DYF4QWscyHyzon4S-245" edge="1">
          <mxGeometry relative="1" as="geometry">
            <mxPoint x="199.58000000000004" y="319.4303092783507" as="sourcePoint" />
            <mxPoint x="301" y="320.55999999999995" as="targetPoint" />
            <Array as="points">
              <mxPoint x="299.5799999999999" y="319.4200000000001" />
              <mxPoint x="299.5799999999999" y="320.4200000000001" />
            </Array>
          </mxGeometry>
        </mxCell>
        <mxCell id="8WT_DYF4QWscyHyzon4S-258" style="edgeStyle=orthogonalEdgeStyle;rounded=0;orthogonalLoop=1;jettySize=auto;html=1;entryX=0.007;entryY=0.631;entryDx=0;entryDy=0;entryPerimeter=0;" parent="8WT_DYF4QWscyHyzon4S-245" source="8WT_DYF4QWscyHyzon4S-248" target="8WT_DYF4QWscyHyzon4S-274" edge="1">
          <mxGeometry relative="1" as="geometry" />
        </mxCell>
        <mxCell id="8WT_DYF4QWscyHyzon4S-259" value="Spring Server 2" style="text;html=1;align=center;verticalAlign=middle;resizable=0;points=[];autosize=1;strokeColor=none;fillColor=none;fontFamily=Do Hyeon;fontSource=https%3A%2F%2Ffonts.googleapis.com%2Fcss%3Ffamily%3DDo%2BHyeon;fontSize=15;" parent="8WT_DYF4QWscyHyzon4S-245" vertex="1">
          <mxGeometry x="280" y="350" width="120" height="30" as="geometry" />
        </mxCell>
        <mxCell id="8WT_DYF4QWscyHyzon4S-260" value="Spring Server 3" style="text;html=1;align=center;verticalAlign=middle;resizable=0;points=[];autosize=1;strokeColor=none;fillColor=none;fontFamily=Do Hyeon;fontSource=https%3A%2F%2Ffonts.googleapis.com%2Fcss%3Ffamily%3DDo%2BHyeon;fontSize=15;" parent="8WT_DYF4QWscyHyzon4S-245" vertex="1">
          <mxGeometry x="280" y="505" width="120" height="30" as="geometry" />
        </mxCell>
        <mxCell id="8WT_DYF4QWscyHyzon4S-261" value="" style="group" parent="8WT_DYF4QWscyHyzon4S-245" vertex="1" connectable="0">
          <mxGeometry x="430" y="250" width="180" height="130" as="geometry" />
        </mxCell>
        <mxCell id="8WT_DYF4QWscyHyzon4S-262" value="" style="rounded=1;whiteSpace=wrap;html=1;" parent="8WT_DYF4QWscyHyzon4S-261" vertex="1">
          <mxGeometry y="30" width="167.92" height="100" as="geometry" />
        </mxCell>
        <mxCell id="8WT_DYF4QWscyHyzon4S-263" value="" style="group" parent="8WT_DYF4QWscyHyzon4S-261" vertex="1" connectable="0">
          <mxGeometry x="10" width="170" height="130" as="geometry" />
        </mxCell>
        <mxCell id="8WT_DYF4QWscyHyzon4S-264" value="Local Cache 2" style="text;html=1;align=center;verticalAlign=middle;resizable=0;points=[];autosize=1;strokeColor=none;fillColor=none;container=1;fontFamily=Do Hyeon;fontSource=https%3A%2F%2Ffonts.googleapis.com%2Fcss%3Ffamily%3DDo%2BHyeon;" parent="8WT_DYF4QWscyHyzon4S-263" vertex="1">
          <mxGeometry x="24.999999999999986" width="90" height="30" as="geometry" />
        </mxCell>
        <mxCell id="8WT_DYF4QWscyHyzon4S-266" value="" style="group" parent="8WT_DYF4QWscyHyzon4S-245" vertex="1" connectable="0">
          <mxGeometry x="430" y="390" width="180" height="130" as="geometry" />
        </mxCell>
        <mxCell id="8WT_DYF4QWscyHyzon4S-267" value="" style="rounded=1;whiteSpace=wrap;html=1;" parent="8WT_DYF4QWscyHyzon4S-266" vertex="1">
          <mxGeometry y="30" width="167.92" height="100" as="geometry" />
        </mxCell>
        <mxCell id="8WT_DYF4QWscyHyzon4S-268" value="" style="group" parent="8WT_DYF4QWscyHyzon4S-266" vertex="1" connectable="0">
          <mxGeometry x="10" width="170" height="130" as="geometry" />
        </mxCell>
        <mxCell id="8WT_DYF4QWscyHyzon4S-269" value="Local Cache 3" style="text;html=1;align=center;verticalAlign=middle;resizable=0;points=[];autosize=1;strokeColor=none;fillColor=none;container=1;fontFamily=Do Hyeon;fontSource=https%3A%2F%2Ffonts.googleapis.com%2Fcss%3Ffamily%3DDo%2BHyeon;" parent="8WT_DYF4QWscyHyzon4S-268" vertex="1">
          <mxGeometry x="24.999999999999986" width="90" height="30" as="geometry" />
        </mxCell>
        <mxCell id="8WT_DYF4QWscyHyzon4S-271" value="" style="shape=image;verticalLabelPosition=bottom;labelBackgroundColor=default;verticalAlign=top;aspect=fixed;imageAspect=0;editableCssRules=.*;image=data:image/svg+xml,PHN2ZyB4bWxucz0iaHR0cDovL3d3dy53My5vcmcvMjAwMC9zdmciIHZpZXdCb3g9IjAgMCAzMiAzMiIgaGVpZ2h0PSIzMiIgd2lkdGg9IjMyIj48ZyBmaWxsLXJ1bGU9ImV2ZW5vZGQiIGZpbGw9Im5vbmUiPjxwYXRoIGQ9Ik0wIDBoMzJ2MzJIMHoiLz48cGF0aCBkPSJNNS40NjYgMjcuOTkzYTEuMzY0IDEuMzY0IDAgMTAtLjA4Ny0uMDc2bC0uMjY2LS4yMzRDMS45NzIgMjQuNzYyIDAgMjAuNTk3IDAgMTUuOTc4IDAgNy4xNjggNy4xNjggMCAxNS45OCAwYzQuNDggMCA4LjUzIDEuODU3IDExLjQzNSA0LjgzNmExNC42ODEgMTQuNjgxIDAgMDAxLjctMy4wMTVjMi4wMzYgNi4xMTggMy4yMzMgMTEuMjYgMi43OTUgMTUuMzEtLjU5MiA4LjI3NC03LjUwOCAxNC44My0xNS45MyAxNC44M2ExNS45MDMgMTUuOTAzIDAgMDEtMTAuMjc2LTMuNzU3bC0uMjM4LS4yMXptMjMuNTgtNC45ODJjNC4wMS01LjMzNiAxLjc3NS0xMy45NjUtLjA4NS0xOS40OC0xLjY1NyAzLjQ1My01LjczOCA2LjA5NC05LjI2MiA2LjkzLTMuMzAzLjc4OC02LjIyNi4xNDItOS4yODMgMS4zMTgtNi45NyAyLjY4LTYuODYgMTAuOTkyLTMuMDIgMTIuODYuMDAyIDAgLjIzLjEyNC4yMjcuMTIgMC0uMDAyIDUuNjQ0LTEuMTIyIDguNzY0LTIuMjc0IDQuNTYtMS42ODQgOS41NjYtNS44MzUgMTEuMjEzLTEwLjY1Ny0uODc3IDUuMDE1LTUuMTgyIDkuODQtOS41MDcgMTIuMDU2LTIuMzAyIDEuMTgyLTQuMDkyIDEuNDQ1LTcuODggMi43NTYtLjQ2NC4xNTgtLjgyOC4zMTQtLjgyOC4zMTQuOTYtLjE2IDEuOTE3LS4yMTIgMS45MTctLjIxMiA1LjM5My0uMjU1IDEzLjgwNyAxLjUxNiAxNy43NDUtMy43M3oiIGZpbGw9IiM3MEFENTEiLz48L2c+PC9zdmc+;" parent="8WT_DYF4QWscyHyzon4S-245" vertex="1">
          <mxGeometry x="301" y="149.83999999999992" width="60" height="60" as="geometry" />
        </mxCell>
        <mxCell id="8WT_DYF4QWscyHyzon4S-272" value="" style="shape=image;verticalLabelPosition=bottom;labelBackgroundColor=default;verticalAlign=top;aspect=fixed;imageAspect=0;editableCssRules=.*;image=data:image/svg+xml,PHN2ZyB4bWxucz0iaHR0cDovL3d3dy53My5vcmcvMjAwMC9zdmciIHZpZXdCb3g9IjAgMCAzMiAzMiIgaGVpZ2h0PSIzMiIgd2lkdGg9IjMyIj48ZyBmaWxsLXJ1bGU9ImV2ZW5vZGQiIGZpbGw9Im5vbmUiPjxwYXRoIGQ9Ik0wIDBoMzJ2MzJIMHoiLz48cGF0aCBkPSJNNS40NjYgMjcuOTkzYTEuMzY0IDEuMzY0IDAgMTAtLjA4Ny0uMDc2bC0uMjY2LS4yMzRDMS45NzIgMjQuNzYyIDAgMjAuNTk3IDAgMTUuOTc4IDAgNy4xNjggNy4xNjggMCAxNS45OCAwYzQuNDggMCA4LjUzIDEuODU3IDExLjQzNSA0LjgzNmExNC42ODEgMTQuNjgxIDAgMDAxLjctMy4wMTVjMi4wMzYgNi4xMTggMy4yMzMgMTEuMjYgMi43OTUgMTUuMzEtLjU5MiA4LjI3NC03LjUwOCAxNC44My0xNS45MyAxNC44M2ExNS45MDMgMTUuOTAzIDAgMDEtMTAuMjc2LTMuNzU3bC0uMjM4LS4yMXptMjMuNTgtNC45ODJjNC4wMS01LjMzNiAxLjc3NS0xMy45NjUtLjA4NS0xOS40OC0xLjY1NyAzLjQ1My01LjczOCA2LjA5NC05LjI2MiA2LjkzLTMuMzAzLjc4OC02LjIyNi4xNDItOS4yODMgMS4zMTgtNi45NyAyLjY4LTYuODYgMTAuOTkyLTMuMDIgMTIuODYuMDAyIDAgLjIzLjEyNC4yMjcuMTIgMC0uMDAyIDUuNjQ0LTEuMTIyIDguNzY0LTIuMjc0IDQuNTYtMS42ODQgOS41NjYtNS44MzUgMTEuMjEzLTEwLjY1Ny0uODc3IDUuMDE1LTUuMTgyIDkuODQtOS41MDcgMTIuMDU2LTIuMzAyIDEuMTgyLTQuMDkyIDEuNDQ1LTcuODggMi43NTYtLjQ2NC4xNTgtLjgyOC4zMTQtLjgyOC4zMTQuOTYtLjE2IDEuOTE3LS4yMTIgMS45MTctLjIxMiA1LjM5My0uMjU1IDEzLjgwNyAxLjUxNiAxNy43NDUtMy43M3oiIGZpbGw9IiM3MEFENTEiLz48L2c+PC9zdmc+;" parent="8WT_DYF4QWscyHyzon4S-245" vertex="1">
          <mxGeometry x="301" y="287" width="60" height="60" as="geometry" />
        </mxCell>
        <mxCell id="8WT_DYF4QWscyHyzon4S-273" style="edgeStyle=orthogonalEdgeStyle;rounded=0;orthogonalLoop=1;jettySize=auto;html=1;entryX=0;entryY=0.5;entryDx=0;entryDy=0;" parent="8WT_DYF4QWscyHyzon4S-245" source="8WT_DYF4QWscyHyzon4S-274" target="8WT_DYF4QWscyHyzon4S-267" edge="1">
          <mxGeometry relative="1" as="geometry" />
        </mxCell>
        <mxCell id="8WT_DYF4QWscyHyzon4S-274" value="" style="shape=image;verticalLabelPosition=bottom;labelBackgroundColor=default;verticalAlign=top;aspect=fixed;imageAspect=0;editableCssRules=.*;image=data:image/svg+xml,PHN2ZyB4bWxucz0iaHR0cDovL3d3dy53My5vcmcvMjAwMC9zdmciIHZpZXdCb3g9IjAgMCAzMiAzMiIgaGVpZ2h0PSIzMiIgd2lkdGg9IjMyIj48ZyBmaWxsLXJ1bGU9ImV2ZW5vZGQiIGZpbGw9Im5vbmUiPjxwYXRoIGQ9Ik0wIDBoMzJ2MzJIMHoiLz48cGF0aCBkPSJNNS40NjYgMjcuOTkzYTEuMzY0IDEuMzY0IDAgMTAtLjA4Ny0uMDc2bC0uMjY2LS4yMzRDMS45NzIgMjQuNzYyIDAgMjAuNTk3IDAgMTUuOTc4IDAgNy4xNjggNy4xNjggMCAxNS45OCAwYzQuNDggMCA4LjUzIDEuODU3IDExLjQzNSA0LjgzNmExNC42ODEgMTQuNjgxIDAgMDAxLjctMy4wMTVjMi4wMzYgNi4xMTggMy4yMzMgMTEuMjYgMi43OTUgMTUuMzEtLjU5MiA4LjI3NC03LjUwOCAxNC44My0xNS45MyAxNC44M2ExNS45MDMgMTUuOTAzIDAgMDEtMTAuMjc2LTMuNzU3bC0uMjM4LS4yMXptMjMuNTgtNC45ODJjNC4wMS01LjMzNiAxLjc3NS0xMy45NjUtLjA4NS0xOS40OC0xLjY1NyAzLjQ1My01LjczOCA2LjA5NC05LjI2MiA2LjkzLTMuMzAzLjc4OC02LjIyNi4xNDItOS4yODMgMS4zMTgtNi45NyAyLjY4LTYuODYgMTAuOTkyLTMuMDIgMTIuODYuMDAyIDAgLjIzLjEyNC4yMjcuMTIgMC0uMDAyIDUuNjQ0LTEuMTIyIDguNzY0LTIuMjc0IDQuNTYtMS42ODQgOS41NjYtNS44MzUgMTEuMjEzLTEwLjY1Ny0uODc3IDUuMDE1LTUuMTgyIDkuODQtOS41MDcgMTIuMDU2LTIuMzAyIDEuMTgyLTQuMDkyIDEuNDQ1LTcuODggMi43NTYtLjQ2NC4xNTgtLjgyOC4zMTQtLjgyOC4zMTQuOTYtLjE2IDEuOTE3LS4yMTIgMS45MTctLjIxMiA1LjM5My0uMjU1IDEzLjgwNyAxLjUxNiAxNy43NDUtMy43M3oiIGZpbGw9IiM3MEFENTEiLz48L2c+PC9zdmc+;" parent="8WT_DYF4QWscyHyzon4S-245" vertex="1">
          <mxGeometry x="301" y="440" width="60" height="60" as="geometry" />
        </mxCell>
        <mxCell id="8WT_DYF4QWscyHyzon4S-275" value="Spring Server 1" style="text;html=1;align=center;verticalAlign=middle;resizable=0;points=[];autosize=1;strokeColor=none;fillColor=none;fontFamily=Do Hyeon;fontSource=https%3A%2F%2Ffonts.googleapis.com%2Fcss%3Ffamily%3DDo%2BHyeon;fontSize=15;" parent="8WT_DYF4QWscyHyzon4S-245" vertex="1">
          <mxGeometry x="280" y="209.83999999999992" width="120" height="30" as="geometry" />
        </mxCell>
        <mxCell id="8WT_DYF4QWscyHyzon4S-276" style="edgeStyle=orthogonalEdgeStyle;rounded=0;orthogonalLoop=1;jettySize=auto;html=1;strokeWidth=1;strokeColor=#000000;" parent="8WT_DYF4QWscyHyzon4S-245" source="8WT_DYF4QWscyHyzon4S-271" edge="1">
          <mxGeometry relative="1" as="geometry">
            <mxPoint x="430" y="180" as="targetPoint" />
          </mxGeometry>
        </mxCell>
        <mxCell id="8WT_DYF4QWscyHyzon4S-277" style="edgeStyle=orthogonalEdgeStyle;rounded=0;orthogonalLoop=1;jettySize=auto;html=1;entryX=-0.007;entryY=0.37;entryDx=0;entryDy=0;entryPerimeter=0;" parent="8WT_DYF4QWscyHyzon4S-245" source="8WT_DYF4QWscyHyzon4S-272" target="8WT_DYF4QWscyHyzon4S-262" edge="1">
          <mxGeometry relative="1" as="geometry" />
        </mxCell>
        <mxCell id="8WT_DYF4QWscyHyzon4S-278" style="edgeStyle=orthogonalEdgeStyle;rounded=0;orthogonalLoop=1;jettySize=auto;html=1;" parent="8WT_DYF4QWscyHyzon4S-245" target="8WT_DYF4QWscyHyzon4S-249" edge="1">
          <mxGeometry relative="1" as="geometry">
            <mxPoint x="610" y="330" as="sourcePoint" />
          </mxGeometry>
        </mxCell>
        <mxCell id="8WT_DYF4QWscyHyzon4S-279" style="edgeStyle=orthogonalEdgeStyle;rounded=0;orthogonalLoop=1;jettySize=auto;html=1;entryX=0;entryY=0.5;entryDx=0;entryDy=0;" parent="8WT_DYF4QWscyHyzon4S-245" target="8WT_DYF4QWscyHyzon4S-249" edge="1">
          <mxGeometry relative="1" as="geometry">
            <mxPoint x="590" y="190" as="sourcePoint" />
            <Array as="points">
              <mxPoint x="650" y="190" />
              <mxPoint x="650" y="330" />
            </Array>
          </mxGeometry>
        </mxCell>
        <mxCell id="8WT_DYF4QWscyHyzon4S-280" style="edgeStyle=orthogonalEdgeStyle;rounded=0;orthogonalLoop=1;jettySize=auto;html=1;entryX=0;entryY=0.5;entryDx=0;entryDy=0;" parent="8WT_DYF4QWscyHyzon4S-245" target="8WT_DYF4QWscyHyzon4S-249" edge="1">
          <mxGeometry relative="1" as="geometry">
            <mxPoint x="610" y="470" as="sourcePoint" />
          </mxGeometry>
        </mxCell>
        <mxCell id="8WT_DYF4QWscyHyzon4S-283" value="" style="group" parent="1" vertex="1" connectable="0">
          <mxGeometry x="1730" y="290" width="1270" height="700" as="geometry" />
        </mxCell>
        <mxCell id="8WT_DYF4QWscyHyzon4S-194" value="" style="rounded=1;whiteSpace=wrap;html=1;" parent="8WT_DYF4QWscyHyzon4S-283" vertex="1">
          <mxGeometry width="1270" height="700" as="geometry" />
        </mxCell>
        <mxCell id="8WT_DYF4QWscyHyzon4S-195" style="edgeStyle=orthogonalEdgeStyle;rounded=0;orthogonalLoop=1;jettySize=auto;html=1;" parent="8WT_DYF4QWscyHyzon4S-283" source="8WT_DYF4QWscyHyzon4S-196" target="8WT_DYF4QWscyHyzon4S-219" edge="1">
          <mxGeometry relative="1" as="geometry">
            <Array as="points">
              <mxPoint x="250" y="330" />
              <mxPoint x="250" y="190" />
            </Array>
          </mxGeometry>
        </mxCell>
        <mxCell id="8WT_DYF4QWscyHyzon4S-196" value="" style="shape=image;verticalLabelPosition=bottom;labelBackgroundColor=default;verticalAlign=top;aspect=fixed;imageAspect=0;editableCssRules=.*;image=data:image/svg+xml,PHN2ZyB4bWxucz0iaHR0cDovL3d3dy53My5vcmcvMjAwMC9zdmciIHZpZXdCb3g9IjAgMCAzMiAzMiI+PHBhdGggZmlsbD0iIzAxOTYzOSIgZD0ibTE1Ljk0OCAyaC4wNjVhMTAuNDE4IDEwLjQxOCAwIDAgMSAuOTcyLjUyOHE1LjQyOSAzLjEyMiAxMC44NTggNi4yNDZhLjc5Mi43OTIgMCAwIDEgLjQxNC43ODhjLS4wMDggNC4zODkgMCA4Ljc3Ny0uMDA1IDEzLjE2NGEuODEzLjgxMyAwIDAgMSAtLjM1Ni41MDdxLTUuNzczIDMuMzI0LTExLjU0NyA2LjY0NGEuNTg3LjU4NyAwIDAgMSAtLjY1Ny4wMzdxLTUuNzgtMy4zMTQtMTEuNTQ5LTYuNjRhLjcuNyAwIDAgMSAtLjQtLjY2NnEwLTYuNTgyIDAtMTMuMTYzYS42OTMuNjkzIDAgMCAxIC4zODctLjY3cTUuNDIyLTMuMTE4IDEwLjg0NC02LjI0Yy4zMjItLjE4NC42MzgtLjM3OS45NzQtLjUzNSIvPjxwYXRoIGZpbGw9IiNmZmYiIGQ9Im04Ljc2NyAxMC41MzhxMCA1LjQyOSAwIDEwLjg1OWExLjUwOSAxLjUwOSAwIDAgMCAuNDI3IDEuMDg3IDEuNjQ3IDEuNjQ3IDAgMCAwIDIuMDYuMjA2IDEuNTY0IDEuNTY0IDAgMCAwIC42ODUtMS4yOTNjMC0yLjYyLS4wMDUtNS4yNCAwLTcuODZxMy41ODMgNC4yOSA3LjE4MSA4LjU2OGEyLjgzMyAyLjgzMyAwIDAgMCAyLjYuNzgyIDEuNTYxIDEuNTYxIDAgMCAwIDEuMjUxLTEuMzcxcS4wMDgtNS41NDEgMC0xMS4wODFhMS41ODIgMS41ODIgMCAwIDAgLTMuMTUyIDBjMCAyLjY2Mi0uMDE2IDUuMzIxIDAgNy45ODItMi4zNDYtMi43NjYtNC42NjMtNS41NTYtNy04LjMzMmEyLjgxNyAyLjgxNyAwIDAgMCAtMi42NDktMS4wNTIgMS41NzkgMS41NzkgMCAwIDAgLTEuNDAzIDEuNTA1eiIvPjwvc3ZnPg==;" parent="8WT_DYF4QWscyHyzon4S-283" vertex="1">
          <mxGeometry x="140" y="300" width="60" height="60" as="geometry" />
        </mxCell>
        <mxCell id="8WT_DYF4QWscyHyzon4S-197" value="" style="shape=image;verticalLabelPosition=bottom;labelBackgroundColor=default;verticalAlign=top;aspect=fixed;imageAspect=0;editableCssRules=.*;image=data:image/svg+xml,PHN2ZyB4bWxucz0iaHR0cDovL3d3dy53My5vcmcvMjAwMC9zdmciIHdpZHRoPSIyNTYiIHZpZXdCb3g9IjAgMCAyNTYgMjUyIiBwcmVzZXJ2ZUFzcGVjdFJhdGlvPSJ4TWlkWU1pZCIgaGVpZ2h0PSIyNTIiPjxnIGZpbGw9IiMwMDU0NmIiPjxwYXRoIGQ9Im0yMzUuNjQ4Mjc2IDE5NC4yMTE2MzJjLTEzLjkxODQyNS0uMzQ3MDczLTI0LjcwNTQwNCAxLjA0NTY0LTMzLjc1MjY3MiA0Ljg3MjMzMi0yLjYwOTcwNSAxLjA0MzQ0Mi02Ljc4NTY3NyAxLjA0NDUzNC03LjEzMzgzNyA0LjM0OTQ5NCAxLjM5MjczMSAxLjM5MjczMSAxLjU2NjI2NyAzLjY1NDI1OCAyLjc4NDMyOSA1LjU2NzU5NyAyLjA4OTA5NiAzLjQ3ODQ5NiA1Ljc0MTE1MSA4LjE3NzI4OCA5LjA0NzIyMSAxMC42MTM0NTIgMy42NTMxNDQgMi43ODMyNDEgNy4zMDczNzQgNS41NjY0ODIgMTEuMTM0MDk5IDguMDAyNjQ2IDYuNzg1Njc2IDQuMTc1OTcyIDE0LjQ0MTIwOSA2LjYxMTAxNyAyMS4wNTIyNjEgMTAuNzg2OTcgMy44Mjg5IDIuNDMzOTQ0IDcuNjU0NDQ2IDUuNTY3NTg4IDExLjQ4MjI1NyA4LjE3NzI4OCAxLjkxNDQ3MyAxLjM5MDUxNSAzLjEzMTQ0NyAzLjY1MzEzNCA1LjU2NzYxNSA0LjUyMzAzNXYtLjUyMTcxNGMtMS4yMTgxMDctMS41NjYyNTMtMS41NjYyNjctMy44Mjc3OC0yLjc4MzI0MS01LjU2NzU4OC0xLjczODcxNi0xLjczOTgwMy0zLjQ3OTYwNi0zLjMwNjA2MS01LjIxOTQwOS01LjA0NTg2NC01LjA0NTg3NC02Ljc4NDU4LTExLjMwODc2Ni0xMi43MDAyOTYtMTguMDk0MzUyLTE3LjU3MTUzMi01LjU2NjQ4Mi0zLjgyNzc5OC0xNy43NDYxOTItOS4wNDcxOTgtMjAuMDA3NzgzLTE1LjQ4NDY5NyAwIDAtLjE3NDYyNC0uMTczNTQxLS4zNDgxNi0uMzQ3MDgxIDMuODI3NzY3LS4zNDgxODMgOC4zNTA4MTItMS43Mzk3OSAxMi4wMDUwODctMi43ODQzNDcgNS45MTU3NzUtMS41NjYyNDkgMTEuMzA4NzY2LTEuMjE4MDc1IDE3LjM5Nzk4Ni0yLjc4MzI0MSAyLjc4MzI0Mi0uNjk2MzUyIDUuNTY3NjE1LTEuNTY2MjUzIDguMzUwODU2LTIuNDM2MTZ2LTEuNTY1MTQ3Yy0zLjEzMDMxMy0zLjEzMjU0My01LjM5Mjk0NS03LjMwNzM5MS04LjY5OTAxNi0xMC4yNjUyOTctOC44NzI1NTItNy42NTY2NjUtMTguNjE2MTM4LTE1LjEzNjUwOS0yOC43MDY3NTMtMjEuMzk5Mzg0LTUuMzk0MDc5LTMuNDc5NjAyLTEyLjM1MzI5Mi01Ljc0MjI0My0xOC4wOTQzNTItOC42OTkwMjUtMi4wODY4NzYtMS4wNDU2NC01LjU2NzYxNS0xLjU2NjI0OS02Ljc4NDU4OS0zLjMwNjA3LTMuMTMyNTIxLTMuODI3Nzc2LTQuODcyMzI0LTguODcyNTM5LTcuMTMzODQxLTEzLjM5NjcyLTUuMDQzNjUzLTkuNTY5OTc0LTkuOTE3MTE5LTIwLjE4MTI3My0xNC4yNjY1NzItMzAuMjcxOTE0LTMuMTMwMzE0LTYuNzg1NjcyLTUuMDQ0NzU5LTEzLjU3MTM3NTgtOC44NzI1NDgtMTkuODM0MTQxNy0xNy45MTk2OTYtMjkuNTc2NjE3OS0zNy40MDU3NjctNDcuNDk2NDEzMS02Ny4zMzA1NTQtNjUuMDY5MDY1OS02LjQzNzQ4NDgtMy42NTMxNTIyLTE0LjA5MTkzMDEtNS4yMTk0MDMzLTIyLjI2OTI0NTItNy4xMzI3NDUtNC4zNDgzOTc5LS4xNzQ2NDQxLTguNjk5MDE1OS0uNTIxNzE1OC0xMy4wNDg1NTU2LS42OTYzNTk5LTIuNzgzMjQxMS0xLjIxODA5NDYtNS41Njc1ODc3LTQuNTIzMDQzMy04LjAwMzc2MDctNi4wODkzMDg0LTkuOTE0ODcxLTYuMjYzOTQ4LTM1LjQ5MTMyMzQ5LTE5LjgzMzExNTE4LTQyLjc5ODY5MTctMS45MTMzNDE3My00LjY5NzY5MDYyIDExLjMwODc0OTIzIDYuOTU5MjEyNzQgMjIuNDQyNzc0NjMgMTAuOTYwNDkyNyAyOC4xODQ5Nzg4MyAyLjk1ODk4ODUgNC4wMDEzMzY2IDYuNzg1NjcyIDguNTI0MzcgOC44NzM2NTc4IDEzLjA0ODU2NTEgMS4yMTgwODg4IDIuOTU1Njc2MyAxLjU2NTE1NjggNi4wODkzMDIxIDIuNzgzMjQ1NiA5LjIyMDczMDMgMi43ODQzNDIxIDcuNjUzMzYyNCA1LjM5Mjk0MTMgMTYuMTc5ODk3OCA5LjA0NzE4OTUgMjMuMzEzODI5NCAxLjkxNDQ0NTEgMy42NTMxNTE3IDQuMDAxMzI1MyA3LjQ4MDkzNjIgNi40Mzc0ODkzIDEwLjc4NTg2IDEuMzkxNjE2IDEuOTEzMzM5NSAzLjgyNjY3ODkgMi43ODQzNDY2IDQuMzQ5NDk4OSA1LjkxNTc3MDMtMi40MzUwNTM5IDMuNDc5NTkyNy0yLjYwOTcwMDIgOC42OTkwMTU3LTQuMDAyNDMwOSAxMy4wNDg1NTU3LTYuMjYyODQyOSAxOS42NTk1LTMuODI2NjgzNCA0NC4wMTY4MDggNS4wNDU4NzMzIDU4LjQ1Njg5OCAyLjc4MzI0MTEgNC4zNDg0MDcgOS4zOTUzMzU5IDEzLjkxOTUzMSAxOC4yNjc5NjA2IDEwLjI2NTI5MiA3LjgyOTEwOTktMy4xMzE0MzggNi4wODkzMDIxLTEzLjA0ODU1NiA4LjM1MDgyODgtMjEuNzQ3NTcyLjUyMjgyOS0yLjA4OTA4Ny4xNzQ2NDE4LTMuNDc5NTkzIDEuMjE4MDg0Mi00Ljg3MTIyNy4wMDA5MDYyLjE3MzU0MSAwIC4zNDgxNzggMCAuMzQ4MTc4IDIuNDM2MTU5NSA0Ljg3MTIyNyA0Ljg3MTIyNjkgOS41Njg5NDkgNy4xMzI3NDQ1IDE0LjQ0MDA5NSA1LjM5NDA0NjkgOC41MjQzNjkgMTQuNzg4MzU0MyAxNy4zOTgwMTggMjIuNjE3NDEzOSAyMy4zMTM4NDcgNC4xNzcwNzggMy4xMzAzMDUgNy40ODIwMzMgOC41MjQzNzQgMTIuNzAxNDIgMTAuNDM4ODF2LS41MjI4MjloLS4zNDgxNzhjLTEuMDQ0NTQ0LTEuNTY2MjUzLTIuNjA5Ny0yLjI2MTUyNi00LjAwMTMyNS0zLjQ3OTU5Mi0zLjEzMTQyOS0zLjEzMTQyOS02LjYxMjEzNi02Ljk1OTIyNy05LjA0NzE5LTEwLjQzODgxMS03LjMwNjI4NTMtOS43NDM1OTUtMTMuNzQ0ODg5Mi0yMC41Mjk0NDYtMTkuNDg1OTgxNC0zMS42NjQ1ODUtMi43ODMyNDExLTUuMzkyOTQxLTUuMjE5NDAwNS0xMS4zMDg3NjItNy40ODA5MjcyLTE2LjcwMTY4NS0xLjA0NDU0MzQtMi4wODkwODItMS4wNDQ1NDM0LTUuMjE5NDA1LTIuNzg0MzQ2Ni02LjI2MjgzOC0yLjYwOTcwMDMgMy44MjY2NzQtNi40MzYzODM3IDcuMTMyNzQ0LTguMzUwODI4NyAxMS44MzA0NDQtMy4zMDM4NTQ1IDcuNDgwOTI3LTMuNjUzMTQyNyAxNi43MDE2OC00Ljg3MTIyNjkgMjYuMjcwNTMtLjY5NTI2ODkuMTc0NjUxLS4zNDgxODcyIDAtLjY5NjM2OTkuMzQ4MTkxLTUuNTY2NDg2Ni0xLjM5MjczLTcuNDgwOTMxNy03LjEzMjc0NC05LjU2ODk1MzgtMTIuMDA1MDg2LTUuMjE5NDA1LTEyLjM1MjEyNi02LjA4OTMwMi0zMi4xODYzNjgtMS41NjUxNTY4LTQ2LjQ1MTgxNiAxLjIxODA4NDMtMy42NTQyNDggNi40Mzc0ODkzLTE1LjEzNjUyMzIgNC4zNDk1MDM1LTE4LjYxNjEzNDEtMS4wNDM0NDI0LTMuMzA2MDc0Ni00LjUyNDE0OTgtNS4yMTk0MDUtNi40Mzc0ODkzLTcuODI5MTA1Mi0yLjI2MTUyNjctMy4zMDYwNzAxLTQuNjk3Njg2MS03LjQ4MDkzMTctNi4yNjI4NDI5LTExLjEzNTEzOTEtNC4xNzU5NzE3LTkuNzQyNDc2NS02LjI2Mzk0ODUtMjAuNTI5NDQ2Ni0xMC43ODY5NzQ2LTMwLjI3MzA0MjItMi4wODc5ODU4LTQuNTI0MTQ4OS01Ljc0MTEyODUtOS4yMjA3MzE3LTguNjk5MDE1OS0xMy4zOTU2MDkxLTMuMzA0OTU1NS00LjY5NzY3NzktNi45NTkyMTI4LTguMDAzNzQ4OS05LjU2ODk0OTI3LTEzLjU3MTM1NTctLjg2ODgwMDU3LTEuOTEzMzQxNy0yLjA4Nzk4NTg0LTUuMDQ0NzU5MS0uNjk2MzYwNzgtNy4xMzI3NTQuMzQ4MTgyNjYtMS4zOTE2MTE5IDEuMDQzNDM3ODgtMS45MTMzMzY3IDIuNDM2MTU5NDUtMi4yNjE1MjE2MyAyLjI2MTUyNjYtMS45MTQ0NDU0OCA4LjY5OTAxNTkuNTIxNzE1NzMgMTAuOTYwNDkyNyAxLjU2NTE2MTMzIDYuNDM3NDg5MyAyLjYwODU4ODggMTEuODMwNDQ0MiA1LjA0NTg3MjQgMTcuMjI0NDkxMSA4LjY5OTAxNSAyLjQzNTA1ODQgMS43Mzk4MDEgNS4wNDQ3NTg2IDUuMDQ1ODcxOSA4LjE3NjE4NjkgNS45MTU3NzI2aDMuNjU0MjQzN2M1LjU2NzU4NzYgMS4yMTY5ODE0IDExLjgzMDQ0NDEuMzQ4MTY1OSAxNy4wNDk4NDQ2IDEuOTEzMzQxMyA5LjIyMTgzNTkgMi45NTY3ODI4IDE3LjU3MTUzNjUgNy4zMDczODkxIDI1LjA1MzY0MTcgMTIuMDA1MDg2IDIyLjc5MjA2MDQgMTQuNDQwMDk3OCA0MS41ODA1ODM0IDM0Ljk3MDY2MzUgNTQuMjgyMDkzNCA1OS41MDE0OTQyIDIuMDg3OTg2IDQuMDAwMjI0NiAyLjk1Njc4MiA3LjY1NTU2NDYgNC44NzEyMjcgMTEuODMwNDQ0NiAzLjY1NDI0OCA4LjUyNTQ3NSA4LjE3NzI4OCAxNy4yMjQ0ODYgMTEuODMwNDQgMjUuNTc1MzI4IDMuNjUzMTQyIDguMTc2MTgzIDcuMTMyNzQ0IDE2LjUyODE0NCAxMi4zNTIxMzEgMjMuMzEzODMgMi42MTA4MDYgMy42NTIwNDYgMTMuMDQ4NTQyIDUuNTY2NDgyIDE3Ljc0NjE2NSA3LjQ4MDkyNyAzLjQ3OTYwNiAxLjU2NTE2NiA4Ljg3MzY4NSAyLjk1Nzg5NiAxMi4wMDUwODYgNC44NzEyMzEgNS45MTQ2ODkgMy42NTIwMzcgMTEuODMwNDY0IDcuODI5MTI0IDE3LjM5ODAzMyAxMS44MzA0NCAyLjc4NDMyOSAyLjA4Njg4OSAxMS40ODIyNTcgNi40Mzc0OTggMTIuMDA1MDg2IDkuOTE2MDA0eiIvPjxwYXRoIGQ9Im01OC4xODY0ODkyIDQzLjAyMjI2NDRjLTIuOTU3ODgyOSAwLTUuMDQ0NzU4Ny4zNDkyODgyLTcuMTMyNzQ0NS44NzEwMTYyIDAtLjAwMDkwNjIgMCAuMTc0NjQxOSAwIC4zNDgxODI3aC4zNDgxODcyYzEuMzkyNzI2MSAyLjc4MzI0MDEgMy44MjY2ODM1IDQuNjk3Njg1MiA1LjU2NjQ4MjEgNy4xMzI3MzQ1IDEuMzkyNzMwNiAyLjc4MzI0MTEgMi42MDk3MDAzIDUuNTY3NTk2NyA0LjAwMjQzMDkgOC4zNTE5NDM0LjE3MzUzMTctLjE3NDY0NjQuMzQ3MDcyNi0uMzQ4MTgyNy4zNDcwNzI2LS4zNDgxODI3IDIuNDM3Mjc0LTEuNzQwOTA4NyAzLjY1NDI0ODItNC41MjQxNDk4IDMuNjU0MjQ4Mi04LjY5OTAxNTktMS4wNDQ1NDgtMS4yMTgwODQzLTEuMjE4MDg4OC0yLjQzNjE2NC0yLjA4Nzk4NTktMy42NTQyNDgyLTEuMDQzNDQyNC0xLjc0MDkxMjQtMy4zMDYwNzQ2LTIuNjA5Njk5NC00LjY5NzY5MDYtNC4wMDI0M3oiLz48L2c+PC9zdmc+;" parent="8WT_DYF4QWscyHyzon4S-283" vertex="1">
          <mxGeometry x="690" y="304.9200000000001" width="71.26" height="70.16" as="geometry" />
        </mxCell>
        <mxCell id="8WT_DYF4QWscyHyzon4S-198" value="" style="edgeStyle=orthogonalEdgeStyle;rounded=0;orthogonalLoop=1;jettySize=auto;html=1;" parent="8WT_DYF4QWscyHyzon4S-283" source="8WT_DYF4QWscyHyzon4S-199" target="8WT_DYF4QWscyHyzon4S-196" edge="1">
          <mxGeometry relative="1" as="geometry" />
        </mxCell>
        <mxCell id="8WT_DYF4QWscyHyzon4S-199" value="" style="shape=image;verticalLabelPosition=bottom;labelBackgroundColor=default;verticalAlign=top;aspect=fixed;imageAspect=0;editableCssRules=.*;image=data:image/svg+xml,PHN2ZyB4bWxucz0iaHR0cDovL3d3dy53My5vcmcvMjAwMC9zdmciIHdpZHRoPSIxNiIgdmlld0JveD0iMCAwIDE2IDE2IiBoZWlnaHQ9IjE2Ij48cGF0aCBmaWxsPSJub25lIiBkPSJtMCAwaDE2djE2aC0xNnoiLz48cGF0aCBkPSJtOCA4YzIuMjA5IDAgNC0xLjc5MSA0LTRzLTEuNzkxLTQtNC00LTQgMS43OTEtNCA0IDEuNzkxIDQgNCA0em00IDJoLThjLTIuMjA5IDAtNCAxLjc5MS00IDR2MmgxNnYtMmMwLTIuMjA5LTEuNzkxLTQtNC00eiIvPjwvc3ZnPg==;" parent="8WT_DYF4QWscyHyzon4S-283" vertex="1">
          <mxGeometry x="60" y="300" width="60" height="60" as="geometry" />
        </mxCell>
        <mxCell id="8WT_DYF4QWscyHyzon4S-200" value="" style="group" parent="8WT_DYF4QWscyHyzon4S-283" vertex="1" connectable="0">
          <mxGeometry x="430" y="120" width="180" height="130" as="geometry" />
        </mxCell>
        <mxCell id="8WT_DYF4QWscyHyzon4S-201" value="" style="rounded=1;whiteSpace=wrap;html=1;" parent="8WT_DYF4QWscyHyzon4S-200" vertex="1">
          <mxGeometry y="30" width="167.92" height="100" as="geometry" />
        </mxCell>
        <mxCell id="8WT_DYF4QWscyHyzon4S-202" value="" style="group" parent="8WT_DYF4QWscyHyzon4S-200" vertex="1" connectable="0">
          <mxGeometry x="10" width="170" height="130" as="geometry" />
        </mxCell>
        <mxCell id="8WT_DYF4QWscyHyzon4S-203" value="Local Cache 1" style="text;html=1;align=center;verticalAlign=middle;resizable=0;points=[];autosize=1;strokeColor=none;fillColor=none;container=1;fontFamily=Do Hyeon;fontSource=https%3A%2F%2Ffonts.googleapis.com%2Fcss%3Ffamily%3DDo%2BHyeon;" parent="8WT_DYF4QWscyHyzon4S-202" vertex="1">
          <mxGeometry x="24.999999999999986" width="90" height="30" as="geometry" />
        </mxCell>
        <mxCell id="8WT_DYF4QWscyHyzon4S-204" value="수정 (동기화 설정)" style="text;html=1;align=center;verticalAlign=middle;whiteSpace=wrap;rounded=0;fontFamily=Do Hyeon;fontSource=https%3A%2F%2Ffonts.googleapis.com%2Fcss%3Ffamily%3DDo%2BHyeon;fontSize=30;" parent="8WT_DYF4QWscyHyzon4S-283" vertex="1">
          <mxGeometry x="458.25" y="20" width="353.5" height="50" as="geometry" />
        </mxCell>
        <mxCell id="8WT_DYF4QWscyHyzon4S-205" style="edgeStyle=orthogonalEdgeStyle;rounded=0;orthogonalLoop=1;jettySize=auto;html=1;entryX=0.007;entryY=0.569;entryDx=0;entryDy=0;entryPerimeter=0;" parent="8WT_DYF4QWscyHyzon4S-283" edge="1">
          <mxGeometry relative="1" as="geometry">
            <mxPoint x="199.57999999999993" y="329.4303092783507" as="sourcePoint" />
            <mxPoint x="301" y="330.55999999999995" as="targetPoint" />
            <Array as="points">
              <mxPoint x="299.5799999999999" y="329.4200000000001" />
              <mxPoint x="299.5799999999999" y="330.4200000000001" />
            </Array>
          </mxGeometry>
        </mxCell>
        <mxCell id="8WT_DYF4QWscyHyzon4S-206" style="edgeStyle=orthogonalEdgeStyle;rounded=0;orthogonalLoop=1;jettySize=auto;html=1;entryX=0.007;entryY=0.631;entryDx=0;entryDy=0;entryPerimeter=0;" parent="8WT_DYF4QWscyHyzon4S-283" source="8WT_DYF4QWscyHyzon4S-196" target="8WT_DYF4QWscyHyzon4S-222" edge="1">
          <mxGeometry relative="1" as="geometry" />
        </mxCell>
        <mxCell id="8WT_DYF4QWscyHyzon4S-207" value="Spring Server 2" style="text;html=1;align=center;verticalAlign=middle;resizable=0;points=[];autosize=1;strokeColor=none;fillColor=none;fontFamily=Do Hyeon;fontSource=https%3A%2F%2Ffonts.googleapis.com%2Fcss%3Ffamily%3DDo%2BHyeon;fontSize=15;" parent="8WT_DYF4QWscyHyzon4S-283" vertex="1">
          <mxGeometry x="280" y="360" width="120" height="30" as="geometry" />
        </mxCell>
        <mxCell id="8WT_DYF4QWscyHyzon4S-208" value="Spring Server 3" style="text;html=1;align=center;verticalAlign=middle;resizable=0;points=[];autosize=1;strokeColor=none;fillColor=none;fontFamily=Do Hyeon;fontSource=https%3A%2F%2Ffonts.googleapis.com%2Fcss%3Ffamily%3DDo%2BHyeon;fontSize=15;" parent="8WT_DYF4QWscyHyzon4S-283" vertex="1">
          <mxGeometry x="280" y="515" width="120" height="30" as="geometry" />
        </mxCell>
        <mxCell id="8WT_DYF4QWscyHyzon4S-209" value="" style="group" parent="8WT_DYF4QWscyHyzon4S-283" vertex="1" connectable="0">
          <mxGeometry x="430" y="260" width="180" height="130" as="geometry" />
        </mxCell>
        <mxCell id="8WT_DYF4QWscyHyzon4S-210" value="" style="rounded=1;whiteSpace=wrap;html=1;" parent="8WT_DYF4QWscyHyzon4S-209" vertex="1">
          <mxGeometry y="30" width="167.92" height="100" as="geometry" />
        </mxCell>
        <mxCell id="8WT_DYF4QWscyHyzon4S-211" value="" style="group" parent="8WT_DYF4QWscyHyzon4S-209" vertex="1" connectable="0">
          <mxGeometry x="10" width="170" height="130" as="geometry" />
        </mxCell>
        <mxCell id="8WT_DYF4QWscyHyzon4S-212" value="Local Cache 2" style="text;html=1;align=center;verticalAlign=middle;resizable=0;points=[];autosize=1;strokeColor=none;fillColor=none;container=1;fontFamily=Do Hyeon;fontSource=https%3A%2F%2Ffonts.googleapis.com%2Fcss%3Ffamily%3DDo%2BHyeon;" parent="8WT_DYF4QWscyHyzon4S-211" vertex="1">
          <mxGeometry x="24.999999999999986" width="90" height="30" as="geometry" />
        </mxCell>
        <mxCell id="8WT_DYF4QWscyHyzon4S-213" value="&lt;div&gt;{&lt;/div&gt;&lt;div&gt;&amp;nbsp; &amp;nbsp;&quot;name&quot;:&quot;Son&quot;,&lt;/div&gt;&lt;div&gt;&amp;nbsp; &amp;nbsp;&quot;age&quot;:33,&lt;/div&gt;&lt;div&gt;&amp;nbsp; &amp;nbsp;&quot;statusMessage&quot;:&quot;i am son&quot;&lt;/div&gt;&lt;div&gt;}&lt;/div&gt;" style="text;html=1;align=left;verticalAlign=middle;resizable=0;points=[];autosize=1;strokeColor=none;fillColor=none;fontFamily=Do Hyeon;fontSource=https%3A%2F%2Ffonts.googleapis.com%2Fcss%3Ffamily%3DDo%2BHyeon;" parent="8WT_DYF4QWscyHyzon4S-211" vertex="1">
          <mxGeometry y="35" width="170" height="90" as="geometry" />
        </mxCell>
        <mxCell id="8WT_DYF4QWscyHyzon4S-214" value="" style="group" parent="8WT_DYF4QWscyHyzon4S-283" vertex="1" connectable="0">
          <mxGeometry x="430" y="400" width="180" height="130" as="geometry" />
        </mxCell>
        <mxCell id="8WT_DYF4QWscyHyzon4S-215" value="" style="rounded=1;whiteSpace=wrap;html=1;" parent="8WT_DYF4QWscyHyzon4S-214" vertex="1">
          <mxGeometry y="30" width="167.92" height="100" as="geometry" />
        </mxCell>
        <mxCell id="8WT_DYF4QWscyHyzon4S-216" value="" style="group" parent="8WT_DYF4QWscyHyzon4S-214" vertex="1" connectable="0">
          <mxGeometry x="10" width="170" height="130" as="geometry" />
        </mxCell>
        <mxCell id="8WT_DYF4QWscyHyzon4S-217" value="Local Cache 3" style="text;html=1;align=center;verticalAlign=middle;resizable=0;points=[];autosize=1;strokeColor=none;fillColor=none;container=1;fontFamily=Do Hyeon;fontSource=https%3A%2F%2Ffonts.googleapis.com%2Fcss%3Ffamily%3DDo%2BHyeon;" parent="8WT_DYF4QWscyHyzon4S-216" vertex="1">
          <mxGeometry x="24.999999999999986" width="90" height="30" as="geometry" />
        </mxCell>
        <mxCell id="8WT_DYF4QWscyHyzon4S-218" value="&lt;div&gt;{&lt;/div&gt;&lt;div&gt;&amp;nbsp; &amp;nbsp;&quot;name&quot;:&quot;Son&quot;,&lt;/div&gt;&lt;div&gt;&amp;nbsp; &amp;nbsp;&quot;age&quot;:33,&lt;/div&gt;&lt;div&gt;&amp;nbsp; &amp;nbsp;&quot;statusMessage&quot;:&quot;i am son&quot;&lt;/div&gt;&lt;div&gt;}&lt;/div&gt;" style="text;html=1;align=left;verticalAlign=middle;resizable=0;points=[];autosize=1;strokeColor=none;fillColor=none;fontFamily=Do Hyeon;fontSource=https%3A%2F%2Ffonts.googleapis.com%2Fcss%3Ffamily%3DDo%2BHyeon;" parent="8WT_DYF4QWscyHyzon4S-216" vertex="1">
          <mxGeometry y="35" width="170" height="90" as="geometry" />
        </mxCell>
        <mxCell id="8WT_DYF4QWscyHyzon4S-231" style="edgeStyle=orthogonalEdgeStyle;rounded=0;orthogonalLoop=1;jettySize=auto;html=1;strokeWidth=3;strokeColor=#FF0000;" parent="8WT_DYF4QWscyHyzon4S-283" source="8WT_DYF4QWscyHyzon4S-219" target="8WT_DYF4QWscyHyzon4S-230" edge="1">
          <mxGeometry relative="1" as="geometry">
            <Array as="points">
              <mxPoint x="331" y="110" />
              <mxPoint x="904" y="110" />
            </Array>
          </mxGeometry>
        </mxCell>
        <mxCell id="8WT_DYF4QWscyHyzon4S-219" value="" style="shape=image;verticalLabelPosition=bottom;labelBackgroundColor=default;verticalAlign=top;aspect=fixed;imageAspect=0;editableCssRules=.*;image=data:image/svg+xml,PHN2ZyB4bWxucz0iaHR0cDovL3d3dy53My5vcmcvMjAwMC9zdmciIHZpZXdCb3g9IjAgMCAzMiAzMiIgaGVpZ2h0PSIzMiIgd2lkdGg9IjMyIj48ZyBmaWxsLXJ1bGU9ImV2ZW5vZGQiIGZpbGw9Im5vbmUiPjxwYXRoIGQ9Ik0wIDBoMzJ2MzJIMHoiLz48cGF0aCBkPSJNNS40NjYgMjcuOTkzYTEuMzY0IDEuMzY0IDAgMTAtLjA4Ny0uMDc2bC0uMjY2LS4yMzRDMS45NzIgMjQuNzYyIDAgMjAuNTk3IDAgMTUuOTc4IDAgNy4xNjggNy4xNjggMCAxNS45OCAwYzQuNDggMCA4LjUzIDEuODU3IDExLjQzNSA0LjgzNmExNC42ODEgMTQuNjgxIDAgMDAxLjctMy4wMTVjMi4wMzYgNi4xMTggMy4yMzMgMTEuMjYgMi43OTUgMTUuMzEtLjU5MiA4LjI3NC03LjUwOCAxNC44My0xNS45MyAxNC44M2ExNS45MDMgMTUuOTAzIDAgMDEtMTAuMjc2LTMuNzU3bC0uMjM4LS4yMXptMjMuNTgtNC45ODJjNC4wMS01LjMzNiAxLjc3NS0xMy45NjUtLjA4NS0xOS40OC0xLjY1NyAzLjQ1My01LjczOCA2LjA5NC05LjI2MiA2LjkzLTMuMzAzLjc4OC02LjIyNi4xNDItOS4yODMgMS4zMTgtNi45NyAyLjY4LTYuODYgMTAuOTkyLTMuMDIgMTIuODYuMDAyIDAgLjIzLjEyNC4yMjcuMTIgMC0uMDAyIDUuNjQ0LTEuMTIyIDguNzY0LTIuMjc0IDQuNTYtMS42ODQgOS41NjYtNS44MzUgMTEuMjEzLTEwLjY1Ny0uODc3IDUuMDE1LTUuMTgyIDkuODQtOS41MDcgMTIuMDU2LTIuMzAyIDEuMTgyLTQuMDkyIDEuNDQ1LTcuODggMi43NTYtLjQ2NC4xNTgtLjgyOC4zMTQtLjgyOC4zMTQuOTYtLjE2IDEuOTE3LS4yMTIgMS45MTctLjIxMiA1LjM5My0uMjU1IDEzLjgwNyAxLjUxNiAxNy43NDUtMy43M3oiIGZpbGw9IiM3MEFENTEiLz48L2c+PC9zdmc+;" parent="8WT_DYF4QWscyHyzon4S-283" vertex="1">
          <mxGeometry x="301" y="159.83999999999992" width="60" height="60" as="geometry" />
        </mxCell>
        <mxCell id="8WT_DYF4QWscyHyzon4S-220" value="" style="shape=image;verticalLabelPosition=bottom;labelBackgroundColor=default;verticalAlign=top;aspect=fixed;imageAspect=0;editableCssRules=.*;image=data:image/svg+xml,PHN2ZyB4bWxucz0iaHR0cDovL3d3dy53My5vcmcvMjAwMC9zdmciIHZpZXdCb3g9IjAgMCAzMiAzMiIgaGVpZ2h0PSIzMiIgd2lkdGg9IjMyIj48ZyBmaWxsLXJ1bGU9ImV2ZW5vZGQiIGZpbGw9Im5vbmUiPjxwYXRoIGQ9Ik0wIDBoMzJ2MzJIMHoiLz48cGF0aCBkPSJNNS40NjYgMjcuOTkzYTEuMzY0IDEuMzY0IDAgMTAtLjA4Ny0uMDc2bC0uMjY2LS4yMzRDMS45NzIgMjQuNzYyIDAgMjAuNTk3IDAgMTUuOTc4IDAgNy4xNjggNy4xNjggMCAxNS45OCAwYzQuNDggMCA4LjUzIDEuODU3IDExLjQzNSA0LjgzNmExNC42ODEgMTQuNjgxIDAgMDAxLjctMy4wMTVjMi4wMzYgNi4xMTggMy4yMzMgMTEuMjYgMi43OTUgMTUuMzEtLjU5MiA4LjI3NC03LjUwOCAxNC44My0xNS45MyAxNC44M2ExNS45MDMgMTUuOTAzIDAgMDEtMTAuMjc2LTMuNzU3bC0uMjM4LS4yMXptMjMuNTgtNC45ODJjNC4wMS01LjMzNiAxLjc3NS0xMy45NjUtLjA4NS0xOS40OC0xLjY1NyAzLjQ1My01LjczOCA2LjA5NC05LjI2MiA2LjkzLTMuMzAzLjc4OC02LjIyNi4xNDItOS4yODMgMS4zMTgtNi45NyAyLjY4LTYuODYgMTAuOTkyLTMuMDIgMTIuODYuMDAyIDAgLjIzLjEyNC4yMjcuMTIgMC0uMDAyIDUuNjQ0LTEuMTIyIDguNzY0LTIuMjc0IDQuNTYtMS42ODQgOS41NjYtNS44MzUgMTEuMjEzLTEwLjY1Ny0uODc3IDUuMDE1LTUuMTgyIDkuODQtOS41MDcgMTIuMDU2LTIuMzAyIDEuMTgyLTQuMDkyIDEuNDQ1LTcuODggMi43NTYtLjQ2NC4xNTgtLjgyOC4zMTQtLjgyOC4zMTQuOTYtLjE2IDEuOTE3LS4yMTIgMS45MTctLjIxMiA1LjM5My0uMjU1IDEzLjgwNyAxLjUxNiAxNy43NDUtMy43M3oiIGZpbGw9IiM3MEFENTEiLz48L2c+PC9zdmc+;" parent="8WT_DYF4QWscyHyzon4S-283" vertex="1">
          <mxGeometry x="301" y="297" width="60" height="60" as="geometry" />
        </mxCell>
        <mxCell id="8WT_DYF4QWscyHyzon4S-221" style="edgeStyle=orthogonalEdgeStyle;rounded=0;orthogonalLoop=1;jettySize=auto;html=1;entryX=0;entryY=0.5;entryDx=0;entryDy=0;" parent="8WT_DYF4QWscyHyzon4S-283" source="8WT_DYF4QWscyHyzon4S-222" target="8WT_DYF4QWscyHyzon4S-215" edge="1">
          <mxGeometry relative="1" as="geometry" />
        </mxCell>
        <mxCell id="8WT_DYF4QWscyHyzon4S-222" value="" style="shape=image;verticalLabelPosition=bottom;labelBackgroundColor=default;verticalAlign=top;aspect=fixed;imageAspect=0;editableCssRules=.*;image=data:image/svg+xml,PHN2ZyB4bWxucz0iaHR0cDovL3d3dy53My5vcmcvMjAwMC9zdmciIHZpZXdCb3g9IjAgMCAzMiAzMiIgaGVpZ2h0PSIzMiIgd2lkdGg9IjMyIj48ZyBmaWxsLXJ1bGU9ImV2ZW5vZGQiIGZpbGw9Im5vbmUiPjxwYXRoIGQ9Ik0wIDBoMzJ2MzJIMHoiLz48cGF0aCBkPSJNNS40NjYgMjcuOTkzYTEuMzY0IDEuMzY0IDAgMTAtLjA4Ny0uMDc2bC0uMjY2LS4yMzRDMS45NzIgMjQuNzYyIDAgMjAuNTk3IDAgMTUuOTc4IDAgNy4xNjggNy4xNjggMCAxNS45OCAwYzQuNDggMCA4LjUzIDEuODU3IDExLjQzNSA0LjgzNmExNC42ODEgMTQuNjgxIDAgMDAxLjctMy4wMTVjMi4wMzYgNi4xMTggMy4yMzMgMTEuMjYgMi43OTUgMTUuMzEtLjU5MiA4LjI3NC03LjUwOCAxNC44My0xNS45MyAxNC44M2ExNS45MDMgMTUuOTAzIDAgMDEtMTAuMjc2LTMuNzU3bC0uMjM4LS4yMXptMjMuNTgtNC45ODJjNC4wMS01LjMzNiAxLjc3NS0xMy45NjUtLjA4NS0xOS40OC0xLjY1NyAzLjQ1My01LjczOCA2LjA5NC05LjI2MiA2LjkzLTMuMzAzLjc4OC02LjIyNi4xNDItOS4yODMgMS4zMTgtNi45NyAyLjY4LTYuODYgMTAuOTkyLTMuMDIgMTIuODYuMDAyIDAgLjIzLjEyNC4yMjcuMTIgMC0uMDAyIDUuNjQ0LTEuMTIyIDguNzY0LTIuMjc0IDQuNTYtMS42ODQgOS41NjYtNS44MzUgMTEuMjEzLTEwLjY1Ny0uODc3IDUuMDE1LTUuMTgyIDkuODQtOS41MDcgMTIuMDU2LTIuMzAyIDEuMTgyLTQuMDkyIDEuNDQ1LTcuODggMi43NTYtLjQ2NC4xNTgtLjgyOC4zMTQtLjgyOC4zMTQuOTYtLjE2IDEuOTE3LS4yMTIgMS45MTctLjIxMiA1LjM5My0uMjU1IDEzLjgwNyAxLjUxNiAxNy43NDUtMy43M3oiIGZpbGw9IiM3MEFENTEiLz48L2c+PC9zdmc+;" parent="8WT_DYF4QWscyHyzon4S-283" vertex="1">
          <mxGeometry x="301" y="450" width="60" height="60" as="geometry" />
        </mxCell>
        <mxCell id="8WT_DYF4QWscyHyzon4S-223" value="Spring Server 1" style="text;html=1;align=center;verticalAlign=middle;resizable=0;points=[];autosize=1;strokeColor=none;fillColor=none;fontFamily=Do Hyeon;fontSource=https%3A%2F%2Ffonts.googleapis.com%2Fcss%3Ffamily%3DDo%2BHyeon;fontSize=15;" parent="8WT_DYF4QWscyHyzon4S-283" vertex="1">
          <mxGeometry x="280" y="219.83999999999992" width="120" height="30" as="geometry" />
        </mxCell>
        <mxCell id="8WT_DYF4QWscyHyzon4S-224" style="edgeStyle=orthogonalEdgeStyle;rounded=0;orthogonalLoop=1;jettySize=auto;html=1;strokeWidth=3;strokeColor=#FF0000;" parent="8WT_DYF4QWscyHyzon4S-283" source="8WT_DYF4QWscyHyzon4S-219" edge="1">
          <mxGeometry relative="1" as="geometry">
            <mxPoint x="430" y="190" as="targetPoint" />
          </mxGeometry>
        </mxCell>
        <mxCell id="8WT_DYF4QWscyHyzon4S-225" style="edgeStyle=orthogonalEdgeStyle;rounded=0;orthogonalLoop=1;jettySize=auto;html=1;entryX=-0.007;entryY=0.37;entryDx=0;entryDy=0;entryPerimeter=0;" parent="8WT_DYF4QWscyHyzon4S-283" source="8WT_DYF4QWscyHyzon4S-220" target="8WT_DYF4QWscyHyzon4S-210" edge="1">
          <mxGeometry relative="1" as="geometry" />
        </mxCell>
        <mxCell id="8WT_DYF4QWscyHyzon4S-226" style="edgeStyle=orthogonalEdgeStyle;rounded=0;orthogonalLoop=1;jettySize=auto;html=1;" parent="8WT_DYF4QWscyHyzon4S-283" source="8WT_DYF4QWscyHyzon4S-213" target="8WT_DYF4QWscyHyzon4S-197" edge="1">
          <mxGeometry relative="1" as="geometry" />
        </mxCell>
        <mxCell id="8WT_DYF4QWscyHyzon4S-227" style="edgeStyle=orthogonalEdgeStyle;rounded=0;orthogonalLoop=1;jettySize=auto;html=1;entryX=0;entryY=0.5;entryDx=0;entryDy=0;" parent="8WT_DYF4QWscyHyzon4S-283" target="8WT_DYF4QWscyHyzon4S-197" edge="1">
          <mxGeometry relative="1" as="geometry">
            <mxPoint x="590" y="200" as="sourcePoint" />
            <Array as="points">
              <mxPoint x="650" y="200" />
              <mxPoint x="650" y="340" />
            </Array>
          </mxGeometry>
        </mxCell>
        <mxCell id="8WT_DYF4QWscyHyzon4S-228" style="edgeStyle=orthogonalEdgeStyle;rounded=0;orthogonalLoop=1;jettySize=auto;html=1;entryX=0;entryY=0.5;entryDx=0;entryDy=0;" parent="8WT_DYF4QWscyHyzon4S-283" source="8WT_DYF4QWscyHyzon4S-218" target="8WT_DYF4QWscyHyzon4S-197" edge="1">
          <mxGeometry relative="1" as="geometry" />
        </mxCell>
        <mxCell id="8WT_DYF4QWscyHyzon4S-229" value="Cache Evict" style="text;html=1;align=center;verticalAlign=middle;resizable=0;points=[];autosize=1;strokeColor=none;fillColor=none;fontFamily=Do Hyeon;fontSource=https%3A%2F%2Ffonts.googleapis.com%2Fcss%3Ffamily%3DDo%2BHyeon;fontColor=#FF3333;" parent="8WT_DYF4QWscyHyzon4S-283" vertex="1">
          <mxGeometry x="355" y="189.83999999999992" width="80" height="30" as="geometry" />
        </mxCell>
        <mxCell id="8WT_DYF4QWscyHyzon4S-241" style="edgeStyle=orthogonalEdgeStyle;rounded=0;orthogonalLoop=1;jettySize=auto;html=1;entryX=0;entryY=0.5;entryDx=0;entryDy=0;strokeWidth=3;strokeColor=#FF0000;" parent="8WT_DYF4QWscyHyzon4S-283" source="8WT_DYF4QWscyHyzon4S-230" target="8WT_DYF4QWscyHyzon4S-237" edge="1">
          <mxGeometry relative="1" as="geometry" />
        </mxCell>
        <mxCell id="8WT_DYF4QWscyHyzon4S-242" style="edgeStyle=orthogonalEdgeStyle;rounded=0;orthogonalLoop=1;jettySize=auto;html=1;strokeWidth=3;strokeColor=#FF0000;" parent="8WT_DYF4QWscyHyzon4S-283" source="8WT_DYF4QWscyHyzon4S-230" target="8WT_DYF4QWscyHyzon4S-238" edge="1">
          <mxGeometry relative="1" as="geometry" />
        </mxCell>
        <mxCell id="8WT_DYF4QWscyHyzon4S-243" style="edgeStyle=orthogonalEdgeStyle;rounded=0;orthogonalLoop=1;jettySize=auto;html=1;entryX=0;entryY=0.5;entryDx=0;entryDy=0;strokeWidth=3;strokeColor=#FF0000;" parent="8WT_DYF4QWscyHyzon4S-283" source="8WT_DYF4QWscyHyzon4S-230" target="8WT_DYF4QWscyHyzon4S-239" edge="1">
          <mxGeometry relative="1" as="geometry" />
        </mxCell>
        <mxCell id="8WT_DYF4QWscyHyzon4S-230" value="" style="shape=image;verticalLabelPosition=bottom;labelBackgroundColor=default;verticalAlign=top;aspect=fixed;imageAspect=0;editableCssRules=.*;image=data:image/svg+xml,PHN2ZyB4bWxucz0iaHR0cDovL3d3dy53My5vcmcvMjAwMC9zdmciIHdpZHRoPSIyNTYiIHZpZXdCb3g9IjAgMCAyNTYgMjIwIiBwcmVzZXJ2ZUFzcGVjdFJhdGlvPSJ4TWlkWU1pZCIgaGVpZ2h0PSIyMjAiPjxwYXRoIGZpbGw9IiM5MTI2MjYiIGQ9Im0yNDUuOTY5Njg3IDE2OC45NDMyNTZjLTEzLjY2MTQyOCA3LjEyMTIyMy04NC40MzM2MzkgMzYuMjIwMTMyLTk5LjUwMTExIDQ0LjA3NDM3Ny0xNS4wNjY0NyA3Ljg1NjI0Ni0yMy40MzY3MzMgNy43ODAyNDMtMzUuMzM5MTA0IDIuMDkwMDY2LTExLjkwMjM3MjMtNS42OTAxNzgtODcuMjE2NzI1Ny0zNi4xMTIxMjktMTAwLjc4MzE0OTYtNDIuNTk2MzMxLTYuNzgxMjExOTktMy4yNDExMDEtMTAuMzQ2MzIzNC01Ljk3NjE4Ny0xMC4zNDYzMjM0LTguNTYwMjY4di0yNS44NzU4MDhzOTguMDQ5MDYzOS0yMS4zNDU2NjcgMTEzLjg3ODU1OS0yNy4wMjM4NDVjMTUuODI4NDk0LTUuNjc5MTc4IDIxLjMyMDY2Ni01Ljg4NDE4MyAzNC43OTEwODctLjk1MDAyOSAxMy40NzE0MjEgNC45MzUxNTQgOTQuMDE2OTM3IDE5LjQ2NzYwOCAxMDcuMzMwMzU0IDI0LjM0Mzc2IDAgMC0uMDA2MDAxIDIzLjExMDcyMi0uMDA2MDAxIDI1LjUwOTc5Ny4wMDIwMDEgMi41NTgwOC0zLjA3MDA5NSA1LjM2NDE2OC0xMC4wMjQzMTIgOC45ODgyODEiLz48cGF0aCBmaWxsPSIjYzYzMDJiIiBkPSJtMjQ1Ljk2NDkyMiAxNDMuMjIwMDY3Yy0xMy42NjA5ODcgNy4xMTc5OTMtODQuNDMwOTE5IDM2LjIxNzk2NS05OS40OTc5MDUgNDQuMDcxOTU3LTE1LjA2NTk4NiA3Ljg1Njk5NC0yMy40MzU5NzggNy43Nzk5OTMtMzUuMzM3OTY3IDIuMDg5OTk5LTExLjkwMjk4ODItNS42ODU5OTUtODcuMjEzOTE2NC0zNi4xMTI5NjYtMTAwLjc3OTkwMzQtNDIuNTkzOTYtMTMuNTY1OTg3MTMtNi40ODQ5OTQtMTMuODUwOTg2ODYtMTAuOTQ3OTg5LS41MjM5OTk1NS0xNi4xNjU5ODQgMTMuMzI1OTg3MjUtNS4yMTk5OTUgODguMjIzOTE1ODUtMzQuNjA0OTY3MyAxMDQuMDU0ODk5OTUtNDAuMjgzOTYxOCAxNS44Mjc5ODYtNS42NzY5OTQ2IDIxLjMxODk4MS01Ljg4Mzk5NDQgMzQuNzg4OTY3LS45NDc5OTkxIDEzLjQ3MDk4OCA0LjkzMzk5NTMgODMuODE4OTIxIDMyLjkzNDk2ODkgOTcuMTMwOTA4IDM3LjgwOTk2MzkgMTMuMzE0OTg4IDQuODgwOTk2IDEzLjgyNTk4NiA4Ljg5ODk5MS4xNjUgMTYuMDE5OTg1Ii8+PHBhdGggZmlsbD0iIzkxMjYyNiIgZD0ibTI0NS45Njk2ODcgMTI3LjA3NDM1NGMtMTMuNjYxNDI4IDcuMTIxMjIzLTg0LjQzMzYzOSAzNi4yMjAxMzItOTkuNTAxMTEgNDQuMDc3Mzc4LTE1LjA2NjQ3IDcuODUzMjQ1LTIzLjQzNjczMyA3Ljc3NzI0My0zNS4zMzkxMDQgMi4wODcwNjUtMTEuOTAzMzcyMy01LjY4NzE3OC04Ny4yMTY3MjU3LTM2LjExMjEyOS0xMDAuNzgzMTQ5Ni00Mi41OTYzMzItNi43ODEyMTE5OS0zLjI0MTEwMS0xMC4zNDYzMjM0LTUuOTczMTg2LTEwLjM0NjMyMzQtOC41NTcyNjZ2LTI1Ljg3ODgwOTVzOTguMDQ5MDYzOS0yMS4zNDQ2NjY5IDExMy44Nzg1NTktMjcuMDIzODQ0NWMxNS44Mjg0OTQtNS42NzgxNzc0IDIxLjMyMDY2Ni01Ljg4NDE4MzggMzQuNzkxMDg3LS45NTAwMjk2IDEzLjQ3MTQyMSA0LjkzNTE1NDMgOTQuMDE2OTM3IDE5LjQ2NDYwODMgMTA3LjMzMDM1NCAyNC4zNDE3NjA3IDAgMC0uMDA2MDAxIDIzLjExMDcyMTktLjAwNjAwMSAyNS41MTI3OTY5LjAwMjAwMSAyLjU1NzA4LTMuMDcwMDk1IDUuMzYzMTY4LTEwLjAyNDMxMiA4Ljk4NzI4MSIvPjxwYXRoIGZpbGw9IiNjNjMwMmIiIGQ9Im0yNDUuOTY0OTIyIDEwMS4zNTExNjRjLTEzLjY2MDk4NyA3LjExOTk5My04NC40MzA5MTkgMzYuMjE3OTY1LTk5LjQ5NzkwNSA0NC4wNzQ5NTgtMTUuMDY1OTg2IDcuODUzOTkyLTIzLjQzNTk3OCA3Ljc3Njk5Mi0zNS4zMzc5NjcgMi4wODY5OTgtMTEuOTAyOTg4Mi01LjY4NTk5NS04Ny4yMTM5MTY0LTM2LjExMTk2Ni0xMDAuNzc5OTAzNC00Mi41OTM5Ni0xMy41NjU5ODcxMy02LjQ4Mjk5MzYtMTMuODUwOTg2ODYtMTAuOTQ2OTg5NC0uNTIzOTk5NTUtMTYuMTY2OTg0NCAxMy4zMjU5ODcyNS01LjIxNjk5NSA4OC4yMjM5MTU4NS0zNC42MDM5NjY5IDEwNC4wNTQ4OTk5NS00MC4yODE5NjE1IDE1LjgyNzk4Ni01LjY3Nzk5NDYgMjEuMzE4OTgxLTUuODgzOTk0NCAzNC43ODg5NjctLjk0ODk5OTEgMTMuNDcwOTg4IDQuOTMzOTk1MiA4My44MTg5MjEgMzIuOTMyOTY4NSA5Ny4xMzA5MDggMzcuODA5OTYzOSAxMy4zMTQ5ODggNC44Nzg5OTUzIDEzLjgyNTk4NiA4Ljg5ODk5MTUuMTY1IDE2LjAxODk4NDF6Ii8+PHBhdGggZmlsbD0iIzkxMjYyNiIgZD0ibTI0NS45Njk2ODcgODMuNjUyNTY2MWMtMTMuNjYxNDI4IDcuMTIxMjIyNi04NC40MzM2MzkgMzYuMjIxMTMxOS05OS41MDExMSA0NC4wNzgzNzc5LTE1LjA2NjQ3IDcuODU0MjQ1LTIzLjQzNjczMyA3Ljc3NzI0My0zNS4zMzkxMDQgMi4wODcwNjQtMTEuOTAzMzcyMy01LjY4NzE3Ny04Ny4yMTY3MjU3LTM2LjExMzEyNzgtMTAwLjc4MzE0OTYtNDIuNTk1MzMwMy02Ljc4MTIxMTk5LTMuMjQyMTAxMy0xMC4zNDYzMjM0LTUuOTc1MTg2OC0xMC4zNDYzMjM0LTguNTU3MjY3NXYtMjUuODc5ODA4N3M5OC4wNDkwNjM5LTIxLjM0MzY2NyAxMTMuODc4NTU5LTI3LjAyMTg0NDRjMTUuODI4NDk0LTUuNjc5MTc3NCAyMS4zMjA2NjYtNS44ODQxODM4IDM0Ljc5MTA4Ny0uOTUwMDI5NiAxMy40NzE0MjEgNC45MzUxNTQyIDk0LjAxNjkzNyAxOS40NjQ2MDgyIDEwNy4zMzAzNTQgMjQuMzQxNzYwNiAwIDAtLjAwNjAwMSAyMy4xMTA3MjIyLS4wMDYwMDEgMjUuNTExNzk3Mi4wMDIwMDEgMi41NTUwNzk5LTMuMDcwMDk1IDUuMzYxMTY3NS0xMC4wMjQzMTIgOC45ODUyODA4Ii8+PHBhdGggZmlsbD0iI2M2MzAyYiIgZD0ibTI0NS45NjQ5MjIgNTcuOTI5Mzg3Yy0xMy42NjA5ODcgNy4xMTk5OTMyLTg0LjQzMDkxOSAzNi4yMTk5NjU0LTk5LjQ5NzkwNSA0NC4wNzQ5NTgtMTUuMDY1OTg2IDcuODUzOTkzLTIzLjQzNTk3OCA3Ljc3Njk5My0zNS4zMzc5NjcgMi4wODg5OTgtMTEuOTAxOTg4My01LjY4Nzk5NDYtODcuMjEzOTE2NC0zNi4xMTE5NjU3LTEwMC43Nzk5MDM0LTQyLjU5NDk1OTQtMTMuNTY1OTg3MTMtNi40ODI5OTM4LTEzLjg1MDk4Njg2LTEwLjk0Nzk4OTYtLjUyMzk5OTU1LTE2LjE2Njk4NDYgMTMuMzI1OTg3MjUtNS4yMTc5OTUgODguMjIzOTE1ODUtMzQuNjAxOTY3IDEwNC4wNTQ4OTk5NS00MC4yODE5NjE1NiAxNS44Mjc5ODYtNS42Nzg5OTQ1OSAyMS4zMTg5ODEtNS44ODI5OTQzOSAzNC43ODg5NjctLjk0Nzk5OTEgMTMuNDcwOTg4IDQuOTM0OTk1MjkgODMuODE4OTIxIDMyLjkzMzk2ODU2IDk3LjEzMDkwOCAzNy44MTA5NjM4NiAxMy4zMTQ5ODggNC44NzU5OTU0IDEzLjgyNTk4NiA4Ljg5Njk5MTYuMTY1IDE2LjAxNjk4NDgiLz48ZyBmaWxsPSIjZmZmIj48cGF0aCBkPSJtMTU5LjI4Mjk3NyAzMi43NTcwODUzLTIyLjAwOTA1NSAyLjI4NTE0NzMtNC45Mjc1MDMgMTEuODU1Mzc5OC03Ljk1ODgyMi0xMy4yMjk2NDM0LTI1LjQxNDQ1LTIuMjg0MTU1IDE4Ljk2Mzg0NS02LjgzODU3MzctNS42ODk1NS0xMC40OTc5ODQ1IDE3Ljc1NDI5NCA2Ljk0Mzc1MiAxNi43MzgyMzMtNS40ODAxODYxLTQuNTIzNjU5IDEwLjg1NTE5Mzh6Ii8+PHBhdGggZD0ibTEzMS4wMzE2OSA5MC4yNzQ3Mjg3LTQxLjA3NzA4NTMtMTcuMDM2ODk5MiA1OC44NjExNDczLTkuMDM0NDE4NnoiLz48cGF0aCBkPSJtNzQuMDgxNjEyNCAzOS4zNDY2MDQ3YzE3LjM3NTI1NTggMCAzMS40NjAyMTY2IDUuNDYwMzQxIDMxLjQ2MDIxNjYgMTIuMTk0NzI4NiAwIDYuNzM1Mzc5OS0xNC4wODQ5NjA4IDEyLjE5NDcyODctMzEuNDYwMjE2NiAxMi4xOTQ3Mjg3LTE3LjM3NDI2MzYgMC0zMS40NjAyMTcxLTUuNDU5MzQ4OC0zMS40NjAyMTcxLTEyLjE5NDcyODcgMC02LjczNDM4NzYgMTQuMDg1OTUzNS0xMi4xOTQ3Mjg2IDMxLjQ2MDIxNzEtMTIuMTk0NzI4NiIvPjwvZz48cGF0aCBmaWxsPSIjNjIxYjFjIiBkPSJtMTg1LjI5NDc2IDM1Ljk5Nzc2NzQgMzQuODM1ODQ1IDEzLjc2NjQ0OTctMzQuODA2MDc4IDEzLjc1MjU1ODF6Ii8+PHBhdGggZmlsbD0iIzlhMjkyOCIgZD0ibTE0Ni43NTQ4NTMgNTEuMjQyNjY2NyAzOC41Mzk5MDctMTUuMjQ0ODk5My4wMjk3NjcgMjcuNTE5MDA3OC0zLjc3ODQ4IDEuNDc4NDQ5NnoiLz48L3N2Zz4=;" parent="8WT_DYF4QWscyHyzon4S-283" vertex="1">
          <mxGeometry x="840" y="275" width="128" height="110" as="geometry" />
        </mxCell>
        <mxCell id="8WT_DYF4QWscyHyzon4S-232" value="publish cache evict message" style="text;html=1;align=center;verticalAlign=middle;resizable=0;points=[];autosize=1;strokeColor=none;fillColor=none;fontFamily=Do Hyeon;fontSource=https%3A%2F%2Ffonts.googleapis.com%2Fcss%3Ffamily%3DDo%2BHyeon;fontColor=#FF0000;fontSize=20;" parent="8WT_DYF4QWscyHyzon4S-283" vertex="1">
          <mxGeometry x="516" y="70" width="260" height="40" as="geometry" />
        </mxCell>
        <mxCell id="8WT_DYF4QWscyHyzon4S-235" value="Spring Server 2" style="text;html=1;align=center;verticalAlign=middle;resizable=0;points=[];autosize=1;strokeColor=none;fillColor=none;fontFamily=Do Hyeon;fontSource=https%3A%2F%2Ffonts.googleapis.com%2Fcss%3Ffamily%3DDo%2BHyeon;fontSize=15;" parent="8WT_DYF4QWscyHyzon4S-283" vertex="1">
          <mxGeometry x="1050" y="363" width="120" height="30" as="geometry" />
        </mxCell>
        <mxCell id="8WT_DYF4QWscyHyzon4S-236" value="Spring Server 3" style="text;html=1;align=center;verticalAlign=middle;resizable=0;points=[];autosize=1;strokeColor=none;fillColor=none;fontFamily=Do Hyeon;fontSource=https%3A%2F%2Ffonts.googleapis.com%2Fcss%3Ffamily%3DDo%2BHyeon;fontSize=15;" parent="8WT_DYF4QWscyHyzon4S-283" vertex="1">
          <mxGeometry x="1050" y="512.5799999999999" width="120" height="30" as="geometry" />
        </mxCell>
        <mxCell id="8WT_DYF4QWscyHyzon4S-237" value="" style="shape=image;verticalLabelPosition=bottom;labelBackgroundColor=default;verticalAlign=top;aspect=fixed;imageAspect=0;editableCssRules=.*;image=data:image/svg+xml,PHN2ZyB4bWxucz0iaHR0cDovL3d3dy53My5vcmcvMjAwMC9zdmciIHZpZXdCb3g9IjAgMCAzMiAzMiIgaGVpZ2h0PSIzMiIgd2lkdGg9IjMyIj48ZyBmaWxsLXJ1bGU9ImV2ZW5vZGQiIGZpbGw9Im5vbmUiPjxwYXRoIGQ9Ik0wIDBoMzJ2MzJIMHoiLz48cGF0aCBkPSJNNS40NjYgMjcuOTkzYTEuMzY0IDEuMzY0IDAgMTAtLjA4Ny0uMDc2bC0uMjY2LS4yMzRDMS45NzIgMjQuNzYyIDAgMjAuNTk3IDAgMTUuOTc4IDAgNy4xNjggNy4xNjggMCAxNS45OCAwYzQuNDggMCA4LjUzIDEuODU3IDExLjQzNSA0LjgzNmExNC42ODEgMTQuNjgxIDAgMDAxLjctMy4wMTVjMi4wMzYgNi4xMTggMy4yMzMgMTEuMjYgMi43OTUgMTUuMzEtLjU5MiA4LjI3NC03LjUwOCAxNC44My0xNS45MyAxNC44M2ExNS45MDMgMTUuOTAzIDAgMDEtMTAuMjc2LTMuNzU3bC0uMjM4LS4yMXptMjMuNTgtNC45ODJjNC4wMS01LjMzNiAxLjc3NS0xMy45NjUtLjA4NS0xOS40OC0xLjY1NyAzLjQ1My01LjczOCA2LjA5NC05LjI2MiA2LjkzLTMuMzAzLjc4OC02LjIyNi4xNDItOS4yODMgMS4zMTgtNi45NyAyLjY4LTYuODYgMTAuOTkyLTMuMDIgMTIuODYuMDAyIDAgLjIzLjEyNC4yMjcuMTIgMC0uMDAyIDUuNjQ0LTEuMTIyIDguNzY0LTIuMjc0IDQuNTYtMS42ODQgOS41NjYtNS44MzUgMTEuMjEzLTEwLjY1Ny0uODc3IDUuMDE1LTUuMTgyIDkuODQtOS41MDcgMTIuMDU2LTIuMzAyIDEuMTgyLTQuMDkyIDEuNDQ1LTcuODggMi43NTYtLjQ2NC4xNTgtLjgyOC4zMTQtLjgyOC4zMTQuOTYtLjE2IDEuOTE3LS4yMTIgMS45MTctLjIxMiA1LjM5My0uMjU1IDEzLjgwNyAxLjUxNiAxNy43NDUtMy43M3oiIGZpbGw9IiM3MEFENTEiLz48L2c+PC9zdmc+;" parent="8WT_DYF4QWscyHyzon4S-283" vertex="1">
          <mxGeometry x="1071" y="157.41999999999996" width="60" height="60" as="geometry" />
        </mxCell>
        <mxCell id="8WT_DYF4QWscyHyzon4S-238" value="" style="shape=image;verticalLabelPosition=bottom;labelBackgroundColor=default;verticalAlign=top;aspect=fixed;imageAspect=0;editableCssRules=.*;image=data:image/svg+xml,PHN2ZyB4bWxucz0iaHR0cDovL3d3dy53My5vcmcvMjAwMC9zdmciIHZpZXdCb3g9IjAgMCAzMiAzMiIgaGVpZ2h0PSIzMiIgd2lkdGg9IjMyIj48ZyBmaWxsLXJ1bGU9ImV2ZW5vZGQiIGZpbGw9Im5vbmUiPjxwYXRoIGQ9Ik0wIDBoMzJ2MzJIMHoiLz48cGF0aCBkPSJNNS40NjYgMjcuOTkzYTEuMzY0IDEuMzY0IDAgMTAtLjA4Ny0uMDc2bC0uMjY2LS4yMzRDMS45NzIgMjQuNzYyIDAgMjAuNTk3IDAgMTUuOTc4IDAgNy4xNjggNy4xNjggMCAxNS45OCAwYzQuNDggMCA4LjUzIDEuODU3IDExLjQzNSA0LjgzNmExNC42ODEgMTQuNjgxIDAgMDAxLjctMy4wMTVjMi4wMzYgNi4xMTggMy4yMzMgMTEuMjYgMi43OTUgMTUuMzEtLjU5MiA4LjI3NC03LjUwOCAxNC44My0xNS45MyAxNC44M2ExNS45MDMgMTUuOTAzIDAgMDEtMTAuMjc2LTMuNzU3bC0uMjM4LS4yMXptMjMuNTgtNC45ODJjNC4wMS01LjMzNiAxLjc3NS0xMy45NjUtLjA4NS0xOS40OC0xLjY1NyAzLjQ1My01LjczOCA2LjA5NC05LjI2MiA2LjkzLTMuMzAzLjc4OC02LjIyNi4xNDItOS4yODMgMS4zMTgtNi45NyAyLjY4LTYuODYgMTAuOTkyLTMuMDIgMTIuODYuMDAyIDAgLjIzLjEyNC4yMjcuMTIgMC0uMDAyIDUuNjQ0LTEuMTIyIDguNzY0LTIuMjc0IDQuNTYtMS42ODQgOS41NjYtNS44MzUgMTEuMjEzLTEwLjY1Ny0uODc3IDUuMDE1LTUuMTgyIDkuODQtOS41MDcgMTIuMDU2LTIuMzAyIDEuMTgyLTQuMDkyIDEuNDQ1LTcuODggMi43NTYtLjQ2NC4xNTgtLjgyOC4zMTQtLjgyOC4zMTQuOTYtLjE2IDEuOTE3LS4yMTIgMS45MTctLjIxMiA1LjM5My0uMjU1IDEzLjgwNyAxLjUxNiAxNy43NDUtMy43M3oiIGZpbGw9IiM3MEFENTEiLz48L2c+PC9zdmc+;" parent="8WT_DYF4QWscyHyzon4S-283" vertex="1">
          <mxGeometry x="1071" y="300" width="60" height="60" as="geometry" />
        </mxCell>
        <mxCell id="8WT_DYF4QWscyHyzon4S-239" value="" style="shape=image;verticalLabelPosition=bottom;labelBackgroundColor=default;verticalAlign=top;aspect=fixed;imageAspect=0;editableCssRules=.*;image=data:image/svg+xml,PHN2ZyB4bWxucz0iaHR0cDovL3d3dy53My5vcmcvMjAwMC9zdmciIHZpZXdCb3g9IjAgMCAzMiAzMiIgaGVpZ2h0PSIzMiIgd2lkdGg9IjMyIj48ZyBmaWxsLXJ1bGU9ImV2ZW5vZGQiIGZpbGw9Im5vbmUiPjxwYXRoIGQ9Ik0wIDBoMzJ2MzJIMHoiLz48cGF0aCBkPSJNNS40NjYgMjcuOTkzYTEuMzY0IDEuMzY0IDAgMTAtLjA4Ny0uMDc2bC0uMjY2LS4yMzRDMS45NzIgMjQuNzYyIDAgMjAuNTk3IDAgMTUuOTc4IDAgNy4xNjggNy4xNjggMCAxNS45OCAwYzQuNDggMCA4LjUzIDEuODU3IDExLjQzNSA0LjgzNmExNC42ODEgMTQuNjgxIDAgMDAxLjctMy4wMTVjMi4wMzYgNi4xMTggMy4yMzMgMTEuMjYgMi43OTUgMTUuMzEtLjU5MiA4LjI3NC03LjUwOCAxNC44My0xNS45MyAxNC44M2ExNS45MDMgMTUuOTAzIDAgMDEtMTAuMjc2LTMuNzU3bC0uMjM4LS4yMXptMjMuNTgtNC45ODJjNC4wMS01LjMzNiAxLjc3NS0xMy45NjUtLjA4NS0xOS40OC0xLjY1NyAzLjQ1My01LjczOCA2LjA5NC05LjI2MiA2LjkzLTMuMzAzLjc4OC02LjIyNi4xNDItOS4yODMgMS4zMTgtNi45NyAyLjY4LTYuODYgMTAuOTkyLTMuMDIgMTIuODYuMDAyIDAgLjIzLjEyNC4yMjcuMTIgMC0uMDAyIDUuNjQ0LTEuMTIyIDguNzY0LTIuMjc0IDQuNTYtMS42ODQgOS41NjYtNS44MzUgMTEuMjEzLTEwLjY1Ny0uODc3IDUuMDE1LTUuMTgyIDkuODQtOS41MDcgMTIuMDU2LTIuMzAyIDEuMTgyLTQuMDkyIDEuNDQ1LTcuODggMi43NTYtLjQ2NC4xNTgtLjgyOC4zMTQtLjgyOC4zMTQuOTYtLjE2IDEuOTE3LS4yMTIgMS45MTctLjIxMiA1LjM5My0uMjU1IDEzLjgwNyAxLjUxNiAxNy43NDUtMy43M3oiIGZpbGw9IiM3MEFENTEiLz48L2c+PC9zdmc+;" parent="8WT_DYF4QWscyHyzon4S-283" vertex="1">
          <mxGeometry x="1071" y="447.5799999999999" width="60" height="60" as="geometry" />
        </mxCell>
        <mxCell id="8WT_DYF4QWscyHyzon4S-240" value="Spring Server 1" style="text;html=1;align=center;verticalAlign=middle;resizable=0;points=[];autosize=1;strokeColor=none;fillColor=none;fontFamily=Do Hyeon;fontSource=https%3A%2F%2Ffonts.googleapis.com%2Fcss%3Ffamily%3DDo%2BHyeon;fontSize=15;" parent="8WT_DYF4QWscyHyzon4S-283" vertex="1">
          <mxGeometry x="1050" y="217.41999999999985" width="120" height="30" as="geometry" />
        </mxCell>
        <mxCell id="8WT_DYF4QWscyHyzon4S-244" value="cache envict" style="text;html=1;align=center;verticalAlign=middle;resizable=0;points=[];autosize=1;strokeColor=none;fillColor=none;fontFamily=Do Hyeon;fontSource=https%3A%2F%2Ffonts.googleapis.com%2Fcss%3Ffamily%3DDo%2BHyeon;fontColor=#FF0000;" parent="8WT_DYF4QWscyHyzon4S-283" vertex="1">
          <mxGeometry x="930" y="245" width="90" height="30" as="geometry" />
        </mxCell>
        <mxCell id="OTgdlcl_DC9xDUWZ-T-0-1" value="" style="group" parent="1" vertex="1" connectable="0">
          <mxGeometry x="93" y="210" width="620" height="410" as="geometry" />
        </mxCell>
        <mxCell id="8WT_DYF4QWscyHyzon4S-19" value="" style="rounded=1;whiteSpace=wrap;html=1;" parent="OTgdlcl_DC9xDUWZ-T-0-1" vertex="1">
          <mxGeometry width="620" height="410" as="geometry" />
        </mxCell>
        <mxCell id="8WT_DYF4QWscyHyzon4S-8" style="edgeStyle=orthogonalEdgeStyle;rounded=0;orthogonalLoop=1;jettySize=auto;html=1;" parent="OTgdlcl_DC9xDUWZ-T-0-1" source="8WT_DYF4QWscyHyzon4S-1" target="8WT_DYF4QWscyHyzon4S-3" edge="1">
          <mxGeometry relative="1" as="geometry" />
        </mxCell>
        <mxCell id="8WT_DYF4QWscyHyzon4S-1" value="" style="shape=image;verticalLabelPosition=bottom;labelBackgroundColor=default;verticalAlign=top;aspect=fixed;imageAspect=0;editableCssRules=.*;image=data:image/svg+xml,PHN2ZyB4bWxucz0iaHR0cDovL3d3dy53My5vcmcvMjAwMC9zdmciIHZpZXdCb3g9IjAgMCAzMiAzMiI+PHBhdGggZmlsbD0iIzAxOTYzOSIgZD0ibTE1Ljk0OCAyaC4wNjVhMTAuNDE4IDEwLjQxOCAwIDAgMSAuOTcyLjUyOHE1LjQyOSAzLjEyMiAxMC44NTggNi4yNDZhLjc5Mi43OTIgMCAwIDEgLjQxNC43ODhjLS4wMDggNC4zODkgMCA4Ljc3Ny0uMDA1IDEzLjE2NGEuODEzLjgxMyAwIDAgMSAtLjM1Ni41MDdxLTUuNzczIDMuMzI0LTExLjU0NyA2LjY0NGEuNTg3LjU4NyAwIDAgMSAtLjY1Ny4wMzdxLTUuNzgtMy4zMTQtMTEuNTQ5LTYuNjRhLjcuNyAwIDAgMSAtLjQtLjY2NnEwLTYuNTgyIDAtMTMuMTYzYS42OTMuNjkzIDAgMCAxIC4zODctLjY3cTUuNDIyLTMuMTE4IDEwLjg0NC02LjI0Yy4zMjItLjE4NC42MzgtLjM3OS45NzQtLjUzNSIvPjxwYXRoIGZpbGw9IiNmZmYiIGQ9Im04Ljc2NyAxMC41MzhxMCA1LjQyOSAwIDEwLjg1OWExLjUwOSAxLjUwOSAwIDAgMCAuNDI3IDEuMDg3IDEuNjQ3IDEuNjQ3IDAgMCAwIDIuMDYuMjA2IDEuNTY0IDEuNTY0IDAgMCAwIC42ODUtMS4yOTNjMC0yLjYyLS4wMDUtNS4yNCAwLTcuODZxMy41ODMgNC4yOSA3LjE4MSA4LjU2OGEyLjgzMyAyLjgzMyAwIDAgMCAyLjYuNzgyIDEuNTYxIDEuNTYxIDAgMCAwIDEuMjUxLTEuMzcxcS4wMDgtNS41NDEgMC0xMS4wODFhMS41ODIgMS41ODIgMCAwIDAgLTMuMTUyIDBjMCAyLjY2Mi0uMDE2IDUuMzIxIDAgNy45ODItMi4zNDYtMi43NjYtNC42NjMtNS41NTYtNy04LjMzMmEyLjgxNyAyLjgxNyAwIDAgMCAtMi42NDktMS4wNTIgMS41NzkgMS41NzkgMCAwIDAgLTEuNDAzIDEuNTA1eiIvPjwvc3ZnPg==;" parent="OTgdlcl_DC9xDUWZ-T-0-1" vertex="1">
          <mxGeometry x="187" y="149.83999999999997" width="60" height="60" as="geometry" />
        </mxCell>
        <mxCell id="8WT_DYF4QWscyHyzon4S-3" value="" style="shape=image;verticalLabelPosition=bottom;labelBackgroundColor=default;verticalAlign=top;aspect=fixed;imageAspect=0;editableCssRules=.*;image=data:image/svg+xml,PHN2ZyB4bWxucz0iaHR0cDovL3d3dy53My5vcmcvMjAwMC9zdmciIHZpZXdCb3g9IjAgMCAzMiAzMiIgaGVpZ2h0PSIzMiIgd2lkdGg9IjMyIj48ZyBmaWxsLXJ1bGU9ImV2ZW5vZGQiIGZpbGw9Im5vbmUiPjxwYXRoIGQ9Ik0wIDBoMzJ2MzJIMHoiLz48cGF0aCBkPSJNNS40NjYgMjcuOTkzYTEuMzY0IDEuMzY0IDAgMTAtLjA4Ny0uMDc2bC0uMjY2LS4yMzRDMS45NzIgMjQuNzYyIDAgMjAuNTk3IDAgMTUuOTc4IDAgNy4xNjggNy4xNjggMCAxNS45OCAwYzQuNDggMCA4LjUzIDEuODU3IDExLjQzNSA0LjgzNmExNC42ODEgMTQuNjgxIDAgMDAxLjctMy4wMTVjMi4wMzYgNi4xMTggMy4yMzMgMTEuMjYgMi43OTUgMTUuMzEtLjU5MiA4LjI3NC03LjUwOCAxNC44My0xNS45MyAxNC44M2ExNS45MDMgMTUuOTAzIDAgMDEtMTAuMjc2LTMuNzU3bC0uMjM4LS4yMXptMjMuNTgtNC45ODJjNC4wMS01LjMzNiAxLjc3NS0xMy45NjUtLjA4NS0xOS40OC0xLjY1NyAzLjQ1My01LjczOCA2LjA5NC05LjI2MiA2LjkzLTMuMzAzLjc4OC02LjIyNi4xNDItOS4yODMgMS4zMTgtNi45NyAyLjY4LTYuODYgMTAuOTkyLTMuMDIgMTIuODYuMDAyIDAgLjIzLjEyNC4yMjcuMTIgMC0uMDAyIDUuNjQ0LTEuMTIyIDguNzY0LTIuMjc0IDQuNTYtMS42ODQgOS41NjYtNS44MzUgMTEuMjEzLTEwLjY1Ny0uODc3IDUuMDE1LTUuMTgyIDkuODQtOS41MDcgMTIuMDU2LTIuMzAyIDEuMTgyLTQuMDkyIDEuNDQ1LTcuODggMi43NTYtLjQ2NC4xNTgtLjgyOC4zMTQtLjgyOC4zMTQuOTYtLjE2IDEuOTE3LS4yMTIgMS45MTctLjIxMiA1LjM5My0uMjU1IDEzLjgwNyAxLjUxNiAxNy43NDUtMy43M3oiIGZpbGw9IiM3MEFENTEiLz48L2c+PC9zdmc+;" parent="OTgdlcl_DC9xDUWZ-T-0-1" vertex="1">
          <mxGeometry x="280" y="149.83999999999997" width="60" height="60" as="geometry" />
        </mxCell>
        <mxCell id="8WT_DYF4QWscyHyzon4S-4" value="" style="shape=image;verticalLabelPosition=bottom;labelBackgroundColor=default;verticalAlign=top;aspect=fixed;imageAspect=0;editableCssRules=.*;image=data:image/svg+xml,PHN2ZyB4bWxucz0iaHR0cDovL3d3dy53My5vcmcvMjAwMC9zdmciIHdpZHRoPSIyNTYiIHZpZXdCb3g9IjAgMCAyNTYgMjUyIiBwcmVzZXJ2ZUFzcGVjdFJhdGlvPSJ4TWlkWU1pZCIgaGVpZ2h0PSIyNTIiPjxnIGZpbGw9IiMwMDU0NmIiPjxwYXRoIGQ9Im0yMzUuNjQ4Mjc2IDE5NC4yMTE2MzJjLTEzLjkxODQyNS0uMzQ3MDczLTI0LjcwNTQwNCAxLjA0NTY0LTMzLjc1MjY3MiA0Ljg3MjMzMi0yLjYwOTcwNSAxLjA0MzQ0Mi02Ljc4NTY3NyAxLjA0NDUzNC03LjEzMzgzNyA0LjM0OTQ5NCAxLjM5MjczMSAxLjM5MjczMSAxLjU2NjI2NyAzLjY1NDI1OCAyLjc4NDMyOSA1LjU2NzU5NyAyLjA4OTA5NiAzLjQ3ODQ5NiA1Ljc0MTE1MSA4LjE3NzI4OCA5LjA0NzIyMSAxMC42MTM0NTIgMy42NTMxNDQgMi43ODMyNDEgNy4zMDczNzQgNS41NjY0ODIgMTEuMTM0MDk5IDguMDAyNjQ2IDYuNzg1Njc2IDQuMTc1OTcyIDE0LjQ0MTIwOSA2LjYxMTAxNyAyMS4wNTIyNjEgMTAuNzg2OTcgMy44Mjg5IDIuNDMzOTQ0IDcuNjU0NDQ2IDUuNTY3NTg4IDExLjQ4MjI1NyA4LjE3NzI4OCAxLjkxNDQ3MyAxLjM5MDUxNSAzLjEzMTQ0NyAzLjY1MzEzNCA1LjU2NzYxNSA0LjUyMzAzNXYtLjUyMTcxNGMtMS4yMTgxMDctMS41NjYyNTMtMS41NjYyNjctMy44Mjc3OC0yLjc4MzI0MS01LjU2NzU4OC0xLjczODcxNi0xLjczOTgwMy0zLjQ3OTYwNi0zLjMwNjA2MS01LjIxOTQwOS01LjA0NTg2NC01LjA0NTg3NC02Ljc4NDU4LTExLjMwODc2Ni0xMi43MDAyOTYtMTguMDk0MzUyLTE3LjU3MTUzMi01LjU2NjQ4Mi0zLjgyNzc5OC0xNy43NDYxOTItOS4wNDcxOTgtMjAuMDA3NzgzLTE1LjQ4NDY5NyAwIDAtLjE3NDYyNC0uMTczNTQxLS4zNDgxNi0uMzQ3MDgxIDMuODI3NzY3LS4zNDgxODMgOC4zNTA4MTItMS43Mzk3OSAxMi4wMDUwODctMi43ODQzNDcgNS45MTU3NzUtMS41NjYyNDkgMTEuMzA4NzY2LTEuMjE4MDc1IDE3LjM5Nzk4Ni0yLjc4MzI0MSAyLjc4MzI0Mi0uNjk2MzUyIDUuNTY3NjE1LTEuNTY2MjUzIDguMzUwODU2LTIuNDM2MTZ2LTEuNTY1MTQ3Yy0zLjEzMDMxMy0zLjEzMjU0My01LjM5Mjk0NS03LjMwNzM5MS04LjY5OTAxNi0xMC4yNjUyOTctOC44NzI1NTItNy42NTY2NjUtMTguNjE2MTM4LTE1LjEzNjUwOS0yOC43MDY3NTMtMjEuMzk5Mzg0LTUuMzk0MDc5LTMuNDc5NjAyLTEyLjM1MzI5Mi01Ljc0MjI0My0xOC4wOTQzNTItOC42OTkwMjUtMi4wODY4NzYtMS4wNDU2NC01LjU2NzYxNS0xLjU2NjI0OS02Ljc4NDU4OS0zLjMwNjA3LTMuMTMyNTIxLTMuODI3Nzc2LTQuODcyMzI0LTguODcyNTM5LTcuMTMzODQxLTEzLjM5NjcyLTUuMDQzNjUzLTkuNTY5OTc0LTkuOTE3MTE5LTIwLjE4MTI3My0xNC4yNjY1NzItMzAuMjcxOTE0LTMuMTMwMzE0LTYuNzg1NjcyLTUuMDQ0NzU5LTEzLjU3MTM3NTgtOC44NzI1NDgtMTkuODM0MTQxNy0xNy45MTk2OTYtMjkuNTc2NjE3OS0zNy40MDU3NjctNDcuNDk2NDEzMS02Ny4zMzA1NTQtNjUuMDY5MDY1OS02LjQzNzQ4NDgtMy42NTMxNTIyLTE0LjA5MTkzMDEtNS4yMTk0MDMzLTIyLjI2OTI0NTItNy4xMzI3NDUtNC4zNDgzOTc5LS4xNzQ2NDQxLTguNjk5MDE1OS0uNTIxNzE1OC0xMy4wNDg1NTU2LS42OTYzNTk5LTIuNzgzMjQxMS0xLjIxODA5NDYtNS41Njc1ODc3LTQuNTIzMDQzMy04LjAwMzc2MDctNi4wODkzMDg0LTkuOTE0ODcxLTYuMjYzOTQ4LTM1LjQ5MTMyMzQ5LTE5LjgzMzExNTE4LTQyLjc5ODY5MTctMS45MTMzNDE3My00LjY5NzY5MDYyIDExLjMwODc0OTIzIDYuOTU5MjEyNzQgMjIuNDQyNzc0NjMgMTAuOTYwNDkyNyAyOC4xODQ5Nzg4MyAyLjk1ODk4ODUgNC4wMDEzMzY2IDYuNzg1NjcyIDguNTI0MzcgOC44NzM2NTc4IDEzLjA0ODU2NTEgMS4yMTgwODg4IDIuOTU1Njc2MyAxLjU2NTE1NjggNi4wODkzMDIxIDIuNzgzMjQ1NiA5LjIyMDczMDMgMi43ODQzNDIxIDcuNjUzMzYyNCA1LjM5Mjk0MTMgMTYuMTc5ODk3OCA5LjA0NzE4OTUgMjMuMzEzODI5NCAxLjkxNDQ0NTEgMy42NTMxNTE3IDQuMDAxMzI1MyA3LjQ4MDkzNjIgNi40Mzc0ODkzIDEwLjc4NTg2IDEuMzkxNjE2IDEuOTEzMzM5NSAzLjgyNjY3ODkgMi43ODQzNDY2IDQuMzQ5NDk4OSA1LjkxNTc3MDMtMi40MzUwNTM5IDMuNDc5NTkyNy0yLjYwOTcwMDIgOC42OTkwMTU3LTQuMDAyNDMwOSAxMy4wNDg1NTU3LTYuMjYyODQyOSAxOS42NTk1LTMuODI2NjgzNCA0NC4wMTY4MDggNS4wNDU4NzMzIDU4LjQ1Njg5OCAyLjc4MzI0MTEgNC4zNDg0MDcgOS4zOTUzMzU5IDEzLjkxOTUzMSAxOC4yNjc5NjA2IDEwLjI2NTI5MiA3LjgyOTEwOTktMy4xMzE0MzggNi4wODkzMDIxLTEzLjA0ODU1NiA4LjM1MDgyODgtMjEuNzQ3NTcyLjUyMjgyOS0yLjA4OTA4Ny4xNzQ2NDE4LTMuNDc5NTkzIDEuMjE4MDg0Mi00Ljg3MTIyNy4wMDA5MDYyLjE3MzU0MSAwIC4zNDgxNzggMCAuMzQ4MTc4IDIuNDM2MTU5NSA0Ljg3MTIyNyA0Ljg3MTIyNjkgOS41Njg5NDkgNy4xMzI3NDQ1IDE0LjQ0MDA5NSA1LjM5NDA0NjkgOC41MjQzNjkgMTQuNzg4MzU0MyAxNy4zOTgwMTggMjIuNjE3NDEzOSAyMy4zMTM4NDcgNC4xNzcwNzggMy4xMzAzMDUgNy40ODIwMzMgOC41MjQzNzQgMTIuNzAxNDIgMTAuNDM4ODF2LS41MjI4MjloLS4zNDgxNzhjLTEuMDQ0NTQ0LTEuNTY2MjUzLTIuNjA5Ny0yLjI2MTUyNi00LjAwMTMyNS0zLjQ3OTU5Mi0zLjEzMTQyOS0zLjEzMTQyOS02LjYxMjEzNi02Ljk1OTIyNy05LjA0NzE5LTEwLjQzODgxMS03LjMwNjI4NTMtOS43NDM1OTUtMTMuNzQ0ODg5Mi0yMC41Mjk0NDYtMTkuNDg1OTgxNC0zMS42NjQ1ODUtMi43ODMyNDExLTUuMzkyOTQxLTUuMjE5NDAwNS0xMS4zMDg3NjItNy40ODA5MjcyLTE2LjcwMTY4NS0xLjA0NDU0MzQtMi4wODkwODItMS4wNDQ1NDM0LTUuMjE5NDA1LTIuNzg0MzQ2Ni02LjI2MjgzOC0yLjYwOTcwMDMgMy44MjY2NzQtNi40MzYzODM3IDcuMTMyNzQ0LTguMzUwODI4NyAxMS44MzA0NDQtMy4zMDM4NTQ1IDcuNDgwOTI3LTMuNjUzMTQyNyAxNi43MDE2OC00Ljg3MTIyNjkgMjYuMjcwNTMtLjY5NTI2ODkuMTc0NjUxLS4zNDgxODcyIDAtLjY5NjM2OTkuMzQ4MTkxLTUuNTY2NDg2Ni0xLjM5MjczLTcuNDgwOTMxNy03LjEzMjc0NC05LjU2ODk1MzgtMTIuMDA1MDg2LTUuMjE5NDA1LTEyLjM1MjEyNi02LjA4OTMwMi0zMi4xODYzNjgtMS41NjUxNTY4LTQ2LjQ1MTgxNiAxLjIxODA4NDMtMy42NTQyNDggNi40Mzc0ODkzLTE1LjEzNjUyMzIgNC4zNDk1MDM1LTE4LjYxNjEzNDEtMS4wNDM0NDI0LTMuMzA2MDc0Ni00LjUyNDE0OTgtNS4yMTk0MDUtNi40Mzc0ODkzLTcuODI5MTA1Mi0yLjI2MTUyNjctMy4zMDYwNzAxLTQuNjk3Njg2MS03LjQ4MDkzMTctNi4yNjI4NDI5LTExLjEzNTEzOTEtNC4xNzU5NzE3LTkuNzQyNDc2NS02LjI2Mzk0ODUtMjAuNTI5NDQ2Ni0xMC43ODY5NzQ2LTMwLjI3MzA0MjItMi4wODc5ODU4LTQuNTI0MTQ4OS01Ljc0MTEyODUtOS4yMjA3MzE3LTguNjk5MDE1OS0xMy4zOTU2MDkxLTMuMzA0OTU1NS00LjY5NzY3NzktNi45NTkyMTI4LTguMDAzNzQ4OS05LjU2ODk0OTI3LTEzLjU3MTM1NTctLjg2ODgwMDU3LTEuOTEzMzQxNy0yLjA4Nzk4NTg0LTUuMDQ0NzU5MS0uNjk2MzYwNzgtNy4xMzI3NTQuMzQ4MTgyNjYtMS4zOTE2MTE5IDEuMDQzNDM3ODgtMS45MTMzMzY3IDIuNDM2MTU5NDUtMi4yNjE1MjE2MyAyLjI2MTUyNjYtMS45MTQ0NDU0OCA4LjY5OTAxNTkuNTIxNzE1NzMgMTAuOTYwNDkyNyAxLjU2NTE2MTMzIDYuNDM3NDg5MyAyLjYwODU4ODggMTEuODMwNDQ0MiA1LjA0NTg3MjQgMTcuMjI0NDkxMSA4LjY5OTAxNSAyLjQzNTA1ODQgMS43Mzk4MDEgNS4wNDQ3NTg2IDUuMDQ1ODcxOSA4LjE3NjE4NjkgNS45MTU3NzI2aDMuNjU0MjQzN2M1LjU2NzU4NzYgMS4yMTY5ODE0IDExLjgzMDQ0NDEuMzQ4MTY1OSAxNy4wNDk4NDQ2IDEuOTEzMzQxMyA5LjIyMTgzNTkgMi45NTY3ODI4IDE3LjU3MTUzNjUgNy4zMDczODkxIDI1LjA1MzY0MTcgMTIuMDA1MDg2IDIyLjc5MjA2MDQgMTQuNDQwMDk3OCA0MS41ODA1ODM0IDM0Ljk3MDY2MzUgNTQuMjgyMDkzNCA1OS41MDE0OTQyIDIuMDg3OTg2IDQuMDAwMjI0NiAyLjk1Njc4MiA3LjY1NTU2NDYgNC44NzEyMjcgMTEuODMwNDQ0NiAzLjY1NDI0OCA4LjUyNTQ3NSA4LjE3NzI4OCAxNy4yMjQ0ODYgMTEuODMwNDQgMjUuNTc1MzI4IDMuNjUzMTQyIDguMTc2MTgzIDcuMTMyNzQ0IDE2LjUyODE0NCAxMi4zNTIxMzEgMjMuMzEzODMgMi42MTA4MDYgMy42NTIwNDYgMTMuMDQ4NTQyIDUuNTY2NDgyIDE3Ljc0NjE2NSA3LjQ4MDkyNyAzLjQ3OTYwNiAxLjU2NTE2NiA4Ljg3MzY4NSAyLjk1Nzg5NiAxMi4wMDUwODYgNC44NzEyMzEgNS45MTQ2ODkgMy42NTIwMzcgMTEuODMwNDY0IDcuODI5MTI0IDE3LjM5ODAzMyAxMS44MzA0NCAyLjc4NDMyOSAyLjA4Njg4OSAxMS40ODIyNTcgNi40Mzc0OTggMTIuMDA1MDg2IDkuOTE2MDA0eiIvPjxwYXRoIGQ9Im01OC4xODY0ODkyIDQzLjAyMjI2NDRjLTIuOTU3ODgyOSAwLTUuMDQ0NzU4Ny4zNDkyODgyLTcuMTMyNzQ0NS44NzEwMTYyIDAtLjAwMDkwNjIgMCAuMTc0NjQxOSAwIC4zNDgxODI3aC4zNDgxODcyYzEuMzkyNzI2MSAyLjc4MzI0MDEgMy44MjY2ODM1IDQuNjk3Njg1MiA1LjU2NjQ4MjEgNy4xMzI3MzQ1IDEuMzkyNzMwNiAyLjc4MzI0MTEgMi42MDk3MDAzIDUuNTY3NTk2NyA0LjAwMjQzMDkgOC4zNTE5NDM0LjE3MzUzMTctLjE3NDY0NjQuMzQ3MDcyNi0uMzQ4MTgyNy4zNDcwNzI2LS4zNDgxODI3IDIuNDM3Mjc0LTEuNzQwOTA4NyAzLjY1NDI0ODItNC41MjQxNDk4IDMuNjU0MjQ4Mi04LjY5OTAxNTktMS4wNDQ1NDgtMS4yMTgwODQzLTEuMjE4MDg4OC0yLjQzNjE2NC0yLjA4Nzk4NTktMy42NTQyNDgyLTEuMDQzNDQyNC0xLjc0MDkxMjQtMy4zMDYwNzQ2LTIuNjA5Njk5NC00LjY5NzY5MDYtNC4wMDI0M3oiLz48L2c+PC9zdmc+;" parent="OTgdlcl_DC9xDUWZ-T-0-1" vertex="1">
          <mxGeometry x="497" y="144.76" width="71.26" height="70.16" as="geometry" />
        </mxCell>
        <mxCell id="8WT_DYF4QWscyHyzon4S-6" value="" style="edgeStyle=orthogonalEdgeStyle;rounded=0;orthogonalLoop=1;jettySize=auto;html=1;" parent="OTgdlcl_DC9xDUWZ-T-0-1" source="8WT_DYF4QWscyHyzon4S-5" target="8WT_DYF4QWscyHyzon4S-1" edge="1">
          <mxGeometry relative="1" as="geometry" />
        </mxCell>
        <mxCell id="8WT_DYF4QWscyHyzon4S-5" value="" style="shape=image;verticalLabelPosition=bottom;labelBackgroundColor=default;verticalAlign=top;aspect=fixed;imageAspect=0;editableCssRules=.*;image=data:image/svg+xml,PHN2ZyB4bWxucz0iaHR0cDovL3d3dy53My5vcmcvMjAwMC9zdmciIHdpZHRoPSIxNiIgdmlld0JveD0iMCAwIDE2IDE2IiBoZWlnaHQ9IjE2Ij48cGF0aCBmaWxsPSJub25lIiBkPSJtMCAwaDE2djE2aC0xNnoiLz48cGF0aCBkPSJtOCA4YzIuMjA5IDAgNC0xLjc5MSA0LTRzLTEuNzkxLTQtNC00LTQgMS43OTEtNCA0IDEuNzkxIDQgNCA0em00IDJoLThjLTIuMjA5IDAtNCAxLjc5MS00IDR2MmgxNnYtMmMwLTIuMjA5LTEuNzkxLTQtNC00eiIvPjwvc3ZnPg==;" parent="OTgdlcl_DC9xDUWZ-T-0-1" vertex="1">
          <mxGeometry x="67" y="149.83999999999997" width="60" height="60" as="geometry" />
        </mxCell>
        <mxCell id="8WT_DYF4QWscyHyzon4S-9" style="edgeStyle=orthogonalEdgeStyle;rounded=0;orthogonalLoop=1;jettySize=auto;html=1;" parent="OTgdlcl_DC9xDUWZ-T-0-1" source="8WT_DYF4QWscyHyzon4S-3" target="8WT_DYF4QWscyHyzon4S-4" edge="1">
          <mxGeometry relative="1" as="geometry">
            <mxPoint x="347.15999999999997" y="170.66767441860458" as="sourcePoint" />
            <mxPoint x="384.18548999999996" y="169.16391999999996" as="targetPoint" />
            <Array as="points" />
          </mxGeometry>
        </mxCell>
        <mxCell id="8WT_DYF4QWscyHyzon4S-14" value="" style="group" parent="OTgdlcl_DC9xDUWZ-T-0-1" vertex="1" connectable="0">
          <mxGeometry x="427" y="230" width="180" height="130" as="geometry" />
        </mxCell>
        <mxCell id="8WT_DYF4QWscyHyzon4S-10" value="" style="rounded=1;whiteSpace=wrap;html=1;" parent="8WT_DYF4QWscyHyzon4S-14" vertex="1">
          <mxGeometry y="30" width="167.92" height="100" as="geometry" />
        </mxCell>
        <mxCell id="8WT_DYF4QWscyHyzon4S-13" value="" style="group" parent="8WT_DYF4QWscyHyzon4S-14" vertex="1" connectable="0">
          <mxGeometry x="10" width="170" height="130" as="geometry" />
        </mxCell>
        <mxCell id="8WT_DYF4QWscyHyzon4S-11" value="Local Cache" style="text;html=1;align=center;verticalAlign=middle;resizable=0;points=[];autosize=1;strokeColor=none;fillColor=none;container=1;fontFamily=Do Hyeon;fontSource=https%3A%2F%2Ffonts.googleapis.com%2Fcss%3Ffamily%3DDo%2BHyeon;" parent="8WT_DYF4QWscyHyzon4S-13" vertex="1">
          <mxGeometry x="29.999999999999986" width="80" height="30" as="geometry" />
        </mxCell>
        <mxCell id="8WT_DYF4QWscyHyzon4S-12" value="&lt;div&gt;{&lt;/div&gt;&lt;div&gt;&amp;nbsp; &amp;nbsp;&quot;name&quot;:&quot;Son&quot;,&lt;/div&gt;&lt;div&gt;&amp;nbsp; &amp;nbsp;&quot;age&quot;:33,&lt;/div&gt;&lt;div&gt;&amp;nbsp; &amp;nbsp;&quot;statusMessage&quot;:&quot;i am son&quot;&lt;/div&gt;&lt;div&gt;}&lt;/div&gt;" style="text;html=1;align=left;verticalAlign=middle;resizable=0;points=[];autosize=1;strokeColor=none;fillColor=none;fontFamily=Do Hyeon;fontSource=https%3A%2F%2Ffonts.googleapis.com%2Fcss%3Ffamily%3DDo%2BHyeon;" parent="8WT_DYF4QWscyHyzon4S-13" vertex="1">
          <mxGeometry y="35" width="170" height="90" as="geometry" />
        </mxCell>
        <mxCell id="8WT_DYF4QWscyHyzon4S-16" value="조회 (서버 1대인 경우)" style="text;html=1;align=center;verticalAlign=middle;whiteSpace=wrap;rounded=0;fontFamily=Do Hyeon;fontSource=https%3A%2F%2Ffonts.googleapis.com%2Fcss%3Ffamily%3DDo%2BHyeon;fontSize=30;" parent="OTgdlcl_DC9xDUWZ-T-0-1" vertex="1">
          <mxGeometry x="181.5" y="20" width="257" height="50" as="geometry" />
        </mxCell>
        <mxCell id="8WT_DYF4QWscyHyzon4S-17" style="edgeStyle=orthogonalEdgeStyle;rounded=0;orthogonalLoop=1;jettySize=auto;html=1;entryX=0.002;entryY=0.588;entryDx=0;entryDy=0;entryPerimeter=0;fillColor=#f8cecc;strokeColor=#FF0000;strokeWidth=3;" parent="OTgdlcl_DC9xDUWZ-T-0-1" source="8WT_DYF4QWscyHyzon4S-3" target="8WT_DYF4QWscyHyzon4S-10" edge="1">
          <mxGeometry relative="1" as="geometry" />
        </mxCell>
        <mxCell id="8WT_DYF4QWscyHyzon4S-18" value="Cache Hit" style="text;html=1;align=center;verticalAlign=middle;resizable=0;points=[];autosize=1;strokeColor=none;fillColor=none;fontFamily=Do Hyeon;fontSource=https%3A%2F%2Ffonts.googleapis.com%2Fcss%3Ffamily%3DDo%2BHyeon;fontColor=#FF3333;" parent="OTgdlcl_DC9xDUWZ-T-0-1" vertex="1">
          <mxGeometry x="321" y="250" width="70" height="30" as="geometry" />
        </mxCell>
      </root>
    </mxGraphModel>
  </diagram>
</mxfile>
